<svg width="123" height="101" viewBox="0 0 123 101" fill="none" xmlns="http://www.w3.org/2000/svg">
<path d="M33.8711 0.109375C46.5404 0.109375 55.7005 5.32747 61.3516 15.7637C65.7266 23.8301 67.9141 34.8815 67.9141 48.918C67.9141 62.2253 65.9316 73.2311 61.9668 81.9355C56.2246 94.4225 46.8366 100.666 33.8027 100.666C22.0449 100.666 13.2949 95.5618 7.55273 85.3535C2.76758 76.8314 0.375 65.3926 0.375 51.0371C0.375 39.9173 1.81055 30.3698 4.68164 22.3945C10.0592 7.53776 19.7891 0.109375 33.8711 0.109375ZM33.7344 89.4551C40.1146 89.4551 45.196 86.6296 48.9785 80.9785C52.7611 75.3275 54.6523 64.8001 54.6523 49.3965C54.6523 38.2767 53.2852 29.1393 50.5508 21.9844C47.8164 14.7839 42.5072 11.1836 34.623 11.1836C27.377 11.1836 22.0677 14.6016 18.6953 21.4375C15.3685 28.2279 13.7051 38.2539 13.7051 51.5156C13.7051 61.4961 14.776 69.5169 16.918 75.5781C20.1992 84.8294 25.8047 89.4551 33.7344 89.4551ZM85.9281 28.6836V19.25C94.8148 18.3841 101.013 16.9486 104.522 14.9434C108.031 12.8926 110.651 8.08464 112.383 0.519531H122.09V98H108.965V28.6836H85.9281Z" fill="url(#paint0_linear_3634_2553)"/>
<defs>
<linearGradient id="paint0_linear_3634_2553" x1="202.731" y1="50" x2="24.1154" y2="50" gradientUnits="userSpaceOnUse">
<stop stop-color="#5B5B5B" stop-opacity="0.8"/>
<stop offset="1" stop-color="#F5F7FA"/>
</linearGradient>
</defs>
</svg>
