<svg width="145" height="102" viewBox="0 0 145 102" fill="none" xmlns="http://www.w3.org/2000/svg">
<path d="M34.2031 1.10938C46.8724 1.10938 56.0326 6.32747 61.6836 16.7637C66.0586 24.8301 68.2461 35.8815 68.2461 49.918C68.2461 63.2253 66.2637 74.2311 62.2988 82.9355C56.5566 95.4225 47.1686 101.666 34.1348 101.666C22.377 101.666 13.627 96.5618 7.88477 86.3535C3.09961 77.8314 0.707031 66.3926 0.707031 52.0371C0.707031 40.9173 2.14258 31.3698 5.01367 23.3945C10.3913 8.53776 20.1211 1.10938 34.2031 1.10938ZM34.0664 90.4551C40.4466 90.4551 45.528 87.6296 49.3105 81.9785C53.0931 76.3275 54.9844 65.8001 54.9844 50.3965C54.9844 39.2767 53.6172 30.1393 50.8828 22.9844C48.1484 15.7839 42.8392 12.1836 34.9551 12.1836C27.709 12.1836 22.3997 15.6016 19.0273 22.4375C15.7005 29.2279 14.0371 39.2539 14.0371 52.5156C14.0371 62.4961 15.1081 70.5169 17.25 76.5781C20.5312 85.8294 26.1367 90.4551 34.0664 90.4551ZM77.2367 99C77.6924 90.569 79.4242 83.2318 82.432 76.9883C85.4854 70.7448 91.4099 65.071 100.205 59.9668L113.33 52.3789C119.209 48.9609 123.334 46.0443 125.704 43.6289C129.44 39.8464 131.309 35.5169 131.309 30.6406C131.309 24.944 129.6 20.4323 126.182 17.1055C122.764 13.7331 118.207 12.0469 112.51 12.0469C104.079 12.0469 98.2458 15.237 95.0102 21.6172C93.2784 25.0352 92.3214 29.7747 92.1391 35.8359H79.6293C79.766 27.3138 81.3383 20.3639 84.3461 14.9863C89.6781 5.50716 99.0889 0.767578 112.579 0.767578C123.789 0.767578 131.97 3.79818 137.12 9.85938C142.315 15.9206 144.912 22.6654 144.912 30.0938C144.912 37.9323 142.155 44.6315 136.641 50.1914C133.451 53.4271 127.732 57.3464 119.483 61.9492L110.118 67.1445C105.651 69.6055 102.142 71.9525 99.5902 74.1855C95.0329 78.1504 92.1618 82.5482 90.977 87.3789H144.434V99H77.2367Z" fill="url(#paint0_linear_3634_2558)"/>
<defs>
<linearGradient id="paint0_linear_3634_2558" x1="203.063" y1="51" x2="24.4474" y2="51" gradientUnits="userSpaceOnUse">
<stop stop-color="#5B5B5B" stop-opacity="0.8"/>
<stop offset="1" stop-color="#F5F7FA"/>
</linearGradient>
</defs>
</svg>
