<svg width="144" height="102" viewBox="0 0 144 102" fill="none" xmlns="http://www.w3.org/2000/svg">
<path d="M33.5391 1.10938C46.2083 1.10938 55.3685 6.32747 61.0195 16.7637C65.3945 24.8301 67.582 35.8815 67.582 49.918C67.582 63.2253 65.5996 74.2311 61.6348 82.9355C55.8926 95.4225 46.5046 101.666 33.4707 101.666C21.7129 101.666 12.9629 96.5618 7.2207 86.3535C2.43555 77.8314 0.0429688 66.3926 0.0429688 52.0371C0.0429688 40.9173 1.47852 31.3698 4.34961 23.3945C9.72721 8.53776 19.457 1.10938 33.5391 1.10938ZM33.4023 90.4551C39.7826 90.4551 44.8639 87.6296 48.6465 81.9785C52.429 76.3275 54.3203 65.8001 54.3203 50.3965C54.3203 39.2767 52.9531 30.1393 50.2188 22.9844C47.4844 15.7839 42.1751 12.1836 34.291 12.1836C27.0449 12.1836 21.7357 15.6016 18.3633 22.4375C15.0365 29.2279 13.373 39.2539 13.373 52.5156C13.373 62.4961 14.444 70.5169 16.5859 76.5781C19.8672 85.8294 25.4727 90.4551 33.4023 90.4551ZM108.565 101.666C96.9893 101.666 88.5811 98.4987 83.3402 92.1641C78.1449 85.7839 75.5473 78.0365 75.5473 68.9219H88.3988C88.9457 75.2565 90.1306 79.8594 91.9535 82.7305C95.1436 87.8802 100.909 90.4551 109.248 90.4551C115.72 90.4551 120.915 88.7233 124.834 85.2598C128.754 81.7962 130.713 77.3301 130.713 71.8613C130.713 65.1165 128.64 60.3997 124.493 57.7109C120.391 55.0221 114.672 53.6777 107.334 53.6777C106.514 53.6777 105.671 53.7005 104.805 53.7461C103.985 53.7461 103.142 53.7689 102.276 53.8145V42.9453C103.552 43.082 104.623 43.1732 105.489 43.2188C106.355 43.2643 107.289 43.2871 108.291 43.2871C112.894 43.2871 116.677 42.5579 119.639 41.0996C124.834 38.5475 127.432 33.9902 127.432 27.4277C127.432 22.5514 125.7 18.7917 122.237 16.1484C118.773 13.5052 114.74 12.1836 110.137 12.1836C101.934 12.1836 96.2602 14.918 93.1156 20.3867C91.3839 23.3945 90.404 27.6784 90.1762 33.2383H78.0082C78.0082 25.9466 79.4665 19.7487 82.3832 14.6445C87.3962 5.52995 96.2146 0.972656 108.838 0.972656C118.819 0.972656 126.543 3.20573 132.012 7.67188C137.481 12.0924 140.215 18.5182 140.215 26.9492C140.215 32.9648 138.597 37.8411 135.362 41.5781C133.357 43.9023 130.759 45.7253 127.569 47.0469C132.718 48.4596 136.729 51.194 139.6 55.25C142.517 59.2604 143.975 64.1823 143.975 70.0156C143.975 79.3581 140.899 86.9688 134.746 92.8477C128.594 98.7266 119.867 101.666 108.565 101.666Z" fill="url(#paint0_linear_3634_2559)"/>
<defs>
<linearGradient id="paint0_linear_3634_2559" x1="202.399" y1="51" x2="23.7833" y2="51" gradientUnits="userSpaceOnUse">
<stop stop-color="#5B5B5B" stop-opacity="0.8"/>
<stop offset="1" stop-color="#F5F7FA"/>
</linearGradient>
</defs>
</svg>
