<svg width="146" height="102" viewBox="0 0 146 102" fill="none" xmlns="http://www.w3.org/2000/svg">
<path d="M33.8711 1.10938C46.5404 1.10938 55.7005 6.32747 61.3516 16.7637C65.7266 24.8301 67.9141 35.8815 67.9141 49.918C67.9141 63.2253 65.9316 74.2311 61.9668 82.9355C56.2246 95.4225 46.8366 101.666 33.8027 101.666C22.0449 101.666 13.2949 96.5618 7.55273 86.3535C2.76758 77.8314 0.375 66.3926 0.375 52.0371C0.375 40.9173 1.81055 31.3698 4.68164 23.3945C10.0592 8.53776 19.7891 1.10938 33.8711 1.10938ZM33.7344 90.4551C40.1146 90.4551 45.196 87.6296 48.9785 81.9785C52.7611 76.3275 54.6523 65.8001 54.6523 50.3965C54.6523 39.2767 53.2852 30.1393 50.5508 22.9844C47.8164 15.7839 42.5072 12.1836 34.623 12.1836C27.377 12.1836 22.0677 15.6016 18.6953 22.4375C15.3685 29.2279 13.7051 39.2539 13.7051 52.5156C13.7051 62.4961 14.776 70.5169 16.918 76.5781C20.1992 85.8294 25.8047 90.4551 33.7344 90.4551ZM118.809 64.3418V19.9766L87.432 64.3418H118.809ZM119.014 99V75.0742H76.0844V63.043L120.928 0.835938H131.319V64.3418H145.743V75.0742H131.319V99H119.014Z" fill="url(#paint0_linear_3634_2560)"/>
<defs>
<linearGradient id="paint0_linear_3634_2560" x1="202.731" y1="51" x2="24.1154" y2="51" gradientUnits="userSpaceOnUse">
<stop stop-color="#5B5B5B" stop-opacity="0.8"/>
<stop offset="1" stop-color="#F5F7FA"/>
</linearGradient>
</defs>
</svg>
