<svg width="40" height="44" viewBox="0 0 40 44" fill="none" xmlns="http://www.w3.org/2000/svg">
<g clip-path="url(#clip0_3637_2634)">
<path fill-rule="evenodd" clip-rule="evenodd" d="M19.9316 0C27.39 4.73214 34.1282 6.9702 39.9102 6.44183C40.9205 26.8868 33.3771 38.9603 20.008 44C7.099 39.2833 -0.537056 27.7287 0.0294677 6.13082C6.81745 6.48651 13.4775 5.01824 19.9316 0ZM23.9016 18.92V17.4732C23.9016 16.334 23.4587 15.3013 22.7445 14.5564C22.0389 13.8201 21.0672 13.3622 19.9994 13.3622C18.9325 13.3622 17.9608 13.8201 17.2552 14.5564C16.5411 15.3013 16.0981 16.334 16.0981 17.4732V18.92H23.9016ZM14.3539 18.92V17.4732C14.3539 15.8709 14.9848 14.4112 16.0011 13.3502C17.0269 12.2805 18.4415 11.6164 20.0003 11.6164C21.5591 11.6164 22.9745 12.2797 23.9986 13.3502C25.0157 14.4112 25.6466 15.8709 25.6466 17.4732V18.92H26.2707C26.7771 18.92 27.1917 19.3349 27.1917 19.8418V29.5862C27.1917 30.094 26.7771 30.5089 26.2707 30.5089H13.7299C13.2226 30.5089 12.8089 30.094 12.8089 29.5862V19.8418C12.808 19.3349 13.2226 18.92 13.7299 18.92H14.3539ZM19.2441 25.1436L18.2492 27.7494H21.7505L20.8295 25.1075C21.414 24.8068 21.8132 24.1968 21.8132 23.494C21.8132 22.4906 21.002 21.6787 19.9994 21.6787C18.9986 21.6787 18.1865 22.4906 18.1865 23.494C18.1865 24.2252 18.62 24.8558 19.2441 25.1436ZM19.9445 3.40563C26.1299 7.32932 32.0664 9.5356 36.8621 9.09657C37.6999 26.0517 31.0947 36.4146 20.0097 40.5935C9.30243 36.6827 2.62088 26.751 3.09041 8.83969C9.30329 9.16531 14.9969 7.25286 19.9445 3.40563Z" fill="black"/>
</g>
<defs>
<clipPath id="clip0_3637_2634">
<rect width="40" height="44" fill="white"/>
</clipPath>
</defs>
</svg>
