<svg width="33" height="35" viewBox="0 0 33 35" fill="none" xmlns="http://www.w3.org/2000/svg">
<path fill-rule="evenodd" clip-rule="evenodd" d="M23.9443 4.22404L12.1662 11.473H15.5157L24.2114 6.12101L25.4882 5.33488L29.1696 11.473H31.3126C31.7794 11.473 32.2013 11.6667 32.5078 11.9743C32.8144 12.2848 33.0056 12.712 33.0056 13.182V33.2882C33.0056 33.7581 32.8144 34.1854 32.5107 34.493V34.4959C32.2041 34.8063 31.7823 34.9972 31.3154 34.9972H1.69303C1.22618 34.9972 0.804329 34.8063 0.497784 34.4959V34.493C0.191239 34.1854 0 33.7581 0 33.291V13.182C0 12.712 0.191239 12.2819 0.494972 11.9743C0.801517 11.6638 1.22337 11.473 1.69022 11.473H2.3933L20.6791 0.21932C20.9126 0.0769043 21.1769 0 21.4497 0C21.5678 0 21.686 0.0142415 21.8013 0.0427246C22.1837 0.136719 22.5156 0.381673 22.7181 0.72347L24.5827 3.83097L23.9443 4.22404ZM1.65647 12.994C1.59178 13.0652 1.53835 13.1449 1.49898 13.2332V15.7084H31.501V13.182C31.501 13.1278 31.4813 13.0794 31.4476 13.0481H31.4448C31.411 13.0139 31.3632 12.9911 31.3098 12.9911H1.69022C1.67897 12.9911 1.66772 12.9911 1.65647 12.994ZM4.49412 24.128H9.85163V26.1589H4.49412V24.128ZM4.49412 28.936H19.4698V30.7674H4.49412V28.936ZM24.2452 24.128H29.6027V26.1589H24.2452V24.128ZM17.6615 24.128H23.019V26.1589H17.6615V24.128ZM11.0778 24.128H16.4353V26.1589H11.0778V24.128ZM31.501 21.4022H1.49898V33.2882C1.49898 33.3423 1.51866 33.3907 1.55522 33.4249H1.55804C1.5946 33.4619 1.64241 33.4819 1.69022 33.4819H31.3126C31.3632 33.4819 31.411 33.4591 31.4476 33.4249C31.4841 33.3879 31.5038 33.3394 31.5038 33.2882V21.4022H31.501Z" fill="black"/>
</svg>
