<svg width="38" height="33" viewBox="0 0 38 33" fill="none" xmlns="http://www.w3.org/2000/svg">
<path fill-rule="evenodd" clip-rule="evenodd" d="M5.99626 20.0913V32.4361C5.99464 32.5857 5.9344 32.7286 5.82853 32.8341C5.72266 32.9396 5.57965 32.9992 5.43034 33H0.565918C0.416362 33 0.272885 32.9407 0.166843 32.835C0.0608012 32.7293 0.000817249 32.5859 0 32.4361L0 20.0913H5.99626ZM0 16.06L12.8615 4.78423C15.7096 7.57296 18.4712 10.9597 21.2884 13.7485L31.5646 3.40845L28.2557 0.0867606L38 0V9.84733L34.8241 6.66507C32.5449 8.97972 27.1548 14.0769 24.8757 16.3637C21.9904 19.2516 20.6143 19.3042 17.7321 16.4163L12.8615 10.9876L7.15283 16.06H0ZM35.3683 11.9885V32.4392C35.3667 32.5882 35.3069 32.7307 35.2017 32.8361C35.0965 32.9416 34.9543 33.0015 34.8055 33.0031H29.938C29.7892 33.0007 29.6473 32.94 29.5427 32.834C29.4381 32.728 29.379 32.5851 29.3783 32.4361V17.7518C30.306 16.8501 31.3883 15.8028 32.4924 14.7369L34.7962 12.5152C34.9797 12.3296 35.1727 12.1538 35.3745 11.9885H35.3683ZM25.5776 21.1758V32.4361C25.576 32.5857 25.5158 32.7286 25.4099 32.8341C25.304 32.9396 25.161 32.9992 25.0117 33H20.1473C19.998 32.9992 19.855 32.9396 19.7491 32.8341C19.6432 32.7286 19.583 32.5857 19.5814 32.4361V22.378C20.1612 22.519 20.7568 22.5846 21.3534 22.5732C22.8709 22.5512 24.3453 22.0634 25.5776 21.1758ZM15.7869 20.2462V32.4206C15.7853 32.5702 15.7251 32.7131 15.6192 32.8186C15.5133 32.9241 15.3703 32.9837 15.221 32.9845H10.3535C10.2045 32.9837 10.0618 32.924 9.95644 32.8184C9.85106 32.7129 9.7915 32.5699 9.79069 32.4206V19.2113C9.88965 19.1369 9.98551 19.0594 10.0783 18.9789L12.509 16.8099L14.4696 18.9789L14.6211 19.1369C15.0169 19.5356 15.4055 19.8992 15.7869 20.2276V20.2462Z" fill="#042B26"/>
</svg>
