<svg width="43" height="29" viewBox="0 0 43 29" fill="none" xmlns="http://www.w3.org/2000/svg">
<g clip-path="url(#clip0_3637_2618)">
<path fill-rule="evenodd" clip-rule="evenodd" d="M0 29.0004C0.353434 24.3888 -0.545899 24.5895 3.29289 23.1426C5.21053 22.421 7.65658 21.5057 9.41675 20.4004L12.7096 29.0004H0ZM30.9552 6.22422L32.46 6.4812C32.6139 6.50584 32.7189 6.65369 32.6909 6.80858L32.0715 10.5401C32.047 10.695 31.9001 10.8006 31.7461 10.7724L30.2414 10.519C30.0874 10.4943 29.9824 10.3465 30.0104 10.1916L30.6298 6.46008C30.6543 6.30519 30.8013 6.19958 30.9552 6.22422ZM35.3084 4.05221C35.5814 3.32704 36.6837 4.22471 36.5647 5.44624C36.5262 5.81939 36.4177 6.24182 36.2463 6.71002L37.9889 7.0022C38.7098 7.15357 39.2557 7.78018 38.6643 8.5652C38.7028 8.95595 38.6468 9.39598 38.3424 9.52271C38.2794 10.1176 38.0554 10.4556 37.7055 10.695C37.6355 10.9871 37.5305 11.2371 37.3556 11.4166C37.0651 11.7088 36.8901 11.5997 36.5192 11.5363L33.5763 11.04C33.1108 10.9625 32.8764 10.79 32.6349 10.3535L33.1843 7.055C34.1012 6.96348 34.7695 5.83347 35.137 5.08365L35.3084 4.05221ZM16.4679 24.4275H16.9264C17.3393 24.4275 17.6787 24.0861 17.6787 23.6707V22.4421C17.6787 22.0267 17.3393 21.6853 16.9264 21.6853H14.2004C13.7874 21.6853 13.448 22.0267 13.448 22.4421V23.6707C13.448 24.0861 13.7874 24.4275 14.2004 24.4275H14.6658L13.7734 29.0004H17.3288L16.4679 24.4275ZM30.3953 1.18319C29.9929 1.13039 29.6115 1.15151 29.2616 1.24655C28.9116 1.3416 28.5757 1.51058 28.2572 1.75347C27.9423 1.99637 27.6938 2.27799 27.5084 2.59482C27.3264 2.91164 27.2074 3.27423 27.1514 3.67906L26.3536 9.73041C26.3011 10.1352 26.3221 10.519 26.4166 10.871C26.5111 11.223 26.679 11.561 26.9205 11.8813C27.1689 12.1981 27.4489 12.4586 27.7638 12.6346C28.0788 12.8177 28.4322 12.9374 28.8346 12.9902L31.4801 13.3422C31.7881 13.3845 32.012 13.6731 31.9701 13.9864C31.9596 14.0568 31.9386 14.1167 31.9141 14.1765C31.7636 14.5356 31.6061 14.8946 31.4347 15.2361C31.2527 15.5987 31.0672 15.9402 30.8643 16.2676C30.7628 16.4365 30.6473 16.5949 30.5248 16.7604C31.0987 16.5914 31.6446 16.3802 32.159 16.1303C32.6979 15.8698 33.2088 15.567 33.6847 15.2256C34.1711 14.8806 34.6156 14.4863 35.032 14.0603C35.1615 13.9266 35.3399 13.8738 35.5114 13.8949L37.786 14.1976C38.1884 14.2504 38.5593 14.2293 38.9128 14.1343C39.2627 14.0392 39.5986 13.8703 39.9241 13.6274C40.239 13.3845 40.4875 13.1028 40.6729 12.786C40.8549 12.4692 40.9739 12.1066 41.0299 11.7018L41.8277 5.65041C41.8802 5.24558 41.8592 4.86187 41.7647 4.50985C41.6702 4.15782 41.5023 3.81635 41.2608 3.49953C41.0194 3.1827 40.7394 2.93277 40.4245 2.74619C40.1095 2.56314 39.7491 2.44345 39.3467 2.38712L36.5577 2.00341L30.3953 1.18319ZM33.3383 0.419291L39.5007 1.23951C40.043 1.31344 40.54 1.48241 40.9914 1.73939C41.4358 1.99637 41.8312 2.3484 42.1672 2.79195C42.5031 3.23199 42.7376 3.70723 42.8705 4.2071C43 4.70698 43.035 5.23502 42.9615 5.78771L42.1637 11.8391C42.0902 12.3917 41.9222 12.8916 41.6667 13.3387C41.4113 13.7858 41.0614 14.1836 40.6204 14.5215C40.183 14.8594 39.7106 15.0883 39.2137 15.2291C38.7168 15.3593 38.1919 15.3945 37.6425 15.3206L35.6479 15.0531C35.2419 15.4509 34.808 15.8205 34.3566 16.1479C33.8177 16.5351 33.2543 16.873 32.6594 17.1547C32.061 17.4468 31.4312 17.6862 30.7698 17.8763C30.1154 18.0664 29.4225 18.2037 28.7017 18.2952C28.4952 18.3234 28.2852 18.2319 28.1593 18.0488C27.9808 17.7883 28.0508 17.4328 28.3097 17.2532C28.6737 17.0103 28.9886 16.7498 29.2511 16.4858C29.5065 16.2253 29.7235 15.9543 29.8949 15.6691V15.6621C30.0839 15.3558 30.2589 15.039 30.4198 14.7186C30.4723 14.606 30.5283 14.4863 30.5843 14.3701L28.6807 14.1167C28.1383 14.0463 27.6414 13.8738 27.1899 13.6168C26.7455 13.3598 26.3501 13.0078 26.0142 12.5642C25.6782 12.1242 25.4438 11.649 25.3108 11.1491C25.1813 10.6422 25.1498 10.1141 25.2198 9.572L26.0247 3.52065C26.0981 2.97501 26.2661 2.47513 26.5216 2.02101C26.777 1.57394 27.127 1.17615 27.5679 0.838203C28.0053 0.500257 28.4777 0.264399 28.9746 0.130629C29.468 0.000378531 29.9929 -0.0348242 30.5388 0.0391015L33.3383 0.419291ZM11.6983 17.7566C11.7823 17.0491 9.6967 14.3455 9.31527 13.05C8.49992 11.744 8.20947 9.66705 9.09831 8.2871C9.45174 7.73794 9.30127 6.76282 9.30127 6.00596C9.30127 -1.50982 22.3923 -1.51334 22.3923 6.00596C22.3923 6.95644 22.1754 7.67809 22.6863 8.42791C23.5436 9.67761 23.1027 11.8919 22.3783 13.0535C21.9164 14.4159 19.7258 16.9892 19.8763 17.7602C20.0128 21.6148 11.6738 21.4881 11.6983 17.7566ZM21.8569 20.0061C23.4666 21.041 25.7482 21.893 27.5714 22.5055C31.1547 23.7059 31.1442 23.8713 31.1197 29.0004H18.4591L21.8569 20.0061Z" fill="#042B26"/>
</g>
<defs>
<clipPath id="clip0_3637_2618">
<rect width="43" height="29" fill="white"/>
</clipPath>
</defs>
</svg>
