<svg width="42" height="36" viewBox="0 0 42 36" fill="none" xmlns="http://www.w3.org/2000/svg">
<path d="M22.7004 30.4439H30.1892C30.7907 29.8448 31.4504 29.2218 32.1203 28.5884C33.5251 27.2568 34.9914 25.8669 36.4987 24.1278C38.2214 22.1388 38.406 21.4507 38.9289 19.5029C39.028 19.1366 39.1374 18.7257 39.281 18.2157L40.1765 15.0628L40.1867 15.0285C40.6652 13.625 40.7028 12.6972 40.5046 12.1632C40.4431 11.9989 40.3645 11.8893 40.2722 11.8311C40.2004 11.7832 40.1047 11.7661 40.0056 11.7763C39.7731 11.8003 39.51 11.9475 39.2707 12.2111L36.6115 18.5546C36.5876 18.6128 36.5534 18.6676 36.5158 18.7155C36.3586 18.9996 36.1467 19.2769 35.8732 19.5405L31.1564 24.8091C30.9001 25.0966 30.4592 25.1206 30.1755 24.8638C29.8884 24.6071 29.8645 24.1655 30.1208 23.8813L34.841 18.6128C34.8615 18.5888 34.882 18.5649 34.906 18.5443C35.3947 18.0787 35.5485 17.5755 35.4631 17.2092C35.4357 17.0962 35.3879 17.0004 35.3195 16.9353C35.2546 16.8771 35.1691 16.8361 35.0632 16.8258C34.6428 16.7813 34.0241 17.0928 33.2688 17.9863C33.2482 18.0103 33.2243 18.0342 33.2004 18.0582L31.3718 19.674L31.3615 19.6843C29.3825 21.5603 28.5314 22.0053 26.9797 22.8167C26.655 22.9878 26.2995 23.1727 25.8586 23.4123C25.6843 23.5082 25.5134 23.6246 25.3459 23.7512C25.1682 23.8882 24.9973 24.0285 24.8366 24.1655C24.0163 24.857 23.5856 25.4184 23.3396 26.038C23.0832 26.6816 22.9909 27.4656 22.8645 28.5405C22.8132 28.9753 22.7756 29.4032 22.7448 29.8311C22.7209 30.0365 22.7106 30.2419 22.7004 30.4439ZM17.5939 14.4739C16.8488 15.4667 16.2097 16.2952 15.8645 17.2434C15.5261 18.1677 15.3894 18.5922 16.155 17.6303C16.8693 16.7368 17.5393 15.8672 18.5134 15.0456C18.5817 15.0628 18.6569 15.0765 18.7321 15.0936C27.5744 16.8532 34.0105 12.8718 32.8791 0C26.0739 2.36211 16.4318 1.40015 17.4299 13.4983C17.4675 13.9467 17.5017 14.2548 17.5939 14.4739ZM19.966 12.5397C22.1877 7.74705 27.8957 6.10384 30.7258 2.82769C27.653 8.82883 25.9748 8.56523 19.966 12.5397ZM19.3029 30.4439H11.8107C11.2092 29.8448 10.5495 29.2218 9.87959 28.5884C8.4748 27.2568 7.0085 25.8669 5.50117 24.1278C3.77852 22.1388 3.59394 21.4507 3.071 19.5029C2.97529 19.1366 2.86592 18.7257 2.72236 18.2157L1.82686 15.0628L1.8166 15.0285C1.33809 13.625 1.30049 12.6972 1.49873 12.1632C1.56025 11.9989 1.63887 11.8893 1.73115 11.8311C1.80293 11.7832 1.89863 11.7661 1.99775 11.7763C2.23359 11.7969 2.49678 11.9475 2.73603 12.2077L5.39521 18.5512C5.41914 18.6094 5.45332 18.6641 5.49092 18.7121C5.64814 18.9962 5.86006 19.2735 6.1335 19.5371L10.8503 24.8056C11.1066 25.0932 11.5476 25.1172 11.8313 24.8604C12.1184 24.6037 12.1423 24.162 11.8859 23.8779L7.16572 18.6059C7.14521 18.582 7.12471 18.558 7.10078 18.5375C6.61201 18.0719 6.4582 17.5687 6.54365 17.2024C6.571 17.0894 6.61885 16.9935 6.68721 16.9285C6.75215 16.8703 6.8376 16.8292 6.94355 16.8189C7.36396 16.7744 7.98603 17.086 8.73799 17.9795C8.7585 18.0034 8.78242 18.0274 8.80635 18.0513L10.635 19.6672L10.6452 19.6774C12.6242 21.5534 13.4753 21.9985 15.0271 22.8098C15.3518 22.981 15.7072 23.1658 16.1481 23.4055C16.3225 23.5013 16.4934 23.6177 16.6608 23.7444C16.8386 23.8813 17.0095 24.0217 17.1701 24.1586C17.9904 24.8501 18.4211 25.4116 18.6672 26.0312C18.9235 26.6748 19.0158 27.4587 19.1423 28.5337C19.1936 28.9684 19.2312 29.3963 19.2619 29.8243C19.2824 30.0365 19.2927 30.2419 19.3029 30.4439ZM10.0676 30.6835C9.96162 30.8068 9.89668 30.9677 9.89668 31.1423V35.2982C9.89668 35.685 10.2111 35.9966 10.5939 35.9966H20.0207C20.4069 35.9966 20.718 35.6816 20.718 35.2982V31.1046C20.718 30.6596 20.6906 30.1803 20.6599 29.7353C20.6291 29.28 20.5881 28.8281 20.5368 28.3796C20.4001 27.2054 20.2976 26.3461 19.9694 25.5211C19.6311 24.6755 19.0876 23.9464 18.0793 23.094C17.8947 22.9365 17.7067 22.779 17.5085 22.6318C17.3 22.4743 17.0744 22.3237 16.8215 22.1833C16.4113 21.9608 16.0285 21.7588 15.6799 21.574C14.2443 20.8208 13.4582 20.41 11.6091 18.6573C11.5954 18.6436 11.5783 18.6299 11.5646 18.6196L9.78047 17.0415C8.69014 15.7645 7.62373 15.3401 6.80684 15.4291H6.80342C6.40351 15.4701 6.06172 15.6276 5.78828 15.8672L3.98359 11.5709H3.98018C3.95283 11.5093 3.91865 11.4511 3.87422 11.3963C3.37519 10.7973 2.74287 10.4481 2.13789 10.3865C1.72432 10.3454 1.32441 10.4344 0.975781 10.6603C0.644238 10.876 0.3708 11.2115 0.199902 11.6736C-0.100879 12.4781 -0.0940432 13.7277 0.493847 15.4564L1.38252 18.5888C1.5124 19.0407 1.6252 19.4755 1.73115 19.8589C2.31221 22.0327 2.51728 22.803 4.45527 25.035C5.98994 26.8049 7.49043 28.229 8.93281 29.5949C9.30879 29.9578 9.68477 30.3138 10.0676 30.6835ZM11.4006 31.8406C11.4929 31.8612 11.5886 31.8612 11.6843 31.8406H19.32V34.5998H11.2912V31.8406H11.4006ZM31.9357 30.6835C32.0417 30.8068 32.1066 30.9677 32.1066 31.1423V35.2982C32.1066 35.685 31.7956 35.9966 31.4094 35.9966H21.986C21.5998 35.9966 21.2888 35.6816 21.2888 35.2982V31.1046C21.2888 31.0806 21.2888 31.0532 21.2922 31.0293C21.3024 30.5808 21.3195 30.1461 21.3469 29.7353C21.3776 29.28 21.4187 28.8281 21.4699 28.3796C21.6066 27.2054 21.7092 26.3461 22.0373 25.5211C22.3757 24.6755 22.9191 23.9464 23.9274 23.094C24.112 22.9365 24.3 22.779 24.4982 22.6318C24.7067 22.4743 24.9323 22.3237 25.1853 22.1833C25.5954 21.9608 25.9782 21.7588 26.3269 21.574C27.7624 20.8208 28.5485 20.41 30.3977 18.6573C30.4113 18.6436 30.4284 18.6299 30.4421 18.6196L32.2263 17.0415C33.3166 15.7645 34.383 15.3401 35.1999 15.4291H35.2033C35.6032 15.4701 35.945 15.6276 36.2185 15.8672L38.0197 11.5675H38.0231C38.0505 11.5059 38.0847 11.4477 38.1291 11.3929C38.6281 10.7938 39.2604 10.4447 39.8654 10.383C40.279 10.342 40.6789 10.431 41.0275 10.6569C41.3591 10.8726 41.6325 11.2081 41.8034 11.6702C42.1042 12.4747 42.0974 13.7242 41.5095 15.453L40.6208 18.5854C40.4909 19.0373 40.3781 19.472 40.2722 19.8555C39.6911 22.0293 39.486 22.7995 37.548 25.0316C36.0134 26.8014 34.5129 28.2256 33.0705 29.5915C32.6945 29.9578 32.3186 30.3138 31.9357 30.6835ZM30.6027 31.8406C30.5105 31.8612 30.4147 31.8612 30.319 31.8406H22.6833V34.5998H30.7121V31.8406H30.6027Z" fill="black"/>
</svg>
