<svg width="20" height="21" viewBox="0 0 20 21" fill="none" xmlns="http://www.w3.org/2000/svg">
<path d="M17.7096 10.5002H7.4138M3.77964 10.5002H2.29297M3.77964 10.5002C3.77964 10.0184 3.97103 9.55635 4.31172 9.21566C4.65242 8.87497 5.11449 8.68357 5.5963 8.68357C6.07811 8.68357 6.54019 8.87497 6.88088 9.21566C7.22157 9.55635 7.41297 10.0184 7.41297 10.5002C7.41297 10.982 7.22157 11.4441 6.88088 11.7848C6.54019 12.1255 6.07811 12.3169 5.5963 12.3169C5.11449 12.3169 4.65242 12.1255 4.31172 11.7848C3.97103 11.4441 3.77964 10.982 3.77964 10.5002ZM17.7096 16.0061H12.9196M12.9196 16.0061C12.9196 16.488 12.7278 16.9506 12.387 17.2914C12.0462 17.6321 11.5841 17.8236 11.1021 17.8236C10.6203 17.8236 10.1582 17.6313 9.81756 17.2906C9.47687 16.95 9.28547 16.4879 9.28547 16.0061M12.9196 16.0061C12.9196 15.5241 12.7278 15.0624 12.387 14.7216C12.0462 14.3808 11.5841 14.1894 11.1021 14.1894C10.6203 14.1894 10.1582 14.3808 9.81756 14.7215C9.47687 15.0622 9.28547 15.5243 9.28547 16.0061M9.28547 16.0061H2.29297M17.7096 4.9944H15.1221M11.488 4.9944H2.29297M11.488 4.9944C11.488 4.51259 11.6794 4.05051 12.0201 3.70982C12.3607 3.36913 12.8228 3.17773 13.3046 3.17773C13.5432 3.17773 13.7794 3.22472 13.9998 3.31602C14.2203 3.40732 14.4205 3.54113 14.5892 3.70982C14.7579 3.87852 14.8917 4.07878 14.983 4.29919C15.0743 4.5196 15.1213 4.75583 15.1213 4.9944C15.1213 5.23297 15.0743 5.4692 14.983 5.68961C14.8917 5.91002 14.7579 6.11028 14.5892 6.27898C14.4205 6.44767 14.2203 6.58149 13.9998 6.67278C13.7794 6.76408 13.5432 6.81107 13.3046 6.81107C12.8228 6.81107 12.3607 6.61967 12.0201 6.27898C11.6794 5.93829 11.488 5.47621 11.488 4.9944Z" stroke="#717171" stroke-width="1.5" stroke-miterlimit="10" stroke-linecap="round"/>
</svg>
