<svg width="25" height="24" viewBox="0 0 25 24" fill="none" xmlns="http://www.w3.org/2000/svg">
<path d="M23.5 6.77775V12.9998C23.5 13.2061 23.4172 13.4039 23.2699 13.5497C23.1225 13.6956 22.9227 13.7775 22.7143 13.7775C22.5059 13.7775 22.3061 13.6956 22.1587 13.5497C22.0114 13.4039 21.9286 13.2061 21.9286 12.9998V8.65506L13.8418 16.6611C13.7688 16.7334 13.6822 16.7907 13.5868 16.8299C13.4914 16.869 13.3892 16.8892 13.2859 16.8892C13.1827 16.8892 13.0804 16.869 12.985 16.8299C12.8897 16.7907 12.803 16.7334 12.73 16.6611L9.35742 13.3216L2.84202 19.7721C2.69459 19.918 2.49463 20 2.28614 20C2.07764 20 1.87768 19.918 1.73025 19.7721C1.58282 19.6261 1.5 19.4282 1.5 19.2218C1.5 19.0154 1.58282 18.8175 1.73025 18.6716L8.80154 11.6718C8.87451 11.5995 8.96117 11.5421 9.05655 11.503C9.15193 11.4638 9.25417 11.4437 9.35742 11.4437C9.46068 11.4437 9.56292 11.4638 9.6583 11.503C9.75368 11.5421 9.84033 11.5995 9.91331 11.6718L13.2859 15.0112L20.8178 7.55551H16.4287C16.2203 7.55551 16.0205 7.47357 15.8731 7.32771C15.7258 7.18185 15.643 6.98403 15.643 6.77775C15.643 6.57148 15.7258 6.37366 15.8731 6.2278C16.0205 6.08194 16.2203 6 16.4287 6H22.7143C22.9227 6 23.1225 6.08194 23.2699 6.2278C23.4172 6.37366 23.5 6.57148 23.5 6.77775Z" fill="black"/>
</svg>
