<svg width="25" height="24" viewBox="0 0 25 24" fill="none" xmlns="http://www.w3.org/2000/svg">
<path d="M3.80078 15V16.8C3.80078 17.92 3.80078 18.48 4.01878 18.908C4.21053 19.2843 4.51647 19.5903 4.89278 19.782C5.31978 20 5.87978 20 6.99778 20H21.8008M3.80078 15V5M3.80078 15L7.65378 11.79L7.65778 11.787C8.35478 11.206 8.70378 10.915 9.08278 10.797C9.52991 10.6572 10.0119 10.6788 10.4448 10.858C10.8118 11.011 11.1328 11.332 11.7768 11.976L11.7828 11.982C12.4368 12.636 12.7638 12.964 13.1368 13.115C13.5782 13.2949 14.0694 13.3112 14.5218 13.161C14.9048 13.033 15.2548 12.727 15.9548 12.115L21.8008 7" stroke="black" stroke-width="2" stroke-linecap="round" stroke-linejoin="round"/>
</svg>
