<svg width="25" height="24" viewBox="0 0 25 24" fill="none" xmlns="http://www.w3.org/2000/svg">
<path d="M15.2943 5.9048C14.6928 5.29211 13.9758 4.80467 13.1849 4.47064C12.3939 4.1366 11.5446 3.96258 10.686 3.95863C9.82735 3.95469 8.97647 4.12089 8.18246 4.44765C7.38844 4.77441 6.66704 5.25524 6.0599 5.86237C5.45277 6.46951 4.97193 7.19091 4.64518 7.98493C4.31842 8.77894 4.15222 9.62982 4.15616 10.4884C4.16011 11.347 4.33413 12.1964 4.66816 12.9873C5.0022 13.7783 5.48964 14.4953 6.10233 15.0968C7.32509 16.2973 8.97242 16.9664 10.686 16.9585C12.3995 16.9506 14.0406 16.2664 15.2523 15.0548C16.464 13.8431 17.1482 12.202 17.156 10.4884C17.1639 8.77489 16.4948 7.12756 15.2943 5.9048ZM4.68833 4.4908C6.22115 2.95836 8.28149 2.06938 10.448 2.00563C12.6145 1.94189 14.7236 2.7082 16.3438 4.14787C17.9641 5.58754 18.9732 7.59179 19.1647 9.75078C19.3563 11.9098 18.7158 14.0604 17.3743 15.7628L22.7193 21.1078L21.3053 22.5218L15.9603 17.1768C14.2573 18.5133 12.1086 19.1498 9.95239 18.9564C7.7962 18.763 5.79504 17.7542 4.35711 16.1359C2.91918 14.5176 2.15283 12.4117 2.21438 10.2477C2.27593 8.08373 3.16074 6.02476 4.68833 4.4908Z" fill="black"/>
</svg>
