<svg width="64" height="64" viewBox="0 0 64 64" fill="none" xmlns="http://www.w3.org/2000/svg">
<g clip-path="url(#clip0_4381_26333)">
<path d="M0.297535 35.0882C0.685322 34.7127 1.30431 34.7223 1.68006 35.1103L9.03539 42.7051C9.22026 42.0817 9.56217 41.513 10.042 41.0485C10.7771 40.3365 11.7473 39.9521 12.7686 39.97C13.564 39.9826 14.3179 40.2367 14.9489 40.6939C15.1288 40.0449 15.4783 39.4525 15.9748 38.9716C16.0154 38.9322 16.0571 38.8943 16.0991 38.857V30.6715C14.3474 32.3293 11.9861 33.3491 9.38963 33.3491C8.84962 33.3491 8.41189 32.9114 8.41189 32.3714C8.41189 31.8314 8.84962 31.3937 9.38963 31.3937C13.6991 31.3937 17.2051 27.8876 17.2051 23.5782V20.2546C17.2051 19.7146 17.6428 19.2769 18.1828 19.2769H25.3309C26.6763 19.2769 27.7709 18.1823 27.7709 16.8369C27.7709 15.4915 26.6763 14.3969 25.3309 14.3969H18.5681C15.9068 14.3969 13.2519 15.0457 10.8905 16.2728C6.99251 18.2985 4.09689 21.7146 2.73693 25.8917L2.47309 26.7019C2.30582 27.2154 1.75377 27.4964 1.24068 27.3288C0.727142 27.1615 0.446598 26.6098 0.61372 26.0964L0.877563 25.2864C2.39727 20.6186 5.633 16.8014 9.98877 14.5377C12.6275 13.1663 15.5942 12.4414 18.5681 12.4414H25.3309C27.7253 12.4414 29.6772 14.3661 29.7241 16.7493H63.0223C63.5623 16.7493 64 17.1871 64 17.7271V39.9504C64 40.4904 63.5623 40.9282 63.0223 40.9282H38.0987C38.1294 41.1351 38.1444 41.346 38.141 41.5595C38.1246 42.5826 37.7108 43.5383 36.9755 44.2502C36.2556 44.9476 35.3118 45.3293 34.312 45.3293C34.2909 45.3293 34.2699 45.3292 34.249 45.3289C33.4526 45.3161 32.6978 45.0616 32.0663 44.6033C31.8905 45.2385 31.5495 45.8366 31.0427 46.3272C30.3226 47.0246 29.379 47.4064 28.379 47.4064C28.3581 47.4064 28.3369 47.4062 28.316 47.4059C27.5197 47.3931 26.7647 47.1386 26.1332 46.6803C25.9574 47.3155 25.6165 47.9136 25.1098 48.4043C24.3897 49.1016 23.4461 49.4834 22.4461 49.4834C22.4252 49.4834 22.404 49.4832 22.3831 49.4829C21.5867 49.4702 20.8318 49.2156 20.2005 48.7573C20.0246 49.3925 19.6836 49.9906 19.1768 50.4814C18.4569 51.1786 17.5132 51.5604 16.5133 51.5604C16.4923 51.5604 16.4712 51.5603 16.4503 51.56C15.4271 51.5436 14.4715 51.1296 13.7595 50.3945L0.274971 36.4708C-0.100334 36.0829 -0.0904083 35.4639 0.297535 35.0882ZM18.0545 28.0857V37.9384C18.2666 37.9059 18.4826 37.8899 18.7013 37.8931C19.4977 37.9059 20.2525 38.1604 20.884 38.6187C20.9593 38.3466 21.0646 38.0813 21.2008 37.8284H20.7003C20.1603 37.8284 19.7226 37.3907 19.7226 36.8507V21.2325H19.1604V23.5783C19.1606 25.2036 18.7596 26.7361 18.0545 28.0857ZM34.1957 35.8729H58.4207V21.805H21.6782V35.8729H27.0713C27.2602 35.4896 27.5162 35.1315 27.8404 34.8176C29.358 33.3479 31.7881 33.387 33.2578 34.9045L34.1957 35.8729ZM62.0445 38.9728V18.705H29.3085C29.1092 19.1277 28.8443 19.5133 28.5274 19.8494H59.3984C59.9385 19.8494 60.3762 20.2871 60.3762 20.8271V36.8505C60.3762 37.3905 59.9385 37.8283 59.3984 37.8283H36.0895L37.0626 38.8329C37.1068 38.8786 37.1498 38.9253 37.1915 38.9727H62.0445V38.9728ZM34.2804 43.3737C34.7805 43.3815 35.2553 43.1941 35.6152 42.8457C35.9752 42.4972 36.1778 42.0294 36.1858 41.5285C36.1939 41.0276 36.0063 40.5536 35.6578 40.1936L31.8532 36.2651C31.4859 35.8859 30.9959 35.6951 30.5056 35.6951C30.0355 35.6951 29.5647 35.8704 29.2011 36.2225C28.4583 36.9421 28.4392 38.1318 29.1585 38.8747L32.9633 42.8035C33.3115 43.163 33.7793 43.3656 34.2804 43.3737ZM28.3475 45.4506C28.844 45.4595 29.3225 45.2711 29.6824 44.9225C30.4254 44.203 30.4443 43.0133 29.725 42.2704L25.9202 38.3416C25.5529 37.9624 25.0631 37.7717 24.5726 37.7717C24.1024 37.7717 23.6317 37.9469 23.268 38.2991C22.5251 39.0185 22.5061 40.2082 23.2254 40.9512L27.0302 44.8799C27.3787 45.24 27.8465 45.4426 28.3475 45.4506ZM22.4147 47.5276C22.9141 47.5372 23.3897 47.3482 23.7497 46.9995C24.4926 46.28 24.5115 45.0903 23.7922 44.3474L19.9875 40.4187C19.6389 40.0587 19.1711 39.8561 18.6702 39.8481C18.6598 39.848 18.6496 39.8478 18.6392 39.8478C18.1498 39.8478 17.6877 40.0348 17.3352 40.3763C16.9753 40.7248 16.7726 41.1926 16.7647 41.6935C16.7565 42.1944 16.9441 42.6684 17.2926 43.0283L21.0974 46.9571C21.4459 47.317 21.9138 47.5196 22.4147 47.5276ZM15.1646 49.0341C15.5132 49.394 15.981 49.5967 16.4819 49.6046C16.9826 49.6141 17.4568 49.4252 17.8167 49.0767C18.1767 48.7281 18.3793 48.2603 18.3873 47.7594C18.3952 47.2585 18.2078 46.7845 17.8593 46.4246L14.0545 42.4958C13.706 42.1359 13.2382 41.9334 12.7373 41.9253C12.2388 41.9181 11.7624 42.1047 11.4024 42.4534C11.0425 42.802 10.8399 43.2698 10.8319 43.7707C10.8239 44.2717 11.0113 44.7457 11.36 45.1057L15.1646 49.0341Z" fill="#064D51"/>
<path d="M40.0483 22.4941C43.1233 22.4941 45.625 25.3404 45.625 28.8389C45.625 32.3374 43.1233 35.1837 40.0483 35.1837C36.9732 35.1837 34.4715 32.3374 34.4715 28.8389C34.4715 25.3404 36.9732 22.4941 40.0483 22.4941ZM40.0483 33.2282C42.045 33.2282 43.6695 31.2592 43.6695 28.8389C43.6695 26.4186 42.045 24.4496 40.0483 24.4496C38.0516 24.4496 36.427 26.4186 36.427 28.8389C36.427 31.2592 38.0514 33.2282 40.0483 33.2282Z" fill="#064D51"/>
</g>
<defs>
<clipPath id="clip0_4381_26333">
<rect width="64" height="64" fill="white" transform="matrix(-1 0 0 1 64 0)"/>
</clipPath>
</defs>
</svg>
