<svg width="45" height="64" viewBox="0 0 45 64" fill="none" xmlns="http://www.w3.org/2000/svg">
<g clip-path="url(#clip0_4381_26341)">
<path fill-rule="evenodd" clip-rule="evenodd" d="M31.5139 46.6927L33.509 36.3854L35.5349 39.4844C39.8943 37.7083 42.3459 34.776 42.71 30.2604C46.29 36.6198 44.1153 42.3229 39.5763 45.6615L41.6433 48.8229L31.5139 46.6927ZM5.49545 40.5469L3.71063 50.8229C3.68499 50.9635 3.62857 51.0938 3.54138 51.1927C2.90541 52.026 2.50536 52.7448 2.3874 53.3229C2.30534 53.75 2.3874 54.0937 2.66948 54.3646L9.64978 61.4531C10.0909 61.8854 10.6089 62.1562 11.2243 62.2708C11.8962 62.401 12.6809 62.3281 13.5836 62.0781C13.599 62.0781 13.6195 62.0729 13.6349 62.0729C13.9785 61.9792 14.4247 61.8646 14.8555 61.7604C16.7275 61.2969 18.3585 60.8906 19.8715 59.5L21.8204 57.4375C21.8409 57.401 21.8717 57.375 21.8974 57.3437C21.923 57.3177 22.1128 57.125 22.3743 56.875C23.7078 55.5521 25.3542 53.9219 24.3489 52.4896L23.5694 51.6979C23.1898 52.0677 22.7898 52.4323 22.4051 52.7812C22.0564 53.0937 21.723 53.3854 21.4255 53.6927C21.1024 54.0208 20.5844 54.0208 20.2613 53.6927C19.9382 53.3646 19.9382 52.8385 20.2613 52.5104C20.5639 52.2031 20.9331 51.8698 21.3178 51.5208C22.6359 50.3385 24.1489 48.9896 23.3334 47.8073L22.5641 47.026C22.5231 46.9844 22.4872 46.9323 22.4513 46.8854C22.0102 47.349 21.5178 47.7917 21.0409 48.2135C20.6921 48.526 20.3587 48.8177 20.0613 49.125C19.7381 49.4531 19.2201 49.4531 18.897 49.125C18.5739 48.7969 18.5739 48.2708 18.897 47.9427C19.1996 47.6354 19.5689 47.3021 19.9535 46.9531C21.2717 45.7708 22.7846 44.4219 21.9743 43.2396L21.205 42.4583C21.1486 42.401 21.1075 42.3438 21.0716 42.2812L18.8098 44.5781C18.4867 44.9062 17.9687 44.9062 17.6456 44.5781C17.3225 44.25 17.3225 43.724 17.6456 43.3958L21.8871 39.0885C22.9026 38.0573 23.1334 36.9844 22.8667 36.1719C22.7693 35.875 22.6051 35.6094 22.4051 35.401C22.3025 35.2969 22.1794 35.1979 22.0512 35.1198H22.0461C21.9846 35.151 21.9384 35.0833 21.8769 35.026C21.805 34.9896 21.7281 34.9583 21.6461 34.9323C20.9383 34.6979 20.0305 34.8646 19.097 35.6562C19.0868 35.6719 19.0714 35.6823 19.056 35.6875C18.9534 35.776 18.856 35.8698 18.7534 35.9687L9.95751 44.9115C9.6344 45.2396 9.11639 45.2396 8.79327 44.9115C8.50093 44.6146 8.47529 44.1458 8.71634 43.8177L5.49545 40.5469ZM11.0705 41.4167L11.3525 41.1302L17.1635 35.2292C16.5634 34.9479 15.9992 34.5469 15.5069 34.0469C13.2964 31.8021 13.2964 28.1719 15.5069 25.9271C17.7174 23.6823 21.2922 23.6823 23.5027 25.9271C25.7132 28.1719 25.7132 31.8021 23.5027 34.0469C23.4822 34.0677 23.4668 34.0833 23.4463 34.1042C23.4924 34.1458 23.5335 34.1875 23.5745 34.2292C23.754 34.4115 23.913 34.6146 24.0515 34.8281L31.2574 27.5104C30.1496 26.3854 30.1496 24.5573 31.2574 23.4323L25.8876 17.974C24.7798 19.099 22.9795 19.099 21.8717 17.974L6.93665 33.1406C8.04447 34.2656 8.04447 36.0938 6.93665 37.2188L11.0705 41.4167ZM23.7386 39.474C23.5437 39.75 23.318 40.0208 23.0565 40.2865L22.2102 41.1458L22.2051 41.125C22.2666 41.1615 22.3231 41.2031 22.3795 41.2604L23.1847 42.0781C23.2257 42.1198 23.2668 42.1771 23.3027 42.2292C24.2053 43.4896 24.0668 44.6146 23.4514 45.6354C23.5642 45.6771 23.6668 45.7396 23.754 45.8281L24.5592 46.6458C24.6002 46.6875 24.6413 46.7448 24.6772 46.7969C25.6516 48.1562 25.4055 49.3437 24.6772 50.4271C24.7131 50.4479 24.7387 50.4792 24.7746 50.5104L25.5798 51.3281C25.6209 51.3698 25.6619 51.4271 25.6978 51.4792C27.5698 54.0781 25.3388 56.2812 23.5488 58.0625L23.0872 58.5312L21.0921 60.6615L21.0306 60.724C19.1996 62.4115 17.384 62.8594 15.2915 63.3802C14.9427 63.4635 14.5837 63.5573 14.0913 63.6875C14.0759 63.6875 14.0708 63.6927 14.0554 63.6927C12.922 64.0052 11.8911 64.0833 10.9628 63.9115C10.0242 63.7396 9.20871 63.3125 8.5317 62.6354L1.56166 55.5573C0.853887 54.8646 0.617962 54.0104 0.812857 53C0.966721 52.1875 1.42831 51.2917 2.1566 50.3229L4.01836 39.6042V39.5625C4.03887 39.4323 4.06452 39.2812 4.09016 39.125L0.5 35.4792L24.1951 11.4167L37.7813 25.2135L23.7386 39.474ZM18.8868 2.13021L16.8917 12.4375L14.8658 9.33854C10.5063 11.1146 8.05473 14.0469 7.69058 18.5573C4.10555 12.1979 6.28529 6.49479 10.8243 3.15625L8.75737 0L18.8868 2.13021Z" fill="#064D51"/>
</g>
<defs>
<clipPath id="clip0_4381_26341">
<rect width="44" height="64" fill="white" transform="translate(0.5)"/>
</clipPath>
</defs>
</svg>
