<svg width="45" height="64" viewBox="0 0 45 64" fill="none" xmlns="http://www.w3.org/2000/svg">
<g clip-path="url(#clip0_4381_26352)">
<path d="M14.0973 41.9635C14.039 41.9323 13.9648 41.8906 13.9012 41.8438C13.1115 41.2292 12.2424 40.5365 11.4951 39.9375C10.4034 39.0573 9.14733 38.0417 8.26758 37.3229C7.66871 36.8385 6.98504 36.5 6.34378 36.3698C5.9251 36.2969 5.55412 36.2969 5.25203 36.4115C5.01354 36.5156 4.80155 36.7031 4.66906 37C4.48887 37.3958 4.39878 37.9531 4.44647 38.7188C4.48887 39.3958 4.73266 40.1302 5.04534 40.849C5.50642 41.8906 6.15299 42.8594 6.62996 43.474C6.66176 43.5156 6.68826 43.5469 6.70416 43.5938L16.1589 56.8646C16.2808 57.0417 16.355 57.2344 16.3656 57.4219C16.5617 58.9479 16.8902 60.1094 17.3672 60.8281C17.7276 61.3542 18.1728 61.6198 18.7557 61.6042H33.6321C34.5595 61.5885 35.3969 61.3281 36.1707 60.7969C37.0239 60.224 37.7818 59.3281 38.4866 58.125C38.5025 58.1094 38.5184 58.0833 38.529 58.0677C38.7993 57.6146 39.1544 57.026 39.4989 56.4688C41.0093 54.0313 42.3236 51.901 42.472 48.8802L42.3819 44.7135C42.366 44.6563 42.366 44.5938 42.366 44.5365C42.366 44.4792 42.366 44.0833 42.3819 43.5521C42.4137 40.7917 42.4561 37.3854 39.8858 36.9635H38.2269C38.211 37.7396 38.1686 38.5365 38.121 39.2969C38.0786 39.9844 38.0309 40.6302 38.0309 41.2656C38.0309 41.9427 37.4797 42.4844 36.7907 42.4844C36.1018 42.4844 35.5506 41.9427 35.5506 41.2656C35.5506 40.6354 35.593 39.901 35.6407 39.1354C35.805 36.5365 36.0011 33.5573 33.8918 33.1927H32.2489C32.1588 33.1927 32.0687 33.1771 31.9786 33.1615C31.9945 34.099 31.9362 35.0677 31.8726 36.0104C31.8408 36.6979 31.7984 37.3438 31.7984 37.974C31.7984 38.651 31.2472 39.1927 30.5582 39.1927C29.8693 39.1927 29.3181 38.651 29.3181 37.974C29.3181 37.3438 29.3605 36.6094 29.4082 35.8438C29.5725 33.2448 29.7686 30.2656 27.6593 29.901H26.0164C25.8945 29.901 25.7938 29.8854 25.6878 29.8594V34.599C25.6878 35.276 25.1366 35.8177 24.4477 35.8177C23.7587 35.8177 23.2075 35.276 23.2075 34.599V21.8698C23.2075 19.7396 22.3278 18.3906 21.1936 17.8333C20.7749 17.625 20.3298 17.526 19.8952 17.526C19.4606 17.526 19.0154 17.6302 18.5968 17.8333C17.4785 18.3906 16.6094 19.7396 16.6094 21.9271V44.224C16.6094 44.901 16.0582 45.4427 15.3692 45.4427C14.6802 45.4427 14.1291 44.901 14.1291 44.224V41.9635H14.0973ZM20.8226 7.28646C20.8226 8.09375 20.1549 8.73438 19.3493 8.73438C18.5279 8.73438 17.876 8.07813 17.876 7.28646V1.44792C17.876 0.640625 18.5438 0 19.3493 0C20.1708 0 20.8226 0.65625 20.8226 1.44792V7.28646ZM7.41432 19.2448C8.23578 19.2448 8.88765 19.901 8.88765 20.6927C8.88765 21.5 8.21988 22.1406 7.41432 22.1406H1.47332C0.651867 22.1354 0 21.4792 0 20.6927C0 19.8854 0.667766 19.2448 1.47332 19.2448H7.41432ZM11.617 10.5885C12.1894 11.151 12.1894 12.0729 11.617 12.6354C11.0446 13.1979 10.1066 13.1979 9.53421 12.6354L5.34743 8.50521C4.77506 7.94271 4.77506 7.02083 5.34743 6.45833C5.9198 5.89583 6.85785 5.89583 7.43022 6.45833L11.617 10.5885ZM30.9875 22.1354C30.1661 22.1354 29.5142 21.4792 29.5142 20.6875C29.5142 19.8802 30.182 19.2396 30.9875 19.2396H36.9285C37.75 19.2396 38.4018 19.8958 38.4018 20.6875C38.4018 21.4948 37.7341 22.1354 36.9285 22.1354H30.9875ZM28.8676 12.3177C28.2953 12.8802 27.3572 12.8802 26.7848 12.3177C26.2125 11.7552 26.2125 10.8333 26.7848 10.2708L30.9716 6.14063C31.544 5.57813 32.482 5.57813 33.0544 6.14063C33.6268 6.70313 33.6268 7.625 33.0544 8.1875L28.8676 12.3177ZM25.6878 27.4948C25.7938 27.4635 25.8945 27.4531 26.0164 27.4531H27.7335C27.8236 27.4531 27.9296 27.4688 28.0144 27.4844C30.2986 27.8385 31.332 29.1458 31.7507 30.8438C31.915 30.7708 32.0952 30.724 32.2754 30.724H33.9925C34.0826 30.724 34.1886 30.7396 34.2733 30.7552C36.7377 31.1354 37.7235 32.6198 38.0839 34.5C38.1422 34.4844 38.2057 34.4844 38.2799 34.4844H39.9971C40.0872 34.4844 40.1931 34.5 40.2832 34.5156C45.0053 35.2344 44.9417 39.8438 44.8993 43.5573V44.526L45.0053 48.8125V48.9427C44.8251 52.599 43.3624 54.9635 41.6771 57.6927C41.3909 58.1458 41.11 58.6146 40.7231 59.2656C40.7072 59.2813 40.7072 59.2969 40.6913 59.3073C39.8116 60.8177 38.794 61.9792 37.6281 62.7708C36.4462 63.5781 35.1319 63.9896 33.701 64.0052H18.8299C17.3513 64.0365 16.2013 63.401 15.348 62.1563C14.659 61.1563 14.2139 59.75 13.9754 57.9896L4.71676 44.974L4.66906 44.9323C4.11789 44.2135 3.37063 43.0833 2.80356 41.8333C2.38488 40.8958 2.07219 39.8802 1.998 38.8802C1.9238 37.6927 2.08809 36.75 2.43258 36.0052C2.85125 35.0781 3.54022 34.4792 4.36168 34.1563C5.12484 33.849 5.98869 33.8021 6.85785 33.9792C7.9019 34.1875 8.97774 34.6979 9.88929 35.4479C10.6366 36.0625 11.8926 37.0625 13.1168 38.0469L14.1344 38.8698V21.9427C14.1344 18.6979 15.5971 16.6146 17.4944 15.6719C18.2576 15.2917 19.079 15.099 19.9164 15.099C20.7537 15.099 21.5752 15.2917 22.3331 15.6719C24.2304 16.6094 25.7249 18.7083 25.7249 21.8958V27.5L25.6878 27.4948Z" fill="#064D51"/>
</g>
<defs>
<clipPath id="clip0_4381_26352">
<rect width="45" height="64" fill="white"/>
</clipPath>
</defs>
</svg>
