<svg width="145" height="84" viewBox="0 0 145 84" fill="none" xmlns="http://www.w3.org/2000/svg">
<g clip-path="url(#clip0_4381_26300)">
<path d="M16.5547 22.7399C16.5547 22.7399 16.526 22.7208 16.4688 22.6826C16.4116 22.6635 16.3353 22.6444 16.2399 22.6254C16.1635 22.6063 16.0681 22.5967 15.9537 22.5967C15.6484 22.5204 15.429 22.3485 15.2955 22.0813C15.1619 21.8331 15.1333 21.5563 15.2096 21.2508C15.2859 21.1744 15.3431 21.0122 15.3813 20.764C15.4195 20.5158 15.4385 20.3154 15.4385 20.1626C15.5149 20.0099 15.5626 19.9049 15.5816 19.8476C15.6007 19.7713 15.6484 19.5804 15.7247 19.2749C15.782 18.9504 15.8774 18.5017 16.0109 17.929C16.1635 17.3372 16.3257 16.7072 16.4974 16.039C16.6882 15.3708 16.8695 14.7313 17.0412 14.1204C17.2129 13.5094 17.3655 12.994 17.4991 12.574C17.6517 12.154 17.7566 11.9154 17.8139 11.8581C17.8139 11.8581 17.8139 11.8294 17.8139 11.7722C17.8139 11.6958 17.8139 11.6194 17.8139 11.5431C17.8139 11.5431 17.8234 11.4572 17.8425 11.2854C17.8806 11.0944 17.976 10.8844 18.1287 10.6554C18.205 10.4454 18.2718 10.2163 18.329 9.96808C18.3862 9.7199 18.4149 9.55762 18.4149 9.48126C18.4912 9.38581 18.5961 9.15671 18.7297 8.79399C18.8823 8.41217 19.0254 8.0399 19.1589 7.67717C19.2734 7.37171 19.3974 7.04717 19.531 6.70353C19.6836 6.35991 19.8076 6.064 19.903 5.81582C20.0175 5.56764 20.0747 5.44355 20.0747 5.44355C20.0747 5.36718 20.0747 5.329 20.0747 5.329C20.0747 5.30991 20.0747 5.30036 20.0747 5.30036C20.151 5.224 20.3323 4.84218 20.6185 4.15491C20.9237 3.44855 21.3339 2.54173 21.8491 1.43446C21.9254 1.28173 22.0208 1.10991 22.1353 0.919C22.2497 0.728091 22.307 0.594454 22.307 0.51809C22.4024 0.365363 22.5359 0.298544 22.7076 0.317635C22.8793 0.317635 23.051 0.374908 23.2228 0.489454C23.4135 0.603999 23.5566 0.766273 23.652 0.976273L23.9382 1.43446L22.908 3.49627C22.6027 4.03082 22.3451 4.51764 22.1353 4.95673C21.9445 5.39582 21.8491 5.65355 21.8491 5.72991C21.8491 5.72991 21.7918 5.88264 21.6774 6.18809C21.5629 6.49353 21.4293 6.85626 21.2767 7.27626C21.1241 7.69626 20.9905 8.07808 20.876 8.42171C20.6662 9.01353 20.4658 9.50035 20.2751 9.88217C20.1033 10.264 20.0175 10.4931 20.0175 10.5694C20.0175 10.5313 20.2274 10.5026 20.6471 10.4835C21.0668 10.4644 21.601 10.4549 22.2497 10.4549C22.8984 10.4549 23.5566 10.4549 24.2244 10.4549C24.9112 10.4358 25.5122 10.4263 26.0274 10.4263C26.5616 10.4072 26.9241 10.3785 27.1149 10.3404L28.603 10.1972L29.576 7.24762C29.7287 6.71308 29.929 6.064 30.177 5.30036C30.4251 4.53673 30.6445 3.88764 30.8353 3.35309C31.1405 2.47491 31.379 1.93082 31.5507 1.72082C31.7224 1.51082 31.9228 1.40582 32.1517 1.40582C32.2089 1.40582 32.2853 1.42491 32.3806 1.46309C32.4951 1.48218 32.6001 1.52991 32.6954 1.60627C32.8099 1.66355 32.8862 1.74945 32.9244 1.864C33.1533 2.074 33.2583 2.31264 33.2392 2.57991C33.2392 2.84718 33.0866 3.20036 32.7813 3.63945C32.476 4.15491 32.2185 4.71809 32.0086 5.329C31.8178 5.92082 31.6461 6.40762 31.4935 6.78944C31.4935 7.01853 31.4649 7.20944 31.4076 7.36217C31.3504 7.49581 31.2836 7.60081 31.2073 7.67717C31.1691 7.71535 31.0928 7.85853 30.9783 8.10671C30.8639 8.3549 30.7589 8.60308 30.6635 8.85126C30.5681 9.09944 30.5204 9.25217 30.5204 9.30944C30.5204 9.44308 30.4918 9.60535 30.4346 9.79626C30.3774 9.98717 30.3106 10.1208 30.2343 10.1972C30.1961 10.3117 30.1103 10.5981 29.9767 11.0563C29.8431 11.5144 29.6905 12.0585 29.5188 12.6885C29.3471 13.2994 29.1658 13.9008 28.9751 14.4926C28.7843 15.0654 28.6126 15.5426 28.4599 15.9244C28.4599 16.0581 28.4122 16.2299 28.3168 16.4399C28.2214 16.6308 28.1737 16.8026 28.1737 16.9554C28.0974 17.1844 28.002 17.4708 27.8876 17.8144C27.7731 18.1581 27.7158 18.3776 27.7158 18.4731C27.6204 18.9122 27.5155 19.3608 27.401 19.819C27.3056 20.2772 27.2198 20.6685 27.1435 20.9931C27.0862 21.3367 27.0576 21.5372 27.0576 21.5944C26.9813 21.6708 26.8668 21.6803 26.7142 21.6231C26.5616 21.5658 26.3803 21.499 26.1705 21.4226C25.808 21.2126 25.5885 20.9835 25.5122 20.7353C25.455 20.5063 25.5313 20.1722 25.7412 19.7331C25.8366 19.5804 25.951 19.2081 26.0846 18.6163C26.2372 18.0054 26.3899 17.404 26.5425 16.8122C26.657 16.5258 26.781 16.144 26.9145 15.6667C27.0481 15.1704 27.1816 14.674 27.3152 14.1776C27.4487 13.6622 27.5632 13.2326 27.6586 12.889C27.754 12.5263 27.8208 12.3258 27.8589 12.2876C27.8589 12.2113 27.8589 12.1444 27.8589 12.0872C27.8589 12.0299 27.8589 12.0013 27.8589 12.0013C27.8208 11.9631 27.5823 11.9344 27.1435 11.9154C26.7047 11.8772 26.1609 11.8676 25.5122 11.8867C24.8635 11.8867 24.1862 11.9058 23.4803 11.944C22.7935 11.9631 22.1734 12.0108 21.6201 12.0872C21.4103 12.0872 21.1718 12.0872 20.9047 12.0872C20.6376 12.0872 20.4277 12.0872 20.2751 12.0872C20.0652 12.0872 19.8839 12.0872 19.7313 12.0872C19.5978 12.0872 19.531 12.0872 19.531 12.0872C19.5119 12.1444 19.4451 12.3449 19.3306 12.6885C19.2162 13.0322 19.0826 13.4522 18.93 13.9485C18.7774 14.4258 18.6152 14.9222 18.4435 15.4376C18.2908 15.934 18.1573 16.3922 18.0428 16.8122C17.9474 17.2131 17.8806 17.4994 17.8425 17.6713C17.7662 18.0149 17.6612 18.4444 17.5277 18.9599C17.4132 19.4754 17.2797 20.0004 17.127 20.5349C16.9935 21.0885 16.8695 21.5658 16.755 21.9667C16.6596 22.3676 16.5928 22.6254 16.5547 22.7399Z" fill="#35C759"/>
<path d="M34.2253 19.9347C33.9773 19.9347 33.777 19.887 33.6243 19.7915C33.4908 19.6961 33.3191 19.5625 33.1092 19.3906C32.7467 19.0088 32.4891 18.6461 32.3365 18.3025C32.1839 17.9397 32.1362 17.5961 32.1934 17.2715C32.2506 17.1188 32.2697 16.9756 32.2506 16.842C32.2506 16.6893 32.2506 16.6129 32.2506 16.6129C32.1553 16.5175 32.1266 16.4602 32.1648 16.4411C32.2029 16.4029 32.2411 16.3456 32.2793 16.2693C32.3937 16.2693 32.3174 16.211 32.2793 16.001C32.2411 15.8482 32.4319 15.4675 32.6227 14.952C32.8135 14.4365 33.052 13.9497 33.3381 13.4915C33.4526 13.3006 33.6243 13.0525 33.8533 12.747C34.0822 12.4225 34.3303 12.1074 34.5974 11.802C34.8835 11.4774 35.1411 11.2197 35.3701 11.0288C35.847 10.6279 36.2668 10.332 36.6293 10.1411C36.9918 9.95018 37.3829 9.807 37.8026 9.71154C38.2224 9.61609 38.5085 9.56836 38.6612 9.56836C38.8329 9.56836 39.0618 9.72109 39.348 10.0265C39.7868 10.2175 40.1016 10.4465 40.2924 10.7138C40.5023 10.9811 40.6358 11.3724 40.6931 11.8879C40.7503 12.4606 40.7026 13.1193 40.55 13.8638C40.4164 14.5893 39.9681 15.4961 39.2049 16.5843C38.7279 17.2715 38.2891 17.787 37.8885 18.1306C37.4878 18.4552 37.0108 18.7797 36.4576 19.1043C36.0569 19.3715 35.6944 19.572 35.3701 19.7056C35.0457 19.8202 34.6641 19.8965 34.2253 19.9347ZM36.9727 16.8993C37.4306 16.3838 37.7931 15.897 38.0602 15.4388C38.3464 14.9806 38.6135 14.3984 38.8615 13.692C38.9378 13.482 38.9855 13.2243 39.0046 12.9188C39.0237 12.5943 39.0141 12.2984 38.976 12.0311C38.9569 11.7447 38.8901 11.5825 38.7756 11.5443C38.5467 11.4106 38.2701 11.3725 37.9457 11.4297C37.6214 11.4679 37.2684 11.6493 36.8868 11.9738C36.2954 12.4702 35.7803 13.0906 35.3414 13.8352C34.9026 14.5606 34.4733 15.3911 34.0536 16.3265C33.7674 17.0138 33.7006 17.5675 33.8533 17.9875C34.025 18.3884 34.3779 18.5315 34.9122 18.417C35.4654 18.2834 36.1523 17.7774 36.9727 16.8993Z" fill="#35C759"/>
<path d="M44.6921 19.0746C44.4059 19.0746 44.1388 18.9027 43.8908 18.5591C43.6618 18.1964 43.4901 17.7382 43.3756 17.1846C43.2803 16.6118 43.2516 16.02 43.2898 15.4091C43.2898 14.7982 43.3184 14.3114 43.3756 13.9486C43.452 13.5668 43.5283 13.1946 43.6046 12.8318C43.6618 12.7173 43.6904 12.6218 43.6904 12.5455C43.7095 12.4691 43.7286 12.345 43.7477 12.1732C43.7858 12.0014 43.8526 11.715 43.948 11.3141C44.0243 10.9896 44.1006 10.7223 44.177 10.5123C44.2533 10.3023 44.3296 10.1591 44.4059 10.0827C44.5013 9.96819 44.6253 9.90137 44.7779 9.88228C44.9306 9.8441 45.0832 9.85365 45.2358 9.91092C45.3885 9.96819 45.5125 10.0732 45.6079 10.2259C45.7224 10.3214 45.7796 10.5409 45.7796 10.8846C45.7987 11.2091 45.7796 11.5527 45.7224 11.9155C45.6651 12.2591 45.5793 12.5073 45.4648 12.66C45.4266 12.7555 45.3789 13.0036 45.3217 13.4046C45.2835 13.8055 45.2358 14.2255 45.1786 14.6646C45.1404 15.1036 45.0928 15.4568 45.0355 15.7241C44.9783 16.0677 45.0069 16.3446 45.1214 16.5546C45.2549 16.7646 45.4934 16.7741 45.8368 16.5832C46.1993 16.3732 46.6763 15.8386 47.2677 14.9796C47.6684 14.4068 47.9737 13.9391 48.1835 13.5764C48.3934 13.2136 48.5556 12.8796 48.6701 12.5741C48.8036 12.2496 48.9372 11.9059 49.0707 11.5432C49.1661 11.2377 49.252 10.9896 49.3283 10.7986C49.4237 10.5886 49.5095 10.455 49.5858 10.3977C49.7194 10.3023 49.872 10.2641 50.0437 10.2832C50.2345 10.3023 50.4444 10.3882 50.6733 10.5409C50.9023 10.77 51.0168 11.0468 51.0168 11.3714C51.0168 11.6768 50.9023 12.0586 50.6733 12.5168C50.5207 12.8223 50.3681 13.2136 50.2154 13.6909C50.0819 14.1682 49.9674 14.655 49.872 15.1514C49.7957 15.6286 49.7576 16.02 49.7576 16.3255C49.7576 16.7073 49.8052 16.9364 49.9006 17.0127C50.0151 17.07 50.1487 17.0986 50.3013 17.0986C50.5303 17.0986 50.8069 17.0127 51.1312 16.8409C51.4556 16.6691 51.8181 16.3732 52.2187 15.9532C52.3904 15.7814 52.6003 15.5332 52.8483 15.2086C53.0964 14.865 53.3349 14.5118 53.5638 14.1491C53.8118 13.7673 54.0122 13.4332 54.1648 13.1468C54.3365 12.8605 54.4224 12.6791 54.4224 12.6027C54.4224 12.4882 54.5082 12.3259 54.6799 12.1159C54.7944 11.9632 54.8803 11.8486 54.9375 11.7723C55.0138 11.6768 55.1474 11.5814 55.3381 11.4859C55.4908 11.4096 55.6243 11.4 55.7388 11.4573C55.8533 11.4955 55.9773 11.5909 56.1108 11.7436C56.2062 11.82 56.2539 11.9346 56.2539 12.0873C56.273 12.24 56.2826 12.4309 56.2826 12.66C56.2253 12.87 56.1299 13.1468 55.9964 13.4905C55.8819 13.815 55.7483 14.13 55.5957 14.4355C55.4622 14.7218 55.3477 14.9223 55.2523 15.0368C55.176 15.1132 55.0424 15.2564 54.8516 15.4664C54.6608 15.6573 54.4891 15.8673 54.3365 16.0964C53.8595 16.6691 53.5161 17.0414 53.3062 17.2132C53.0964 17.385 52.9151 17.5473 52.7625 17.7C52.3618 18.1009 51.9421 18.4064 51.5033 18.6164C51.0645 18.8073 50.6447 18.9027 50.2441 18.9027C49.8625 18.9027 49.5381 18.8073 49.271 18.6164C48.6796 18.3109 48.3839 17.7955 48.3839 17.07C48.3839 16.9173 48.3553 16.7836 48.298 16.6691C48.2599 16.5355 48.2408 16.4686 48.2408 16.4686C48.1645 16.4686 48.0595 16.4877 47.926 16.5259C47.8115 16.5641 47.6875 16.6977 47.5539 16.9268C47.3822 17.2514 47.1056 17.5855 46.724 17.9291C46.3615 18.2536 45.9895 18.5305 45.6079 18.7596C45.2263 18.9696 44.921 19.0746 44.6921 19.0746Z" fill="#35C759"/>
<path d="M66.4937 19.4769C66.2076 19.4388 65.9595 19.2383 65.7497 18.8756C65.5589 18.4938 65.4444 18.1501 65.4062 17.8447C65.4253 17.6919 65.4444 17.4724 65.4635 17.186C65.5016 16.8997 65.5398 16.6038 65.578 16.2983C65.6543 15.9356 65.7592 15.4965 65.8928 14.981C66.0263 14.4465 66.1599 13.9119 66.2934 13.3774C66.4461 12.8429 66.5796 12.3847 66.6941 12.0029C66.8086 11.621 66.8849 11.3919 66.923 11.3156C67.0184 11.1629 67.171 11.1247 67.3809 11.201C67.5908 11.2774 67.7625 11.3919 67.8961 11.5447C68.0105 11.6974 68.0773 11.8788 68.0964 12.0888C68.1345 12.2988 68.1059 12.6042 68.0105 13.0051C67.9342 13.406 67.7816 13.9979 67.5526 14.7806C67.3428 15.5442 67.1806 16.1647 67.0661 16.6419C66.9707 17.1001 66.9326 17.5869 66.9516 18.1024C66.8753 18.7515 66.8181 19.1524 66.7799 19.3051C66.7418 19.4388 66.6464 19.496 66.4937 19.4769ZM69.7849 8.05104C69.7086 8.10831 69.6322 8.13695 69.5559 8.13695C69.4987 8.11786 69.3937 8.06058 69.2411 7.96513C69.1076 7.94604 68.9359 7.86013 68.726 7.7074C68.5352 7.53558 68.3635 7.36377 68.2109 7.19195C68.0773 7.00104 68.0105 6.88649 68.0105 6.84831C67.9914 6.6574 68.001 6.41877 68.0391 6.13241C68.0964 5.82696 68.2013 5.55969 68.3539 5.3306C68.5066 5.08241 68.726 4.94878 69.0122 4.92969C69.0885 4.92969 69.1553 4.93923 69.2125 4.95832C69.2697 4.97741 69.4414 5.04423 69.7276 5.15878C69.8803 5.44514 70.0329 5.76969 70.1855 6.13241C70.3382 6.47604 70.4049 6.81967 70.3859 7.16331C70.3668 7.48786 70.1664 7.78377 69.7849 8.05104Z" fill="#35C759"/>
<path d="M74.408 20.3063C74.1409 20.2299 73.9215 20.144 73.7498 20.0486C73.5781 19.934 73.3491 19.7527 73.063 19.5045C72.834 19.199 72.6528 18.9127 72.5192 18.6454C72.4047 18.3781 72.3284 18.0727 72.2903 17.729C72.2521 17.3663 72.233 16.9081 72.233 16.3545C72.233 16.1254 72.2712 15.7817 72.3475 15.3236C72.4429 14.8654 72.5478 14.3881 72.6623 13.8917C72.7958 13.3763 72.9103 12.9181 73.0057 12.5172C73.1202 12.1163 73.187 11.8586 73.206 11.744C73.2633 11.4958 73.1679 11.3527 72.9199 11.3145C72.6718 11.2763 72.3952 11.2667 72.0899 11.2858C71.8037 11.2858 71.613 11.2572 71.5176 11.1999C71.4412 11.1808 71.4031 11.1522 71.4031 11.114C71.4031 11.0567 71.4031 11.0281 71.4031 11.0281C71.4031 10.9517 71.3935 10.904 71.3745 10.8849C71.3745 10.8468 71.3458 10.7799 71.2886 10.6845C71.2505 10.6081 71.2695 10.5031 71.3458 10.3695C71.4412 10.2167 71.5939 10.1213 71.8037 10.0831C71.9755 10.0449 72.2044 10.0163 72.4906 9.9972C72.7958 9.95902 73.1011 9.8922 73.4064 9.79675C73.7116 9.6822 73.9597 9.51039 74.1505 9.2813C74.3222 8.8613 74.5225 8.39357 74.7514 7.87811C74.9804 7.36266 75.1998 6.90448 75.4097 6.50357C75.6386 6.08358 75.7912 5.82585 75.8676 5.7304C76.1919 5.55858 76.4304 5.49176 76.583 5.52994C76.7356 5.54904 76.9074 5.71131 77.0982 6.01676C77.1935 6.1504 77.2603 6.2554 77.2985 6.33176C77.3557 6.40811 77.3653 6.52266 77.3271 6.67539C77.2889 6.82811 77.184 7.06675 77.0123 7.3913C76.8597 7.71584 76.6212 8.18357 76.2968 8.79448C76.2014 8.98539 76.1156 9.1572 76.0393 9.30993C75.963 9.44357 75.9248 9.51039 75.9248 9.51039C76.0011 9.52948 76.1156 9.53902 76.2682 9.53902C76.4208 9.53902 76.6116 9.52948 76.8406 9.51039C77.0505 9.4722 77.3176 9.44357 77.6419 9.42448C77.9662 9.3863 78.2238 9.3863 78.4146 9.42448C78.8534 9.42448 79.1778 9.51039 79.3876 9.6822C79.5975 9.83493 79.712 10.1022 79.731 10.484C79.7692 10.694 79.7215 10.8181 79.5879 10.8563C79.4735 10.8945 79.1587 10.9136 78.6435 10.9136C78.4718 10.9136 78.2047 10.9231 77.8422 10.9422C77.4797 10.9613 77.0981 10.9804 76.6975 10.9995C76.3159 11.0186 75.982 11.0472 75.6958 11.0854C75.4287 11.1045 75.2952 11.1331 75.2952 11.1713C75.238 11.2095 75.1426 11.3908 75.009 11.7154C74.8945 12.0399 74.7705 12.4122 74.637 12.8322C74.5225 13.2331 74.4176 13.5958 74.3222 13.9204C74.1886 14.5695 74.0837 15.2186 74.0074 15.8677C73.9501 16.5168 73.9406 17.0799 73.9787 17.5572C74.0169 18.0345 74.1218 18.3686 74.2935 18.5595C74.4653 18.7313 74.7991 18.7695 75.2952 18.674C75.7912 18.5595 76.1919 18.3781 76.4972 18.1299C76.8406 17.8436 77.1172 17.7004 77.3271 17.7004C77.556 17.7004 77.6801 17.8054 77.6991 18.0154C77.7373 18.2063 77.6324 18.4831 77.3843 18.8458C77.1554 19.1895 76.8692 19.4949 76.5258 19.7622C76.1824 20.0104 75.8199 20.1918 75.4383 20.3063C75.0758 20.4018 74.7324 20.4018 74.408 20.3063Z" fill="#35C759"/>
<path d="M96.3945 19.5325C96.2419 19.5516 96.0415 19.4657 95.7935 19.2748C95.5455 19.0839 95.307 18.8643 95.0781 18.6161C94.9063 18.3489 94.7632 17.9098 94.6488 17.2989C94.5534 16.6879 94.4866 16.0579 94.4484 15.4089C93.8952 16.2489 93.3991 16.9361 92.9603 17.4707C92.5215 18.0052 92.1208 18.4252 91.7583 18.7307C91.4149 19.017 91.0906 19.2079 90.7853 19.3034C90.6136 19.3607 90.4705 19.3607 90.356 19.3034C90.2415 19.227 90.1461 19.122 90.0698 18.9884C89.9935 18.8548 89.9076 18.6448 89.8123 18.3584C89.7359 18.0529 89.7073 17.7379 89.7264 17.4134C89.6882 17.0125 89.6501 16.5543 89.6119 16.0389C89.5929 15.5234 89.5738 15.0175 89.5547 14.5211C89.5547 14.0057 89.5642 13.5475 89.5833 13.1466C89.6024 12.7457 89.6405 12.4784 89.6978 12.3448C89.6787 12.2684 89.6692 12.192 89.6692 12.1157C89.6692 12.0393 89.6692 12.0011 89.6692 12.0011C89.6119 11.9057 89.5833 11.6957 89.5833 11.3711C89.6024 11.0275 89.6405 10.6934 89.6978 10.3689C89.755 10.0443 89.8027 9.84386 89.8409 9.76749C89.879 9.69113 89.9267 9.63386 89.984 9.59567C90.0603 9.55749 90.1461 9.52886 90.2415 9.50977C90.5277 9.56704 90.6803 9.68158 90.6994 9.8534C90.7567 9.89158 90.8139 9.94886 90.8711 10.0252C90.9284 10.0825 90.9952 10.1016 91.0715 10.0825C91.1287 10.1207 91.1669 10.2925 91.1859 10.5979C91.2241 10.9034 91.2432 11.2566 91.2432 11.6575C91.2241 11.8484 91.2241 12.0298 91.2432 12.2016C91.2623 12.3734 91.2527 12.5261 91.2146 12.6598C91.2146 12.7552 91.2241 12.9652 91.2432 13.2898C91.2623 13.5952 91.2813 13.9102 91.3004 14.2348C91.3004 14.4829 91.2909 14.817 91.2718 15.237C91.2527 15.6379 91.2432 15.972 91.2432 16.2393C91.3004 16.6211 91.3481 16.8693 91.3863 16.9839C91.4435 17.0793 91.5294 17.0889 91.6438 17.0125C91.7583 16.9743 91.9586 16.7261 92.2448 16.2679C92.5501 15.8098 92.903 15.237 93.3037 14.5498C93.609 14.0916 93.8665 13.7002 94.0764 13.3757C94.3053 13.032 94.4961 12.7648 94.6488 12.5739C94.706 12.1157 94.7632 11.7052 94.8205 11.3425C94.8968 10.9798 94.9445 10.722 94.9636 10.5693C95.2307 10.302 95.4692 10.1493 95.679 10.1111C95.8889 10.0539 96.0606 10.1589 96.1942 10.4261C96.385 10.5025 96.4994 10.6266 96.5376 10.7984C96.5948 10.9511 96.6044 11.1325 96.5662 11.3425C96.4899 11.6098 96.4136 11.8675 96.3373 12.1157C96.28 12.3639 96.2132 12.6216 96.1369 12.8889C96.0606 13.1561 96.0034 13.5857 95.9652 14.1775C95.9461 14.7693 95.9461 15.3611 95.9652 15.9529C95.9843 16.5257 96.032 16.9552 96.1083 17.2416C96.1274 17.4134 96.2228 17.4993 96.3945 17.4993C96.5853 17.4802 96.8238 17.3466 97.11 17.0984C97.3961 16.7929 97.7109 16.4111 98.0544 15.9529C98.4169 15.4757 98.7221 15.0366 98.9702 14.6357C99.2373 14.2348 99.3708 13.9866 99.3708 13.8911C99.3708 13.7384 99.409 13.5761 99.4853 13.4043C99.5616 13.2134 99.657 13.0702 99.7715 12.9748C99.8669 12.8602 99.9241 12.7457 99.9432 12.6311C99.9623 12.4975 100 12.3639 100.058 12.2302C100.077 12.192 100.105 12.1348 100.144 12.0584C100.182 11.982 100.21 11.9057 100.229 11.8293C100.172 11.6957 100.21 11.5811 100.344 11.4857C100.496 11.3711 100.592 11.2566 100.63 11.142C100.668 10.8939 100.773 10.7507 100.945 10.7125C101.136 10.6552 101.317 10.6934 101.489 10.827C101.679 10.9416 101.784 11.1229 101.803 11.3711C101.803 11.6002 101.727 11.9343 101.574 12.3734C101.441 12.8125 101.25 13.2802 101.002 13.7766C100.773 14.2729 100.516 14.7216 100.229 15.1225C100.153 15.2752 100.077 15.4279 100 15.5807C99.9432 15.7334 99.8382 15.9339 99.6856 16.182C99.533 16.4302 99.2659 16.7929 98.8843 17.2702C98.7698 17.4229 98.6363 17.5852 98.4836 17.757C98.3501 17.9098 98.207 18.0529 98.0544 18.1866C97.73 18.6066 97.4343 18.9311 97.1672 19.1602C96.9192 19.3893 96.6616 19.5134 96.3945 19.5325Z" fill="#35C759"/>
<path d="M106.197 20.1925C105.949 20.2115 105.748 20.1925 105.596 20.1352C105.443 20.0588 105.252 19.9538 105.023 19.8202C104.604 19.4956 104.289 19.1711 104.079 18.8465C103.888 18.5029 103.802 18.1688 103.821 17.8443C103.86 17.6725 103.86 17.5197 103.821 17.3861C103.802 17.2525 103.793 17.1856 103.793 17.1856C103.678 17.0902 103.64 17.0329 103.678 17.0138C103.717 16.9756 103.745 16.9184 103.764 16.842C103.917 16.8038 103.936 16.6988 103.821 16.527C103.764 16.3743 103.793 16.0306 103.907 15.4961C104.041 14.9425 104.213 14.427 104.422 13.9497C104.518 13.7397 104.651 13.4629 104.823 13.1193C105.014 12.7756 105.224 12.432 105.453 12.0884C105.682 11.7256 105.892 11.4393 106.082 11.2293C106.502 10.752 106.874 10.3988 107.198 10.1697C107.542 9.92155 107.923 9.72109 108.343 9.56837C108.725 9.41564 109.001 9.32973 109.173 9.31064C109.345 9.29155 109.583 9.40609 109.889 9.65428C110.346 9.78791 110.69 9.97882 110.919 10.227C111.167 10.4561 111.358 10.8188 111.491 11.3152C111.644 11.8688 111.692 12.5275 111.634 13.2911C111.596 14.0356 111.272 14.9997 110.661 16.1834C110.299 16.9279 109.936 17.4911 109.574 17.8729C109.23 18.2547 108.811 18.6556 108.315 19.0756C107.952 19.3811 107.618 19.6197 107.313 19.7915C107.008 19.9634 106.636 20.097 106.197 20.1925ZM108.486 16.7847C108.868 16.212 109.164 15.687 109.373 15.2097C109.602 14.7134 109.784 14.0929 109.917 13.3484C109.955 13.1384 109.965 12.8806 109.946 12.5752C109.927 12.2506 109.879 11.9547 109.803 11.6875C109.745 11.4202 109.66 11.277 109.545 11.2579C109.297 11.1625 109.02 11.1625 108.715 11.2579C108.41 11.3343 108.076 11.5634 107.714 11.9452C107.389 12.327 107.094 12.7565 106.826 13.2338C106.578 13.7111 106.349 14.2361 106.14 14.8088C105.93 15.3815 105.729 15.9925 105.539 16.6415C105.348 17.367 105.357 17.9206 105.567 18.3025C105.796 18.6843 106.168 18.7797 106.683 18.5888C107.198 18.3788 107.799 17.7775 108.486 16.7847Z" fill="#35C759"/>
<path d="M114.368 19.3607C114.196 19.2271 114.072 19.0934 113.996 18.9598C113.939 18.8262 113.939 18.5684 113.996 18.1866C114.053 17.6521 114.13 17.1844 114.225 16.7834C114.32 16.3634 114.435 15.8862 114.568 15.3516C114.607 15.1225 114.712 14.7312 114.883 14.1775C115.074 13.6239 115.303 13.0225 115.57 12.3734C115.837 11.7244 116.104 11.1134 116.371 10.5407C116.638 9.9489 116.867 9.50981 117.058 9.22344C117.211 9.1089 117.392 9.06117 117.602 9.08026C117.831 9.09935 118.022 9.18526 118.174 9.33799C118.384 9.50981 118.413 9.81526 118.26 10.2544C118.127 10.6744 117.84 11.3425 117.402 12.2589C117.173 12.7744 117.001 13.1657 116.887 13.433C116.772 13.6812 116.724 13.8339 116.743 13.8912C116.763 13.9294 116.848 13.9007 117.001 13.8053C117.115 13.5953 117.325 13.3566 117.631 13.0894C117.936 12.803 118.26 12.5262 118.604 12.2589C118.947 11.9916 119.271 11.753 119.577 11.543C119.882 11.333 120.092 11.1994 120.206 11.1421C120.359 11.0466 120.531 10.9703 120.721 10.913C120.931 10.8366 121.074 10.7794 121.151 10.7412C121.589 10.5312 122.038 10.4548 122.496 10.5121C122.954 10.5694 123.24 10.7412 123.354 11.0275C123.373 11.1803 123.431 11.2948 123.526 11.3712C123.64 11.4475 123.698 11.4857 123.698 11.4857C123.774 11.4857 123.812 11.5144 123.812 11.5716C123.831 11.6289 123.841 11.6575 123.841 11.6575C123.841 11.7912 123.736 11.8771 123.526 11.9153C123.335 11.9344 123.087 11.9534 122.782 11.9725C122.534 11.9916 122.314 12.0394 122.124 12.1157C121.933 12.1921 121.704 12.2875 121.437 12.4021C120.712 12.8221 120.015 13.2325 119.348 13.6334C118.699 14.0344 118.069 14.5689 117.459 15.2371C117.325 15.3898 117.192 15.5712 117.058 15.7812C116.925 15.9912 116.782 16.2203 116.629 16.4684C116.534 16.5639 116.438 16.7739 116.343 17.0984C116.247 17.423 116.162 17.738 116.085 18.0434C116.028 18.3298 115.999 18.5016 115.999 18.5589C115.999 18.5589 115.971 18.6544 115.913 18.8453C115.856 19.0171 115.761 19.1889 115.627 19.3607C115.398 19.6662 115.208 19.8189 115.055 19.8189C114.902 19.8189 114.673 19.6662 114.368 19.3607Z" fill="#35C759"/>
<path d="M124.767 19.734C124.576 19.6004 124.433 19.4763 124.338 19.3618C124.243 19.2472 124.204 19.0849 124.224 18.8749C124.262 18.5886 124.319 18.2927 124.395 17.9872C124.472 17.6627 124.567 17.3477 124.681 17.0422C124.739 16.6986 124.805 16.3549 124.882 16.0113C124.977 15.6677 125.13 15.3431 125.34 15.0377C125.588 14.3313 125.845 13.6345 126.112 12.9472C126.379 12.2409 126.608 11.5059 126.799 10.7422C127.085 10.0549 127.343 9.44404 127.572 8.90949C127.82 8.37494 128.116 7.68767 128.459 6.84767C128.65 6.40858 128.812 5.92178 128.946 5.38723C129.098 4.83359 129.327 4.34678 129.632 3.92678C129.766 3.75496 129.861 3.61178 129.919 3.49723C129.995 3.36359 130.071 3.2395 130.148 3.12496C130.186 3.01041 130.31 2.97223 130.52 3.01041C130.749 3.04859 130.911 3.1345 131.006 3.26814C131.101 3.24905 131.216 3.37314 131.35 3.64041C131.483 3.90768 131.531 4.11768 131.493 4.27041C131.493 4.48041 131.416 4.7095 131.264 4.95768C131.187 5.03405 131.111 5.14859 131.035 5.30132C130.958 5.43496 130.844 5.61632 130.691 5.84541C130.615 6.09359 130.539 6.34178 130.462 6.58994C130.386 6.83813 130.3 7.06722 130.205 7.27722C130.109 7.48722 130.004 7.69722 129.89 7.90722C129.775 8.11722 129.699 8.28904 129.661 8.42267C129.489 8.86176 129.299 9.29131 129.089 9.71131C128.898 10.1122 128.726 10.5418 128.574 10.9999C128.421 11.439 128.259 11.9068 128.087 12.4031C127.934 12.8804 127.725 13.3386 127.457 13.7777C127.324 13.9686 127.219 14.2263 127.143 14.5509C127.066 14.8754 126.99 15.1904 126.914 15.4959C126.78 15.8395 126.656 16.1545 126.542 16.4409C126.446 16.7272 126.399 16.9086 126.399 16.9849C126.265 17.4049 126.16 17.8249 126.084 18.2449C126.007 18.6459 125.883 18.999 125.712 19.3045C125.693 19.5909 125.607 19.7818 125.454 19.8772C125.321 19.9727 125.092 19.9249 124.767 19.734ZM131.607 20.1922C131.302 20.154 131.073 20.0968 130.92 20.0204C130.768 19.9249 130.481 19.7245 130.062 19.419C129.833 19.1899 129.518 18.8368 129.117 18.3595C128.717 17.8822 128.316 17.3763 127.915 16.8418C127.515 16.2881 127.181 15.8204 126.914 15.4386L128.087 13.8636C128.335 14.169 128.535 14.4554 128.688 14.7227C128.841 14.9899 128.965 15.1713 129.06 15.2668C129.499 15.9159 129.842 16.4409 130.09 16.8418C130.357 17.2427 130.596 17.5672 130.806 17.8154C131.016 18.0636 131.235 18.2831 131.464 18.474C131.712 18.6649 132.017 18.8654 132.38 19.0754C132.437 19.1136 132.494 19.1709 132.551 19.2472C132.609 19.3236 132.628 19.4381 132.609 19.5909C132.532 19.8009 132.447 19.9345 132.351 19.9918C132.275 20.0299 132.027 20.0968 131.607 20.1922ZM126.828 15.1236C126.713 14.799 126.751 14.4745 126.942 14.1499C127.152 13.8063 127.381 13.5677 127.629 13.434C127.705 13.3004 127.782 13.2145 127.858 13.1763C127.953 13.119 128.011 13.0522 128.03 12.9759C128.068 12.8995 128.163 12.7945 128.316 12.6609C128.488 12.5272 128.64 12.4031 128.774 12.2886C129.079 12.0977 129.423 11.8686 129.804 11.6013C130.205 11.3149 130.586 11.0286 130.949 10.7422C131.311 10.4559 131.617 10.2077 131.865 9.99767C132.132 9.78767 132.294 9.65404 132.351 9.59676C132.408 9.5204 132.485 9.47267 132.58 9.45358C132.695 9.4154 132.838 9.43449 133.009 9.51085C133.238 9.56813 133.391 9.66358 133.467 9.79722C133.544 9.91176 133.582 10.1409 133.582 10.4845C133.639 10.6945 133.553 10.9236 133.324 11.1718C133.114 11.4009 132.79 11.6586 132.351 11.9449C132.199 12.0404 131.989 12.1836 131.722 12.3745C131.474 12.5654 131.254 12.7468 131.063 12.9186C130.93 12.9949 130.729 13.1286 130.462 13.3195C130.214 13.4913 129.995 13.6631 129.804 13.8349C129.651 13.9304 129.451 14.1022 129.203 14.3504C128.955 14.5795 128.707 14.7513 128.459 14.8659C127.849 15.4386 127.448 15.744 127.257 15.7822C127.066 15.8204 126.923 15.6009 126.828 15.1236Z" fill="#35C759"/>
<path d="M138.082 19.9619C137.128 19.9619 136.432 19.6183 135.993 18.931C135.86 18.7401 135.793 18.5492 135.793 18.3583C135.812 18.1483 135.869 18.0051 135.965 17.9287C136.079 17.8524 136.213 17.9192 136.365 18.1292C136.632 18.2819 137.014 18.3583 137.51 18.3583C137.758 18.3583 138.016 18.3392 138.283 18.301C138.55 18.2437 138.817 18.1674 139.084 18.0719C139.37 17.9383 139.561 17.8237 139.656 17.7283C139.752 17.6137 139.733 17.5183 139.599 17.4419H139.628C139.132 17.3083 138.626 17.0983 138.111 16.8119C137.615 16.5065 137.186 16.1819 136.823 15.8383C136.461 15.4756 136.251 15.151 136.194 14.8647C136.041 14.2728 136.079 13.6715 136.308 13.0606C136.537 12.4306 136.861 11.8769 137.281 11.3997C137.434 11.3042 137.625 11.1897 137.853 11.056C138.082 10.9033 138.264 10.8174 138.397 10.7983V10.8269C138.76 10.4451 139.199 10.1397 139.714 9.91056C140.248 9.68147 140.811 9.47147 141.402 9.28056L141.831 9.22329C142.06 9.18511 142.251 9.16602 142.404 9.16602C142.385 9.16602 142.423 9.18511 142.518 9.22329C142.614 9.24238 142.7 9.26147 142.776 9.28056C142.89 9.33783 142.986 9.36647 143.062 9.36647C143.31 9.40465 143.539 9.5192 143.749 9.71011C143.959 9.90102 144.121 10.1301 144.235 10.3974C144.369 10.6456 144.417 10.8842 144.378 11.1133C144.34 11.476 144.226 11.8006 144.035 12.0869C143.863 12.3733 143.653 12.5356 143.405 12.5737C143.444 12.5547 143.415 12.526 143.32 12.4878C143.243 12.4306 143.157 12.3733 143.062 12.316L142.976 12.3733C142.976 12.3733 142.967 12.3542 142.948 12.316C142.948 12.2587 142.928 12.1919 142.89 12.1156C142.833 12.001 142.804 11.8769 142.804 11.7433C142.804 11.5906 142.814 11.4283 142.833 11.2565C142.871 11.0465 142.871 10.9224 142.833 10.8842C142.814 10.846 142.69 10.8174 142.461 10.7983C142.194 10.741 141.803 10.7887 141.288 10.9415C140.792 11.0942 140.372 11.3042 140.028 11.5715C139.609 11.8387 139.256 12.0965 138.97 12.3447C138.683 12.5737 138.454 12.8028 138.283 13.0319C138.111 13.2419 137.958 13.4901 137.825 13.7765C137.729 13.9101 137.644 14.0437 137.567 14.1774C137.51 14.2919 137.481 14.3969 137.481 14.4924C137.481 14.7024 137.634 14.9219 137.939 15.151C138.264 15.361 138.741 15.6092 139.37 15.8956C139.866 16.1056 140.286 16.3347 140.629 16.5828C140.973 16.831 141.211 17.1174 141.345 17.4419C141.383 17.5183 141.393 17.6137 141.374 17.7283C141.374 17.8237 141.354 17.8906 141.316 17.9287C141.354 17.9669 141.374 17.9956 141.374 18.0147V17.986C141.526 18.2151 141.526 18.4537 141.374 18.7019C141.24 18.9501 141.002 19.1697 140.658 19.3606C140.334 19.5324 139.933 19.666 139.456 19.7615H139.485C139.237 19.8378 138.989 19.8951 138.741 19.9333C138.512 19.9524 138.292 19.9619 138.082 19.9619Z" fill="#35C759"/>
<path fill-rule="evenodd" clip-rule="evenodd" d="M24.5508 65.7862C31.2276 72.776 39.4414 78.9761 48.8152 81.2988C52.2258 82.1446 55.6243 82.1764 59.1033 82.2406C59.3473 82.2457 59.55 82.0504 59.5552 81.8054C59.5593 81.5597 59.3643 81.3567 59.1189 81.3529C55.7071 81.2893 52.3733 81.2657 49.0287 80.4366C39.7879 78.1469 31.7053 72.0086 25.1336 65.1117L25.2315 65.0022C26.2975 63.8135 26.5653 61.6645 26.237 59.2127C25.7667 55.6982 24.1194 51.554 22.2708 48.9626C21.4399 47.7984 20.5594 46.9448 19.731 46.5588C19.0852 46.2575 18.4592 46.223 17.8836 46.4822C16.6574 47.0355 16.2193 48.512 16.4256 50.4541C16.8559 54.5159 19.9728 60.6859 21.9969 62.9949C22.6293 63.7155 23.2774 64.4327 23.9418 65.1416C23.76 65.356 23.5811 65.5647 23.398 65.7601C22.8746 66.315 22.3065 66.7649 21.4404 66.9196C20.0904 67.1588 18.6738 66.819 17.3098 66.2056C15.1818 65.2466 13.1849 63.6119 11.7501 62.2986C3.75995 54.984 1.51527 46.0376 1.43218 37.7555C1.34973 29.3913 3.46214 21.6947 4.15831 16.9775C4.1946 16.7349 4.02636 16.51 3.78394 16.4737C3.54153 16.4374 3.31563 16.6053 3.28046 16.8483C2.57943 21.5959 0.461258 29.3446 0.545406 37.7647C0.628925 46.2668 2.9488 55.445 11.1502 62.9541C12.6446 64.3226 14.7289 66.0166 16.945 67.0157C18.4793 67.7061 20.0768 68.0631 21.5961 67.7939C22.9594 67.5508 23.7322 66.7363 24.5508 65.7862ZM24.5223 64.4626L24.5716 64.4085C25.5036 63.3701 25.6443 61.4747 25.3569 59.3309C24.9051 55.9537 23.3251 51.97 21.5475 49.4789C20.9385 48.6244 20.31 47.9491 19.6939 47.5517C19.1854 47.2246 18.6959 47.0902 18.249 47.2926C17.826 47.4819 17.5651 47.8462 17.4186 48.3211C17.2455 48.8782 17.225 49.5754 17.3078 50.3599C17.7217 54.2629 20.719 60.1905 22.6642 62.4089C23.2688 63.0974 23.8878 63.7829 24.5223 64.4626Z" fill="#35C759"/>
<path fill-rule="evenodd" clip-rule="evenodd" d="M60.596 81.2769C60.5009 81.4468 60.3041 81.6352 60.09 81.835C59.5805 82.3123 58.9221 82.7832 58.6207 83.018C58.4272 83.1688 58.3939 83.4482 58.5441 83.6416C58.6953 83.8351 58.974 83.8694 59.1676 83.7186C59.5363 83.4304 60.4126 82.8016 60.9609 82.2225C61.2548 81.912 61.4552 81.6021 61.5136 81.3513C61.6137 80.9256 61.369 80.561 60.7133 80.3669C59.9375 80.1378 58.384 80.0633 57.3365 79.2138C57.1468 79.0598 56.8659 79.0897 56.7127 79.2793C56.5579 79.4703 56.5871 79.7503 56.7779 79.9049C57.777 80.7143 59.1756 80.9301 60.0997 81.1299C60.2752 81.1674 60.4769 81.2349 60.596 81.2769Z" fill="#35C759"/>
</g>
<defs>
<clipPath id="clip0_4381_26300">
<rect width="145" height="84" fill="white"/>
</clipPath>
</defs>
</svg>
