<svg width="84" height="64" viewBox="0 0 84 64" fill="none" xmlns="http://www.w3.org/2000/svg">
<g clip-path="url(#clip0_4381_26345)">
<path d="M35.1405 11.1573H59.594V1.35507C59.594 0.607044 60.1945 0 60.9344 0C61.297 0 61.6251 0.144297 61.8663 0.379817L83.5258 18.9709C84.0902 19.4536 84.1607 20.3078 83.6833 20.8767C83.6308 20.9414 83.5734 20.9977 83.5111 21.0492L61.799 39.6851C61.2346 40.1677 60.3897 40.0964 59.9139 39.5259C59.7087 39.282 59.5964 38.972 59.5973 38.6518L59.594 28.8495H35.1405C34.4006 28.8495 33.8001 28.2425 33.8001 27.4944V12.5141C33.8001 11.7644 34.4006 11.1573 35.1405 11.1573ZM47.5174 37.8639H23.0655C22.3256 37.8639 21.7251 37.2569 21.7251 36.5072V28.2756L3.40589 43.9974L21.7251 59.7208V51.4876C21.7251 50.7396 22.3256 50.1325 23.0655 50.1325H47.5174V37.8639ZM24.4059 35.1521H48.8594C49.5993 35.1521 50.1998 35.7592 50.1998 36.5072V51.4876C50.1998 52.2373 49.5993 52.8443 48.8594 52.8443H24.4059V62.6466C24.4035 62.9668 24.2903 63.276 24.086 63.5207C23.6102 64.0896 22.7653 64.1609 22.2009 63.6799L0.488861 45.044C0.426517 44.9926 0.369095 44.9345 0.316595 44.8715C-0.160827 44.3009 -0.0902801 43.4468 0.474095 42.9658L22.1336 24.3746C22.3835 24.1302 22.7178 23.994 23.0655 23.9948C23.8054 23.9948 24.4059 24.6019 24.4059 25.3499V35.1521ZM60.9344 13.8691H36.4825V26.1377H60.9344C61.676 26.1377 62.2764 26.7448 62.2764 27.4944V35.7277L80.594 20.0042L62.2764 4.28082V12.5141C62.2764 13.2621 61.676 13.8691 60.9344 13.8691Z" fill="#064D51"/>
</g>
<defs>
<clipPath id="clip0_4381_26345">
<rect width="84" height="64" fill="white"/>
</clipPath>
</defs>
</svg>
