<svg width="106" height="123" viewBox="0 0 106 123" fill="none" xmlns="http://www.w3.org/2000/svg">
<path fill-rule="evenodd" clip-rule="evenodd" d="M11.1699 37.16H94.6499C95.3206 37.1332 95.992 37.187 96.6499 37.32C97.7373 37.5593 98.7354 38.0999 99.5299 38.88C100.453 39.7654 101.034 40.9483 101.17 42.22C101.195 42.7008 101.175 43.183 101.11 43.66L93.9999 117.31V117.44V117.72C93.9529 118.024 93.8861 118.325 93.7999 118.62V118.68C93.4228 119.842 92.6937 120.858 91.7137 121.587C90.7337 122.316 89.5511 122.723 88.3299 122.75H17.3199C16.8978 122.73 16.479 122.666 16.0699 122.56C15.6679 122.44 15.2792 122.279 14.9099 122.08C14.0382 121.579 13.3021 120.872 12.7653 120.022C12.2286 119.171 11.9075 118.203 11.8299 117.2L4.82991 43.71C4.75003 43.1605 4.72991 42.6039 4.76991 42.05C4.9098 40.7959 5.48689 39.6311 6.39991 38.76C7.2272 37.9559 8.2688 37.4073 9.39991 37.18C9.9907 37.0767 10.5904 37.0332 11.1899 37.05L11.1699 37.16ZM5.64991 8.8H37.1199V6C37.1149 5.91007 37.1149 5.81993 37.1199 5.73C37.1829 4.22283 37.8113 2.79468 38.8799 1.73C40.0016 0.622772 41.5138 0.00134125 43.0899 0L62.4599 0H62.7599C64.2986 0.0770318 65.7488 0.743021 66.8099 1.86C67.871 2.97698 68.4618 4.45934 68.4599 6V8.8H100.46H100.85C101.982 8.89263 103.043 9.39243 103.836 10.2069C104.628 11.0214 105.098 12.0953 105.16 13.23C105.16 13.41 105.16 13.55 105.16 13.73V23.59C105.16 24.2769 104.887 24.9357 104.401 25.4214C103.916 25.9071 103.257 26.18 102.57 26.18H2.58991C1.90816 26.18 1.25389 25.9113 0.769026 25.432C0.28416 24.9528 0.00780357 24.3017 -9.30801e-05 23.62V13.53C-0.0103856 13.4269 -0.0103856 13.3231 -9.30801e-05 13.22C0.068418 12.167 0.487823 11.1673 1.19114 10.3806C1.89445 9.5939 2.84111 9.06557 3.87991 8.88C4.46656 8.80303 5.05871 8.77627 5.64991 8.8ZM47.7499 61.5C47.8706 60.3255 48.4226 59.2376 49.2991 58.4466C50.1756 57.6556 51.3143 57.2177 52.4949 57.2177C53.6755 57.2177 54.8142 57.6556 55.6907 58.4466C56.5672 59.2376 57.1192 60.3255 57.2399 61.5V98.5C57.1192 99.6745 56.5672 100.762 55.6907 101.553C54.8142 102.344 53.6755 102.782 52.4949 102.782C51.3143 102.782 50.1756 102.344 49.2991 101.553C48.4226 100.762 47.8706 99.6745 47.7499 98.5V61.5ZM71.4799 61.3C71.6111 60.1013 72.2096 59.0027 73.1457 58.2426C74.0818 57.4825 75.2799 57.1223 76.4799 57.24C77.0694 57.2347 77.6542 57.3461 78.2005 57.5678C78.7468 57.7894 79.2438 58.1169 79.663 58.5315C80.0822 58.946 80.4153 59.4394 80.643 59.9832C80.8707 60.527 80.9886 61.1105 80.9899 61.7L78.9899 98.7C78.8613 99.8997 78.2634 101 77.3267 101.761C76.39 102.521 75.1905 102.88 73.9899 102.76C73.4004 102.765 72.8156 102.654 72.2693 102.432C71.723 102.211 71.226 101.883 70.8068 101.469C70.3876 101.054 70.0546 100.561 69.8268 100.017C69.5991 99.473 69.4812 98.8895 69.4799 98.3L71.4799 61.3ZM24.9999 61.7C24.9999 61.1109 25.1166 60.5277 25.3432 59.9839C25.5698 59.4402 25.9019 58.9468 26.3203 58.5321C26.7387 58.1174 27.2351 57.7897 27.7809 57.5679C28.3266 57.3462 28.9109 57.2347 29.4999 57.24C30.7 57.1223 31.898 57.4825 32.8341 58.2426C33.7702 59.0027 34.3688 60.1013 34.4999 61.3L36.4999 98.3C36.4986 98.8895 36.3807 99.473 36.153 100.017C35.9253 100.561 35.5922 101.054 35.173 101.469C34.7538 101.883 34.2568 102.211 33.7105 102.432C33.1642 102.654 32.5794 102.765 31.9899 102.76C30.7893 102.88 29.5898 102.521 28.6531 101.761C27.7164 101 27.1185 99.8997 26.9899 98.7L24.9899 61.7H24.9999Z" fill="#F24822"/>
</svg>
