<svg width="258" height="281" viewBox="0 0 258 281" fill="none" xmlns="http://www.w3.org/2000/svg">
<path fill-rule="evenodd" clip-rule="evenodd" d="M221.576 202.621L221.418 204.044L221.216 205.461L220.969 206.869L220.676 208.267L220.337 209.651L219.952 211.022L219.522 212.377L219.046 213.715L218.527 215.035L217.967 216.337L217.366 217.62L216.727 218.884L216.052 220.13L215.344 221.359L214.605 222.571L213.839 223.768L213.048 224.953L212.235 226.126L211.403 227.291L210.555 228.449L209.692 229.603L208.817 230.757L207.932 231.91L207.037 233.066L206.132 234.226L205.219 235.391L204.298 236.562L203.368 237.741L202.429 238.928L201.481 240.124L200.525 241.331L199.56 242.55L198.585 243.781L197.6 245.026L196.604 246.285L195.596 247.558L194.575 248.846L193.54 250.148L192.49 251.464L191.424 252.792L190.339 254.132L189.234 255.482L188.107 256.841L186.958 258.204L185.783 259.571L184.582 260.936L183.352 262.298L182.093 263.651L180.802 264.991L179.479 266.313L178.123 267.613L176.733 268.885L175.307 270.123L173.846 271.321L172.351 272.474L170.82 273.576L169.255 274.62L167.657 275.6L166.026 276.512L164.366 277.348L162.676 278.103L160.961 278.773L159.222 279.351L157.463 279.835L155.686 280.218L153.895 280.498L152.093 280.671L150.286 280.735L148.476 280.688L146.667 280.528L144.865 280.254L143.072 279.866L141.294 279.365L139.535 278.752L137.799 278.029L136.089 277.198L134.41 276.263L132.764 275.229L131.156 274.1L129.588 272.882L128.062 271.582L126.581 270.206L125.146 268.762L123.758 267.257L122.418 265.7L121.126 264.098L119.881 262.458L118.685 260.789L117.535 259.097L116.43 257.389L115.369 255.673L114.351 253.954L113.372 252.239L112.431 250.533L111.526 248.84L110.653 247.167L109.811 245.515L108.997 243.889L108.207 242.293L107.44 240.729L106.691 239.201L105.958 237.711L105.238 236.263L104.525 234.858L103.818 233.498L103.112 232.186L102.404 230.923L101.69 229.71L100.967 228.548L100.23 227.437L99.4777 226.378L98.705 225.371L97.9092 224.415L97.0872 223.508L96.236 222.651L95.3529 221.842L94.4351 221.079L93.4802 220.36L92.4861 219.684L91.4507 219.047L90.3721 218.447L89.2488 217.882L88.0793 217.348L86.8626 216.844L85.5976 216.364L84.2837 215.907L82.9203 215.468L81.5072 215.045L80.0443 214.635L78.5317 214.232L76.9698 213.835L75.3593 213.44L73.7008 213.042L71.9955 212.639L70.2444 212.227L68.4491 211.803L66.6113 211.363L64.7327 210.904L62.8154 210.423L60.8617 209.917L58.874 209.382L56.8551 208.815L54.8077 208.214L52.7348 207.575L50.6396 206.897L48.5253 206.177L46.3952 205.412L44.2527 204.601L42.1011 203.741L39.9437 202.832L37.7839 201.871L35.6251 200.857L33.4709 199.789L31.3249 198.667L29.1914 197.488L27.0753 196.253L24.9821 194.959L22.918 193.608L20.8897 192.196L18.9045 190.726L16.9702 189.195L15.0952 187.605L13.2882 185.956L11.5587 184.248L9.91641 182.484L8.37169 180.664L6.93508 178.792L5.61676 176.87L4.42634 174.901L3.37265 172.891L2.46376 170.842L1.70683 168.761L1.10805 166.654L0.67258 164.525L0.40442 162.381L0.306391 160.23L0.380057 158.077L0.625718 155.929L1.0424 153.793L1.62783 151.675L2.37848 149.582L3.28963 147.52L4.35531 145.495L5.56848 143.511L6.92101 141.574L8.40377 139.689L10.0068 137.858L11.7192 136.085L13.5295 134.372L15.4256 132.721L17.3949 131.132L19.4244 129.605L21.5009 128.139L23.6109 126.734L25.7411 125.386L27.8782 124.092L30.0091 122.849L32.1211 121.651L34.2019 120.494L36.2397 119.372L38.2236 118.278L40.143 117.205L41.9887 116.147L43.752 115.096L45.4255 114.044L47.0026 112.983L48.4781 111.905L49.8477 110.803L51.1085 109.669L52.2588 108.495L53.2982 107.275L54.2272 106.002L55.0479 104.671L55.7634 103.275L56.378 101.81L56.897 100.272L57.3268 98.6595L57.6747 96.9689L57.9488 95.1996L58.1579 93.3515L58.3116 91.4254L58.4197 89.4231L58.4927 87.3473L58.5411 85.202L58.5757 82.9916L58.6066 80.7211L58.6434 78.3957L58.6952 76.0211L58.7705 73.6031L58.8773 71.1478L59.0228 68.6613L59.2135 66.1497L59.4552 63.619L59.7531 61.0754L60.1114 58.5242L60.5336 55.9709L61.0225 53.4203L61.5802 50.8768L62.2085 48.345L62.9091 45.8295L63.6832 43.335L64.532 40.8661L65.4563 38.4276L66.4567 36.0243L67.5336 33.6609L68.6871 31.3421L69.9171 29.0727L71.2231 26.8575L72.6045 24.701L74.0604 22.608L75.5899 20.583L77.1914 18.6306L78.8634 16.755L80.6042 14.9607L82.4115 13.2518L84.2833 11.6322L86.217 10.106L88.2098 8.67659L90.2589 7.34755L92.3611 6.12205L94.513 5.00303L96.7113 3.99315L98.9522 3.09478L101.232 2.30996L103.546 1.6404L105.892 1.08747L108.263 0.652175L110.657 0.335156L113.069 0.136677L115.495 0.0566289L117.93 0.0945286L120.37 0.249527L122.81 0.520414L125.246 0.905634L127.675 1.4033L130.091 2.01122L132.492 2.72691L134.872 3.5476L137.229 4.47032L139.558 5.49184L141.857 6.60879L144.121 7.81758L146.349 9.11454L148.537 10.4958L150.682 11.9575L152.783 13.4956L154.836 15.1059L156.84 16.7843L158.792 18.5264L160.693 20.3277L162.538 22.1836L164.329 24.0893L166.064 26.0401L167.741 28.0311L169.362 30.0572L170.925 32.1133L172.431 34.1936L173.881 36.292L175.276 38.402L176.616 40.5169L177.905 42.6295L179.145 44.7324L180.338 46.8181L181.489 48.8786L182.601 50.9062L183.678 52.8925L184.727 54.8295L185.753 56.7088L186.761 58.5228L187.759 60.2643L188.753 61.9272L189.749 63.5061L190.755 64.9968L191.777 66.3958L192.821 67.7009L193.893 68.911L195 70.0257L196.146 71.046L197.338 71.9735L198.578 72.8109L199.871 73.562L201.221 74.2311L202.629 74.8235L204.098 75.3454L205.629 75.8032L207.221 76.2044L208.875 76.5569L210.588 76.8688L212.359 77.1489L214.185 77.4062L216.06 77.6497L217.982 77.8889L219.944 78.1328L221.939 78.3908L223.961 78.6719L226.002 78.9848L228.054 79.3379L230.107 79.7393L232.154 80.1965L234.183 80.7163L236.186 81.305L238.151 81.9682L240.07 82.7105L241.932 83.5362L243.726 84.4481L245.444 85.4486L247.077 86.5391L248.614 87.7199L250.049 88.9907L251.373 90.3501L252.58 91.796L253.664 93.3253L254.62 94.9342L255.443 96.6184L256.132 98.3725L256.683 100.191L257.097 102.067L257.374 103.995L257.514 105.968L257.521 107.977L257.399 110.017L257.15 112.08L256.781 114.158L256.298 116.244L255.709 118.332L255.02 120.415L254.24 122.487L253.377 124.541L252.439 126.573L251.435 128.579L250.372 130.554L249.258 132.495L248.102 134.398L246.911 136.262L245.693 138.084L244.454 139.863L243.201 141.598L241.941 143.288L240.678 144.934L239.419 146.534L238.168 148.09L236.932 149.602L235.716 151.072L234.524 152.5L233.361 153.889L232.233 155.239L231.144 156.554L230.098 157.835L229.099 159.084L228.15 160.305L227.255 161.501L226.416 162.674L225.634 163.827L224.913 164.965L224.253 166.089L223.654 167.203L223.117 168.311L222.641 169.416L222.227 170.52L221.871 171.627L221.572 172.74L221.329 173.861L221.139 174.993L220.997 176.138L220.901 177.297L220.848 178.474L220.832 179.668L220.849 180.882L220.894 182.116L220.964 183.37L221.051 184.645L221.152 185.94L221.261 187.255L221.373 188.59L221.482 189.942L221.583 191.311L221.672 192.695L221.744 194.092L221.794 195.5L221.817 196.917L221.81 198.34L221.77 199.767L221.693 201.195L221.576 202.621Z" fill="#F5F7FA"/>
</svg>
