<svg width="25" height="24" viewBox="0 0 25 24" fill="none" xmlns="http://www.w3.org/2000/svg">
<path d="M23.1992 6.77775V12.9998C23.1992 13.2061 23.1164 13.4039 22.9691 13.5497C22.8217 13.6956 22.6219 13.7775 22.4135 13.7775C22.2051 13.7775 22.0053 13.6956 21.8579 13.5497C21.7106 13.4039 21.6278 13.2061 21.6278 12.9998V8.65506L13.541 16.6611C13.468 16.7334 13.3814 16.7907 13.286 16.8299C13.1906 16.869 13.0884 16.8892 12.9851 16.8892C12.8819 16.8892 12.7796 16.869 12.6842 16.8299C12.5889 16.7907 12.5022 16.7334 12.4292 16.6611L9.05664 13.3216L2.54124 19.7721C2.39381 19.918 2.19385 20 1.98536 20C1.77686 20 1.5769 19.918 1.42947 19.7721C1.28204 19.6261 1.19922 19.4282 1.19922 19.2218C1.19922 19.0154 1.28204 18.8175 1.42947 18.6716L8.50076 11.6718C8.57373 11.5995 8.66039 11.5421 8.75577 11.503C8.85115 11.4638 8.95339 11.4437 9.05664 11.4437C9.1599 11.4437 9.26214 11.4638 9.35752 11.503C9.4529 11.5421 9.53955 11.5995 9.61253 11.6718L12.9851 15.0112L20.517 7.55551H16.1279C15.9195 7.55551 15.7197 7.47357 15.5723 7.32771C15.425 7.18185 15.3422 6.98403 15.3422 6.77775C15.3422 6.57148 15.425 6.37366 15.5723 6.2278C15.7197 6.08194 15.9195 6 16.1279 6H22.4135C22.6219 6 22.8217 6.08194 22.9691 6.2278C23.1164 6.37366 23.1992 6.57148 23.1992 6.77775Z" fill="black"/>
</svg>
