<svg width="24" height="24" viewBox="0 0 24 24" fill="none" xmlns="http://www.w3.org/2000/svg">
<path d="M14 4.09961L12 5.99961" stroke="black" stroke-width="1.5" stroke-linecap="round" stroke-linejoin="round"/>
<path d="M5.09922 8.0002L2.19922 7.2002" stroke="black" stroke-width="1.5" stroke-linecap="round" stroke-linejoin="round"/>
<path d="M6.00156 12L4.10156 14" stroke="black" stroke-width="1.5" stroke-linecap="round" stroke-linejoin="round"/>
<path d="M7.19922 2.2002L7.99922 5.1002" stroke="black" stroke-width="1.5" stroke-linecap="round" stroke-linejoin="round"/>
<path d="M9.03569 9.68966C8.99691 9.59832 8.98631 9.49747 9.00524 9.40005C9.02418 9.30264 9.07178 9.2131 9.14195 9.14293C9.21213 9.07276 9.30166 9.02515 9.39908 9.00622C9.49649 8.98728 9.59734 8.99789 9.68869 9.03666L20.6887 13.5367C20.7866 13.5768 20.8692 13.647 20.9247 13.7371C20.9802 13.8272 21.0056 13.9326 20.9974 14.0381C20.9892 14.1436 20.9477 14.2438 20.8789 14.3242C20.8101 14.4046 20.7176 14.4612 20.6147 14.4857L16.2657 15.5267C16.0862 15.5695 15.922 15.6613 15.7914 15.7917C15.6608 15.9221 15.5688 16.0862 15.5257 16.2657L14.4857 20.6157C14.4614 20.719 14.405 20.8119 14.3245 20.8809C14.2439 20.95 14.1435 20.9917 14.0377 20.9999C13.932 21.0082 13.8263 20.9826 13.7361 20.9268C13.6458 20.871 13.5756 20.788 13.5357 20.6897L9.03569 9.68966Z" stroke="black" stroke-width="1.5" stroke-linecap="round" stroke-linejoin="round"/>
</svg>
