<svg width="26" height="24" viewBox="0 0 26 24" fill="none" xmlns="http://www.w3.org/2000/svg">
<g clip-path="url(#clip0_4041_26113)">
<path d="M19.0687 8.50636V8C19.0687 5.72 15.2857 4 10.2688 4C5.25175 4 1.46875 5.72 1.46875 8V11.6364C1.46875 13.5355 4.09375 15.0445 7.86875 15.4964V16C7.86875 18.28 11.6517 20 16.6687 20C21.6857 20 25.4687 18.28 25.4687 16V12.3636C25.4687 10.4818 22.9267 8.97091 19.0687 8.50636ZM23.8687 12.3636C23.8687 13.5655 20.7897 14.9091 16.6687 14.9091C16.2957 14.9091 15.9257 14.8973 15.5607 14.8755C17.7177 14.1609 19.0687 13 19.0687 11.6364V9.97636C22.0557 10.3809 23.8687 11.4791 23.8687 12.3636ZM7.86875 14.0227V11.86C8.66452 11.9543 9.46624 12.001 10.2688 12C11.0712 12.001 11.8729 11.9543 12.6687 11.86V14.0227C11.8741 14.1294 11.0719 14.1826 10.2688 14.1818C9.46553 14.1826 8.66334 14.1294 7.86875 14.0227ZM17.4687 10.3573V11.6364C17.4687 12.3991 16.2277 13.2182 14.2687 13.7155V11.5909C15.5597 11.3064 16.6527 10.8827 17.4687 10.3573ZM10.2688 5.45455C14.3897 5.45455 17.4687 6.79818 17.4687 8C17.4687 9.20182 14.3897 10.5455 10.2688 10.5455C6.14775 10.5455 3.06875 9.20182 3.06875 8C3.06875 6.79818 6.14775 5.45455 10.2688 5.45455ZM3.06875 11.6364V10.3573C3.88475 10.8827 4.97775 11.3064 6.26875 11.5909V13.7155C4.30975 13.2182 3.06875 12.3991 3.06875 11.6364ZM9.46875 16V15.6209C9.73175 15.63 9.99775 15.6364 10.2688 15.6364C10.6568 15.6364 11.0357 15.6245 11.4077 15.6045C11.821 15.739 12.2419 15.8531 12.6687 15.9464V18.0791C10.7098 17.5818 9.46875 16.7627 9.46875 16ZM14.2687 18.3864V16.2182C15.0642 16.3154 15.866 16.364 16.6687 16.3636C17.4712 16.3647 18.2729 16.3179 19.0687 16.2236V18.3864C17.4772 18.5985 15.8602 18.5985 14.2687 18.3864ZM20.6687 18.0791V15.9545C21.9597 15.67 23.0527 15.2464 23.8687 14.7209V16C23.8687 16.7627 22.6277 17.5818 20.6687 18.0791Z" fill="black"/>
</g>
<defs>
<clipPath id="clip0_4041_26113">
<rect width="25" height="24" fill="white" transform="translate(0.800781)"/>
</clipPath>
</defs>
</svg>
