<svg width="24" height="25" viewBox="0 0 24 25" fill="none" xmlns="http://www.w3.org/2000/svg">
<path d="M16.707 19.2074C16.5184 19.3896 16.2658 19.4904 16.0036 19.4881C15.7414 19.4858 15.4906 19.3806 15.3052 19.1952C15.1198 19.0098 15.0146 18.759 15.0123 18.4968C15.01 18.2346 15.1108 17.982 15.293 17.7934L19.586 13.5004H2C1.73478 13.5004 1.48043 13.3951 1.29289 13.2075C1.10536 13.02 1 12.7656 1 12.5004C1 12.2352 1.10536 11.9808 1.29289 11.7933C1.48043 11.6058 1.73478 11.5004 2 11.5004H19.586L15.293 7.20741C15.1108 7.01881 15.01 6.7662 15.0123 6.50401C15.0146 6.24181 15.1198 5.991 15.3052 5.80559C15.4906 5.62018 15.7414 5.51501 16.0036 5.51273C16.2658 5.51045 16.5184 5.61125 16.707 5.79341L22.707 11.7934C22.8945 11.9809 22.9998 12.2352 22.9998 12.5004C22.9998 12.7656 22.8945 13.0199 22.707 13.2074L16.707 19.2074Z" fill="black"/>
</svg>
