<svg width="28" height="28" viewBox="0 0 28 28" fill="none" xmlns="http://www.w3.org/2000/svg">
<g clip-path="url(#clip0_4248_27232)">
<path d="M14 0C17.8653 0 21.3659 1.56734 23.899 4.10102C26.4327 6.63414 28 10.1347 28 14C28 17.8659 26.4327 21.3659 23.899 23.899C21.3659 26.4327 17.8659 28 14 28C10.1347 28 6.63414 26.4327 4.10102 23.899C1.56734 21.3659 0 17.8653 0 14C0 10.1347 1.56734 6.63414 4.10102 4.10102C6.63414 1.56734 10.1347 0 14 0ZM9.27719 12.8729L10.0778 11.0693H13.0982C12.9073 10.4295 12.1587 10.0685 11.532 10.0685H9.27719L10.0778 8.26492H18.7228L17.9222 10.0685H15.8342C16.1109 10.2812 16.4079 10.7193 16.4598 11.0693H18.7228L17.9222 12.8729H16.2848C15.7566 14.2182 14.1449 15.132 12.7701 15.33L17.3124 20.0063H13.7211L9.67094 15.5624V13.9059H11.4636C11.6359 13.9059 11.8054 13.8791 11.9722 13.8212C12.4091 13.6735 12.8811 13.329 13.0271 12.8729H9.27719ZM22.5903 5.40914C20.3924 3.21125 17.3551 1.85172 14 1.85172C10.6449 1.85172 7.60758 3.21125 5.40914 5.40914C3.21125 7.60758 1.85172 10.6449 1.85172 14C1.85172 17.3551 3.21125 20.3924 5.40914 22.5909C7.60758 24.7887 10.6449 26.1483 14 26.1483C17.3551 26.1483 20.3924 24.7887 22.5903 22.5909C24.7887 20.393 26.1483 17.3551 26.1483 14C26.1483 10.6449 24.7887 7.60758 22.5903 5.40914Z" fill="black"/>
</g>
<defs>
<clipPath id="clip0_4248_27232">
<rect width="28" height="28" fill="white"/>
</clipPath>
</defs>
</svg>
