<svg width="19" height="28" viewBox="0 0 19 28" fill="none" xmlns="http://www.w3.org/2000/svg">
<g clip-path="url(#clip0_4248_27228)">
<path d="M5.95218 18.3591C5.92757 18.3454 5.89624 18.3271 5.86939 18.3066C5.53598 18.0378 5.169 17.7347 4.85349 17.4727C4.39253 17.0876 3.86221 16.6432 3.49075 16.3288C3.2379 16.1169 2.94924 15.9688 2.67848 15.9118C2.50171 15.8799 2.34507 15.8799 2.21752 15.93C2.11683 15.9756 2.02732 16.0576 1.97138 16.1875C1.8953 16.3607 1.85726 16.6045 1.8774 16.9395C1.8953 17.2357 1.99823 17.557 2.13026 17.8714C2.32493 18.3271 2.59793 18.751 2.79932 19.0199C2.81274 19.0381 2.82393 19.0518 2.83064 19.0723L6.82263 24.8783C6.8741 24.9557 6.90543 25.04 6.9099 25.1221C6.9927 25.7897 7.13143 26.2979 7.33282 26.6123C7.48498 26.8424 7.67295 26.9587 7.91909 26.9518H14.2002C14.5918 26.945 14.9454 26.8311 15.2721 26.5986C15.6323 26.348 15.9523 25.9561 16.2499 25.4297C16.2566 25.4229 16.2633 25.4115 16.2678 25.4046C16.3819 25.2064 16.5319 24.9489 16.6773 24.7051C17.315 23.6387 17.87 22.7067 17.9326 21.3851L17.8946 19.5622C17.8879 19.5371 17.8879 19.5098 17.8879 19.4847C17.8879 19.4596 17.8879 19.2865 17.8946 19.054C17.908 17.8464 17.9259 16.3561 16.8407 16.1716H16.1403C16.1336 16.5111 16.1157 16.8597 16.0955 17.1924C16.0776 17.4932 16.0575 17.7757 16.0575 18.0537C16.0575 18.3499 15.8248 18.5869 15.5339 18.5869C15.243 18.5869 15.0102 18.3499 15.0102 18.0537C15.0102 17.778 15.0281 17.4567 15.0483 17.1217C15.1177 15.9847 15.2004 14.6813 14.3099 14.5218H13.6162C13.5781 14.5218 13.5401 14.515 13.5021 14.5081C13.5088 14.9183 13.4842 15.3421 13.4573 15.7546C13.4439 16.0553 13.426 16.3379 13.426 16.6136C13.426 16.9098 13.1933 17.1468 12.9024 17.1468C12.6115 17.1468 12.3788 16.9098 12.3788 16.6136C12.3788 16.3379 12.3967 16.0166 12.4168 15.6816C12.4862 14.5446 12.569 13.2412 11.6784 13.0817H10.9847C10.9332 13.0817 10.8907 13.0749 10.846 13.0635V15.137C10.846 15.4333 10.6132 15.6702 10.3223 15.6702C10.0314 15.6702 9.79873 15.4333 9.79873 15.137V9.56804C9.79873 8.63607 9.42727 8.0459 8.94841 7.80208C8.77164 7.71094 8.58368 7.66764 8.40019 7.66764C8.2167 7.66764 8.02874 7.71322 7.85196 7.80208C7.37981 8.0459 7.01284 8.63607 7.01284 9.5931V19.348C7.01284 19.6442 6.78012 19.8812 6.48922 19.8812C6.19833 19.8812 5.96561 19.6442 5.96561 19.348V18.3591H5.95218ZM8.79178 3.18783C8.79178 3.54102 8.50983 3.82129 8.16971 3.82129C7.82287 3.82129 7.54764 3.53418 7.54764 3.18783V0.633464C7.54764 0.280273 7.82958 0 8.16971 0C8.51655 0 8.79178 0.287109 8.79178 0.633464V3.18783ZM3.13049 8.4196C3.47733 8.4196 3.75256 8.70671 3.75256 9.05306C3.75256 9.40625 3.47062 9.68652 3.13049 9.68652H0.62207C0.275233 9.68425 0 9.39714 0 9.05306C0 8.69987 0.281946 8.4196 0.62207 8.4196H3.13049ZM4.90496 4.63249C5.14663 4.87858 5.14663 5.2819 4.90496 5.528C4.66329 5.77409 4.26722 5.77409 4.02556 5.528L2.2578 3.72103C2.01613 3.47494 2.01613 3.07161 2.2578 2.82552C2.49947 2.57943 2.89554 2.57943 3.1372 2.82552L4.90496 4.63249ZM13.0836 9.68425C12.7368 9.68425 12.4615 9.39714 12.4615 9.05078C12.4615 8.69759 12.7435 8.41732 13.0836 8.41732H15.592C15.9389 8.41732 16.2141 8.70443 16.2141 9.05078C16.2141 9.40397 15.9322 9.68425 15.592 9.68425H13.0836ZM12.1886 5.389C11.9469 5.63509 11.5508 5.63509 11.3091 5.389C11.0675 5.1429 11.0675 4.73958 11.3091 4.49349L13.0769 2.68652C13.3186 2.44043 13.7146 2.44043 13.9563 2.68652C14.198 2.93262 14.198 3.33594 13.9563 3.58203L12.1886 5.389ZM10.846 12.029C10.8907 12.0153 10.9332 12.0107 10.9847 12.0107H11.7097C11.7477 12.0107 11.7925 12.0176 11.8283 12.0244C12.7927 12.1794 13.2291 12.7513 13.4058 13.4941C13.4752 13.4622 13.5513 13.4417 13.6274 13.4417H14.3524C14.3904 13.4417 14.4352 13.4486 14.471 13.4554C15.5115 13.6217 15.9277 14.2712 16.0798 15.0938C16.1045 15.0869 16.1313 15.0869 16.1626 15.0869H16.8876C16.9257 15.0869 16.9704 15.0938 17.0085 15.1006C19.0022 15.415 18.9754 17.4316 18.9575 19.0563V19.4801L19.0022 21.3555V21.4124C18.9262 23.012 18.3086 24.0466 17.597 25.2406C17.4761 25.4388 17.3576 25.6439 17.1942 25.9287C17.1875 25.9355 17.1875 25.9424 17.1808 25.9469C16.8093 26.6077 16.3797 27.1159 15.8874 27.4622C15.3884 27.8154 14.8335 27.9954 14.2293 28.0023H7.95042C7.32611 28.016 6.84054 27.738 6.48027 27.1934C6.18938 26.7559 6.00141 26.1406 5.90072 25.3704L1.99152 19.6761L1.97138 19.6579C1.73866 19.3434 1.42315 18.849 1.18372 18.3021C1.00695 17.8919 0.874926 17.4476 0.843599 17.0101C0.812272 16.4906 0.881639 16.0781 1.02709 15.7523C1.20386 15.3467 1.49476 15.0846 1.8416 14.9434C2.16382 14.8089 2.52856 14.7884 2.89554 14.8659C3.33636 14.957 3.7906 15.1803 4.17548 15.5085C4.49099 15.7773 5.02132 16.2148 5.53822 16.6455L5.96785 17.0055V9.59994C5.96785 8.18034 6.58544 7.26888 7.38653 6.85645C7.70875 6.6901 8.05559 6.60579 8.40914 6.60579C8.76269 6.60579 9.10953 6.6901 9.42951 6.85645C10.2306 7.2666 10.8616 8.1849 10.8616 9.57943V12.0312L10.846 12.029Z" fill="black"/>
</g>
<defs>
<clipPath id="clip0_4248_27228">
<rect width="19" height="28" fill="white"/>
</clipPath>
</defs>
</svg>
