<svg width="53" height="53" viewBox="0 0 53 53" fill="none" xmlns="http://www.w3.org/2000/svg">
<rect width="53" height="53" fill="#D8F0EA"/>
<g clip-path="url(#clip0_3505_3867)">
<path fill-rule="evenodd" clip-rule="evenodd" d="M13.4254 8H33.0736C34.5115 8.00327 35.8896 8.56471 36.9063 9.56151C37.923 10.5583 38.4957 11.9093 38.499 13.319V25.1785C38.4957 26.5882 37.923 27.9392 36.9063 28.9361C35.8896 29.9329 34.5115 30.4943 33.0736 30.4976H22.8L14.5641 37.4401C14.4278 37.558 14.2587 37.6334 14.0784 37.6566C13.8981 37.6798 13.7149 37.6499 13.5521 37.5706C13.3893 37.4913 13.2543 37.3662 13.1643 37.2113C13.0743 37.0564 13.0334 36.8788 13.0469 36.701L13.4853 30.4945H13.4254C11.9881 30.4912 10.6105 29.9302 9.59386 28.9341C8.57721 27.9379 8.00416 26.5877 8 25.1785V13.319C8.00333 11.9093 8.57601 10.5583 9.59275 9.56151C10.6095 8.56471 11.9875 8.00327 13.4254 8ZM24.5917 21.8078H21.0242V21.6655C21.0073 21.1741 21.0767 20.6836 21.2292 20.2152C21.373 19.8405 21.5869 19.4954 21.86 19.1978C22.4312 18.6222 23.0403 18.084 23.6832 17.5866C24.19 17.1743 24.4434 16.8032 24.4434 16.4733C24.4505 16.3275 24.426 16.1819 24.3717 16.046C24.3173 15.9101 24.2343 15.787 24.128 15.6847C23.8665 15.479 23.535 15.3784 23.2006 15.4033C22.9963 15.3971 22.7929 15.4327 22.6034 15.5078C22.4139 15.5829 22.2424 15.6958 22.0998 15.8394C21.8064 16.1239 21.6203 16.631 21.5415 17.3454L17.9045 16.8908C17.9753 15.6946 18.4916 14.5655 19.3555 13.7179C20.1967 12.918 21.4994 12.5181 23.2637 12.5181C24.6295 12.5181 25.7272 12.7964 26.5694 13.353C27.0971 13.6682 27.5321 14.1124 27.8318 14.642C28.1315 15.1717 28.2856 15.7687 28.2791 16.3743C28.2798 16.9116 28.128 17.4384 27.8406 17.8958C27.3491 18.5857 26.7398 19.1873 26.0395 19.674C25.5722 19.9968 25.1664 20.3977 24.8409 20.8584C24.664 21.1472 24.5773 21.4805 24.5917 21.8171V21.8078ZM20.9011 22.9427H24.7179V25.627H20.9011V22.9427ZM41.6849 16.6589C42.8971 16.8907 43.9898 17.5276 44.7766 18.4608C45.5635 19.3941 45.9958 20.566 46 21.7769V33.6302C45.9958 35.0109 45.4345 36.334 44.4387 37.3103C43.4428 38.2866 42.0933 38.8369 40.685 38.841H40.4894L40.9373 45.1619C40.9475 45.3159 40.9113 45.4694 40.8331 45.6033C40.7548 45.7372 40.6381 45.8456 40.4975 45.9148C40.3569 45.9841 40.1985 46.0112 40.0423 45.9928C39.886 45.9744 39.7387 45.9113 39.6188 45.8114L31.3419 38.6369H20.4564L25.8187 33.2869H37.1742C38.3695 33.2837 39.5149 32.8167 40.3601 31.9881C41.2053 31.1595 41.6816 30.0366 41.6849 28.8647V17.0021C41.6849 16.8846 41.6849 16.7671 41.6849 16.6527V16.6589ZM33.0705 9.79362H13.4254C12.4727 9.79688 11.56 10.1694 10.8864 10.8298C10.2127 11.4902 9.83283 12.385 9.8295 13.319V25.1785C9.82866 26.1152 10.2067 27.014 10.8808 27.6778C11.5549 28.3415 12.47 28.7161 13.4254 28.7194H14.5389C14.78 28.7361 15.0045 28.8456 15.1635 29.0241C15.3225 29.2025 15.403 29.4354 15.3874 29.6719L15.031 34.6909L21.8254 28.9637C21.9929 28.7995 22.2194 28.7063 22.4562 28.7039H33.0705C34.0231 28.7007 34.9359 28.3282 35.6095 27.6678C36.2831 27.0073 36.6631 26.1125 36.6664 25.1785V13.319C36.6631 12.385 36.2831 11.4902 35.6095 10.8298C34.9359 10.1694 34.0231 9.79688 33.0705 9.79362Z" fill="#042B26"/>
</g>
<defs>
<clipPath id="clip0_3505_3867">
<rect width="38" height="38" fill="white" transform="translate(8 8)"/>
</clipPath>
</defs>
</svg>
