<svg width="53" height="53" viewBox="0 0 53 53" fill="none" xmlns="http://www.w3.org/2000/svg">
<rect width="53" height="53" fill="#D8F0EA"/>
<g clip-path="url(#clip0_3505_3873)">
<path d="M38.2368 38.9565C38.1575 38.7653 38.113 38.5554 38.113 38.3361C38.113 38.1168 38.1575 37.9068 38.2368 37.7157C38.3193 37.5246 38.4368 37.3491 38.5828 37.205L38.5923 37.1924C38.6748 37.111 38.77 37.0327 38.8716 36.9731C38.9255 36.9387 38.9827 36.9073 39.0461 36.8791V34.3036H36.3452C36.2627 34.8676 35.9897 35.3752 35.5962 35.7668C35.1042 36.2525 34.4219 36.5533 33.6697 36.5533H32.0415V43.578H36.8181C36.8435 43.5373 36.8689 43.4965 36.8975 43.4558C36.9546 43.3743 37.0181 43.2991 37.0879 43.2302C37.2371 43.083 37.418 42.9608 37.6211 42.8793C37.8147 42.801 38.0273 42.7571 38.2495 42.7571C38.4685 42.7571 38.6843 42.801 38.8779 42.8793C39.0811 42.9608 39.2588 43.083 39.4111 43.2302C39.5603 43.3775 39.6841 43.5561 39.7666 43.7566C39.8459 43.9477 39.8904 44.1576 39.8904 44.377C39.8904 44.5932 39.8459 44.8 39.7666 44.9974C39.6841 45.1979 39.5603 45.3765 39.4111 45.5237C39.262 45.671 39.0811 45.7932 38.8779 45.8747C38.6843 45.953 38.4717 45.9969 38.2495 45.9969C38.0337 45.9969 37.8274 45.9561 37.6338 45.8778L37.6211 45.8747C37.418 45.7932 37.2402 45.671 37.0879 45.5237C36.9959 45.4329 36.9133 45.3264 36.8435 45.2167C36.8054 45.154 36.7705 45.0851 36.7419 45.0193H31.3115C31.1084 45.0193 30.9275 44.9378 30.7942 44.8062C30.6577 44.6715 30.5752 44.4929 30.5752 44.2924V36.5533H27.0205V42.9263C27.0745 42.9545 27.1284 42.9827 27.1824 43.0172C27.2808 43.0767 27.3728 43.1519 27.4521 43.2302C27.6045 43.3806 27.7251 43.5561 27.8076 43.7566C27.887 43.9477 27.9314 44.1576 27.9314 44.377C27.9314 44.59 27.8901 44.7937 27.8108 44.9848L27.8076 44.9974C27.7251 45.1979 27.6013 45.3734 27.4521 45.5237C27.303 45.671 27.1221 45.7932 26.9189 45.8747C26.7253 45.953 26.5127 45.9969 26.2905 45.9969C26.0715 45.9969 25.8589 45.953 25.6621 45.8747C25.459 45.7932 25.2781 45.671 25.1289 45.5237C24.9797 45.3765 24.856 45.1979 24.7734 44.9974C24.6941 44.8062 24.6497 44.5963 24.6497 44.377C24.6497 44.1639 24.6909 43.9603 24.7703 43.7691L24.7734 43.7566C24.856 43.5561 24.9797 43.3806 25.1289 43.2302C25.2083 43.1519 25.2939 43.0829 25.3892 43.0234L25.4019 43.014C25.4526 42.9858 25.5066 42.9576 25.5605 42.9294V36.5533H20.8188V39.8557C20.8188 40.0562 20.7363 40.2348 20.603 40.3664C20.4697 40.498 20.2888 40.5795 20.0857 40.5795H16.7214C16.696 40.6296 16.6675 40.6766 16.6357 40.7267C16.5786 40.8113 16.512 40.8928 16.4358 40.968L16.4231 40.9805C16.2739 41.1278 16.093 41.25 15.8899 41.3315C15.6963 41.4098 15.4836 41.4537 15.2615 41.4537C15.0457 41.4537 14.8394 41.4129 14.6458 41.3346L14.6331 41.3315C14.4299 41.25 14.2522 41.1278 14.0999 40.9805C13.9507 40.8333 13.8269 40.6547 13.7444 40.4542C13.665 40.263 13.6206 40.0531 13.6206 39.8338C13.6206 39.6176 13.665 39.4077 13.7444 39.2134C13.8269 39.0129 13.9507 38.8343 14.0999 38.687C14.2554 38.5429 14.4395 38.4207 14.6426 38.3392C14.8362 38.2609 15.0488 38.217 15.271 38.217C15.4932 38.217 15.7058 38.2609 15.8994 38.3392C16.093 38.4207 16.2708 38.5366 16.4167 38.6839L16.4294 38.6933C16.512 38.7747 16.5913 38.8687 16.6516 38.969C16.6833 39.0223 16.7183 39.0787 16.7468 39.1413H19.3557V36.4937C18.8384 36.3809 18.375 36.124 18.0164 35.77C17.5371 35.2968 17.2419 34.6514 17.2419 33.9433V32.2231H9.45337V36.9387C9.49463 36.9637 9.53589 36.9888 9.57715 37.017C9.65967 37.0734 9.73267 37.136 9.80566 37.205C9.95483 37.3522 10.0786 37.5308 10.1611 37.7314C10.2405 37.9225 10.2849 38.1324 10.2849 38.3517C10.2849 38.5679 10.2405 38.781 10.1611 38.9721C10.0786 39.1727 9.95483 39.3481 9.80566 39.4985C9.65649 39.6458 9.47559 39.768 9.27246 39.8494C9.07886 39.9278 8.86621 39.9716 8.64404 39.9716C8.42505 39.9716 8.21558 39.9278 8.01562 39.8494C7.8125 39.768 7.63159 39.6458 7.48242 39.4985C7.33325 39.3513 7.20947 39.1727 7.12695 38.9721C7.04443 38.7747 7 38.5648 7 38.3455C7 38.1324 7.04126 37.9288 7.12061 37.7376L7.12378 37.7251C7.2063 37.5246 7.33008 37.3491 7.47925 37.1987C7.57129 37.1079 7.6792 37.0264 7.79028 36.9575C7.85059 36.9199 7.92358 36.8854 7.99023 36.8572V31.4993C7.99023 31.2988 8.07275 31.1202 8.20605 30.9886C8.34253 30.8539 8.52344 30.7724 8.72656 30.7724H17.2419V27.2632H10.1135C10.085 27.3165 10.0564 27.3697 10.0215 27.423C9.96118 27.5201 9.88501 27.611 9.80566 27.6893C9.65332 27.8397 9.47559 27.9588 9.27246 28.0402C9.07886 28.1186 8.86621 28.1624 8.64404 28.1624C8.42822 28.1624 8.22192 28.1217 8.02832 28.0434L8.01562 28.0402C7.8125 27.9588 7.63477 27.8366 7.48242 27.6893C7.33325 27.5421 7.20947 27.3635 7.12695 27.1629C7.04761 26.9718 7.00317 26.7619 7.00317 26.5425C7.00317 26.3264 7.04761 26.1164 7.12695 25.9222C7.20947 25.7216 7.33325 25.543 7.48242 25.3958C7.63159 25.2485 7.8125 25.1263 8.01562 25.0449C8.2124 24.9634 8.42188 24.9195 8.64722 24.9195C8.86304 24.9195 9.06934 24.9603 9.26294 25.0386L9.27563 25.0417C9.47876 25.1232 9.65649 25.2454 9.80884 25.3926C9.88818 25.471 9.95801 25.5556 10.0215 25.6496L10.031 25.6621C10.0596 25.7122 10.0881 25.7655 10.1167 25.8188H17.2419V21.4604C17.2419 21.3539 17.2483 21.2474 17.261 21.1408H13.2239C13.0208 21.1408 12.8398 21.0594 12.7065 20.9278C12.5732 20.7962 12.4907 20.6176 12.4907 20.4171V17.0958C12.4399 17.0707 12.3923 17.0425 12.3416 17.0112C12.2559 16.9548 12.1733 16.889 12.0972 16.8138L12.0845 16.8013C11.9353 16.654 11.8115 16.4754 11.729 16.2749C11.6497 16.0838 11.6052 15.8738 11.6052 15.6545C11.6052 15.4415 11.6465 15.2378 11.7258 15.0467L11.729 15.0341C11.8115 14.8336 11.9353 14.6581 12.0845 14.5078C12.2336 14.3605 12.4146 14.2383 12.6177 14.1568C12.8113 14.0785 13.0239 14.0346 13.2461 14.0346C13.4651 14.0346 13.6777 14.0785 13.8745 14.1568C14.0776 14.2383 14.2585 14.3605 14.4077 14.5078C14.5537 14.6613 14.6775 14.843 14.76 15.0435C14.8394 15.2347 14.8838 15.4446 14.8838 15.6639C14.8838 15.8832 14.8394 16.0932 14.76 16.2843C14.6775 16.4754 14.5601 16.6509 14.4141 16.795L14.4045 16.8076C14.322 16.889 14.2268 16.9673 14.1221 17.0269C14.0681 17.0582 14.011 17.0927 13.9475 17.1209V19.6964H17.9307V19.7152C17.9561 19.687 17.9846 19.6588 18.01 19.6337C18.502 19.1481 19.1843 18.8473 19.9365 18.8473H21.4631V10.422H16.6929C16.6675 10.4627 16.6421 10.5035 16.6135 10.5442C16.5564 10.6257 16.4929 10.6977 16.4231 10.7698C16.2739 10.9171 16.093 11.0392 15.8899 11.1207C15.6963 11.199 15.4836 11.2429 15.2615 11.2429C15.0425 11.2429 14.8267 11.199 14.6331 11.1207C14.4299 11.0392 14.2522 10.9171 14.0999 10.7698C13.9507 10.6225 13.8269 10.4439 13.7444 10.2434C13.665 10.0491 13.6206 9.84235 13.6206 9.61989C13.6206 9.40369 13.665 9.1969 13.7444 8.99951C13.8269 8.79898 13.9507 8.62038 14.0999 8.47312C14.249 8.32586 14.4299 8.20366 14.6331 8.1222C14.8267 8.04387 15.0393 8 15.2615 8C15.4773 8 15.6836 8.04073 15.8772 8.11906L15.8899 8.1222C16.093 8.20366 16.2708 8.32586 16.4231 8.47312C16.5151 8.56398 16.5977 8.67051 16.6675 8.78018C16.7056 8.83971 16.7405 8.91177 16.7722 8.97757H22.1963C22.3994 8.97757 22.5803 9.05904 22.7136 9.19063C22.8501 9.32536 22.9326 9.50396 22.9326 9.70449V18.8473H26.4873V11.0737C26.4333 11.0455 26.3794 11.0173 26.3254 10.9828C26.2271 10.9233 26.135 10.8481 26.0557 10.7698C25.9033 10.6194 25.7827 10.4439 25.7002 10.2434C25.6208 10.0523 25.5764 9.84235 25.5764 9.62302C25.5764 9.40996 25.6177 9.2063 25.697 9.01517L25.7002 9.00264C25.7827 8.80211 25.9065 8.62665 26.0557 8.47625C26.2048 8.32899 26.3857 8.20679 26.5889 8.12533C26.7825 8.047 26.9951 8.00313 27.2173 8.00313C27.4363 8.00313 27.6489 8.047 27.8457 8.12533C28.0488 8.20679 28.2297 8.32899 28.3789 8.47625C28.5281 8.62352 28.6519 8.80211 28.7344 9.00264C28.8137 9.19377 28.8582 9.40369 28.8582 9.62302C28.8582 9.83608 28.8169 10.0397 28.7375 10.2309L28.7344 10.2434C28.6519 10.4439 28.5281 10.6194 28.3789 10.7698C28.2996 10.8481 28.2139 10.9171 28.1187 10.9797L28.106 10.9891C28.0552 11.0173 28.0012 11.0455 27.9473 11.0737V18.8442H32.6858V14.1443C32.6858 13.9438 32.7683 13.7652 32.9016 13.6336C33.0349 13.502 33.2158 13.4205 33.4189 13.4205H36.7864C36.8118 13.3704 36.8403 13.3234 36.8721 13.2733C36.9292 13.1887 36.9958 13.1072 37.072 13.032L37.0847 13.0195C37.2339 12.8722 37.4148 12.75 37.6179 12.6685C37.8115 12.5902 38.0242 12.5463 38.2463 12.5463C38.4622 12.5463 38.6685 12.5871 38.8621 12.6654L38.8748 12.6685C39.0779 12.75 39.2556 12.8722 39.408 13.0195C39.5571 13.1667 39.6809 13.3453 39.7634 13.5458C39.8428 13.737 39.8872 13.9469 39.8872 14.1662C39.8872 14.3824 39.8428 14.5923 39.7634 14.7866C39.6809 14.9871 39.5571 15.1657 39.408 15.313C39.2493 15.4571 39.0684 15.5793 38.8652 15.6608C38.6716 15.7391 38.459 15.783 38.2368 15.783C38.0146 15.783 37.802 15.7391 37.6084 15.6608C37.4148 15.5793 37.2371 15.4634 37.0911 15.3193L37.0784 15.3099C36.9958 15.2284 36.9165 15.1344 36.8562 15.0341C36.8213 14.9809 36.7895 14.9245 36.761 14.8618H34.1521V18.8849C34.7139 18.982 35.2153 19.2515 35.5994 19.6306C36.0786 20.1037 36.3738 20.7492 36.3738 21.4573V21.78H43.5466V17.0645C43.5054 17.0394 43.4641 17.0143 43.4229 16.9861C43.3403 16.9297 43.2673 16.8671 43.1975 16.7982C43.0483 16.6509 42.9246 16.4723 42.842 16.2718C42.7627 16.0806 42.7183 15.8707 42.7183 15.6514C42.7183 15.4352 42.7627 15.2221 42.842 15.031C42.9246 14.8305 43.0483 14.655 43.1975 14.5046C43.3467 14.3574 43.5276 14.2352 43.7307 14.1537C43.9243 14.0754 44.137 14.0315 44.3591 14.0315C44.5781 14.0315 44.7908 14.0754 44.9875 14.1537C45.1907 14.2352 45.3716 14.3574 45.5208 14.5046C45.6699 14.6519 45.7937 14.8305 45.8762 15.031C45.9556 15.2221 46 15.4321 46 15.6514C46 15.8644 45.9587 16.0681 45.8794 16.2592L45.8762 16.2718C45.7937 16.4723 45.6699 16.6478 45.5208 16.7982C45.4287 16.889 45.3208 16.9705 45.2097 17.0394C45.1462 17.077 45.0764 17.1115 45.0098 17.1428V22.4975C45.0098 22.6981 44.9272 22.8766 44.7939 23.0082C44.6575 23.143 44.4766 23.2244 44.2734 23.2244H36.3738V26.7337H42.8865C42.915 26.6804 42.9436 26.6271 42.9785 26.5739C43.042 26.4767 43.115 26.3859 43.1943 26.3076C43.3467 26.1572 43.5244 26.0381 43.7275 25.9566C43.9211 25.8783 44.1338 25.8344 44.356 25.8344C44.5718 25.8344 44.7781 25.8752 44.9717 25.9535L44.9844 25.9566C45.1875 26.0381 45.3652 26.1603 45.5176 26.3076C45.6667 26.4548 45.7905 26.6334 45.873 26.8339C45.9524 27.0251 45.9968 27.235 45.9968 27.4543C45.9968 27.6705 45.9524 27.8804 45.873 28.0747C45.7905 28.2752 45.6667 28.4538 45.5176 28.6011C45.3684 28.7484 45.1875 28.8705 44.9844 28.952C44.7908 29.0303 44.5781 29.0742 44.356 29.0742C44.1401 29.0742 43.9338 29.0335 43.7402 28.9551L43.7275 28.952C43.5244 28.8705 43.3467 28.7484 43.1943 28.6011C43.115 28.5228 43.0452 28.4382 42.9817 28.3442L42.9722 28.3316C42.9436 28.2815 42.915 28.2282 42.8865 28.175H36.3738V32.8529H39.7761C39.9792 32.8529 40.1602 32.9344 40.2935 33.066C40.4268 33.1976 40.5093 33.3762 40.5093 33.5767V36.9011C40.5601 36.9261 40.6077 36.9543 40.6584 36.9888C40.7441 37.0452 40.8267 37.111 40.9028 37.1862L40.9155 37.1987C41.0647 37.346 41.1885 37.5246 41.271 37.7251C41.3503 37.9162 41.3948 38.1262 41.3948 38.3455C41.3948 38.5585 41.3535 38.7622 41.2742 38.9533L41.271 38.9659C41.1885 39.1664 41.0647 39.3419 40.9155 39.4923C40.7664 39.6395 40.5854 39.7617 40.3823 39.8432C40.1887 39.9215 39.9761 39.9654 39.7539 39.9654C39.5349 39.9654 39.3223 39.9215 39.1255 39.8432C38.9224 39.7617 38.7415 39.6395 38.5923 39.4923C38.4463 39.3387 38.3193 39.157 38.2368 38.9565ZM23.9768 24.3367H29.6389C30.0801 24.3367 30.4387 24.6908 30.4387 25.1263V30.2742C30.4387 30.7098 30.0801 31.0638 29.6389 31.0638H23.9768C23.5356 31.0638 23.177 30.7098 23.177 30.2742V25.1263C23.177 24.6908 23.5356 24.3367 23.9768 24.3367ZM33.6729 20.2447H19.9397C19.6255 20.2447 19.3367 20.3732 19.1272 20.5831C18.9019 20.8056 18.7622 21.1158 18.7622 21.4604V33.9401C18.7622 34.2848 18.9019 34.595 19.1272 34.8174C19.3398 35.0274 19.6255 35.1558 19.9397 35.1558H33.6729C33.9871 35.1558 34.2759 35.0274 34.4854 34.8174C34.7107 34.595 34.8503 34.2848 34.8503 33.9401V21.4604C34.8503 21.1158 34.7107 20.8056 34.4854 20.5831C34.2759 20.3732 33.9871 20.2447 33.6729 20.2447Z" fill="#042B26"/>
</g>
<defs>
<clipPath id="clip0_3505_3873">
<rect width="39" height="38" fill="white" transform="translate(7 8)"/>
</clipPath>
</defs>
</svg>
