<svg width="53" height="53" viewBox="0 0 53 53" fill="none" xmlns="http://www.w3.org/2000/svg">
<rect width="53" height="53" fill="#D8F0EA"/>
<g clip-path="url(#clip0_3505_3880)">
<path fill-rule="evenodd" clip-rule="evenodd" d="M13.9963 30.0913V42.4361C13.9946 42.5857 13.9344 42.7286 13.8285 42.8341C13.7227 42.9396 13.5796 42.9992 13.4303 43H8.56592C8.41636 43 8.27288 42.9407 8.16684 42.835C8.0608 42.7293 8.00082 42.5859 8 42.4361V30.0913H13.9963ZM8 26.06L20.8615 14.7842C23.7096 17.573 26.4712 20.9597 29.2884 23.7485L39.5646 13.4085L36.2557 10.0868L46 10V19.8473L42.8241 16.6651C40.5449 18.9797 35.1548 24.0769 32.8757 26.3637C29.9904 29.2516 28.6143 29.3042 25.7321 26.4163L20.8615 20.9876L15.1528 26.06H8ZM43.3683 21.9885V42.4392C43.3667 42.5882 43.3069 42.7307 43.2017 42.8361C43.0965 42.9416 42.9543 43.0015 42.8055 43.0031H37.938C37.7892 43.0007 37.6473 42.94 37.5427 42.834C37.4381 42.728 37.379 42.5851 37.3783 42.4361V27.7518C38.306 26.8501 39.3883 25.8028 40.4924 24.7369L42.7962 22.5152C42.9797 22.3296 43.1727 22.1538 43.3745 21.9885H43.3683ZM33.5776 31.1758V42.4361C33.576 42.5857 33.5158 42.7286 33.4099 42.8341C33.304 42.9396 33.161 42.9992 33.0117 43H28.1473C27.998 42.9992 27.855 42.9396 27.7491 42.8341C27.6432 42.7286 27.583 42.5857 27.5814 42.4361V32.378C28.1612 32.519 28.7568 32.5846 29.3534 32.5732C30.8709 32.5512 32.3453 32.0634 33.5776 31.1758ZM23.7869 30.2462V42.4206C23.7853 42.5702 23.7251 42.7131 23.6192 42.8186C23.5133 42.9241 23.3703 42.9837 23.221 42.9845H18.3535C18.2045 42.9837 18.0618 42.924 17.9564 42.8184C17.8511 42.7129 17.7915 42.5699 17.7907 42.4206V29.2113C17.8896 29.1369 17.9855 29.0594 18.0783 28.9789L20.509 26.8099L22.4696 28.9789L22.6211 29.1369C23.0169 29.5356 23.4055 29.8992 23.7869 30.2276V30.2462Z" fill="#042B26"/>
</g>
<defs>
<clipPath id="clip0_3505_3880">
<rect width="38" height="33" fill="white" transform="translate(8 10)"/>
</clipPath>
</defs>
</svg>
