<svg width="53" height="53" viewBox="0 0 53 53" fill="none" xmlns="http://www.w3.org/2000/svg">
<rect width="53" height="53" fill="#D8F0EA"/>
<g clip-path="url(#clip0_3505_3886)">
<path fill-rule="evenodd" clip-rule="evenodd" d="M5 40.9999C5.35343 36.3883 4.4541 36.589 8.29289 35.1422C10.2105 34.4205 12.6566 33.5052 14.4167 32.3999L17.7096 40.9999H5ZM35.9552 18.2237L37.46 18.4807C37.6139 18.5054 37.7189 18.6532 37.6909 18.8081L37.0715 22.5396C37.047 22.6945 36.9001 22.8001 36.7461 22.7719L35.2414 22.5185C35.0874 22.4938 34.9824 22.346 35.0104 22.1911L35.6298 18.4596C35.6543 18.3047 35.8013 18.1991 35.9552 18.2237ZM40.3084 16.0517C40.5814 15.3265 41.6837 16.2242 41.5647 17.4458C41.5262 17.8189 41.4177 18.2413 41.2463 18.7095L42.9889 19.0017C43.7098 19.1531 44.2557 19.7797 43.6643 20.5647C43.7028 20.9555 43.6468 21.3955 43.3424 21.5222C43.2794 22.1172 43.0554 22.4551 42.7055 22.6945C42.6355 22.9867 42.5305 23.2366 42.3556 23.4161C42.0651 23.7083 41.8901 23.5992 41.5192 23.5358L38.5763 23.0395C38.1108 22.962 37.8764 22.7895 37.6349 22.353L38.1843 19.0545C39.1012 18.963 39.7695 17.833 40.137 17.0832L40.3084 16.0517ZM21.4679 36.4271H21.9264C22.3393 36.4271 22.6787 36.0856 22.6787 35.6702V34.4416C22.6787 34.0262 22.3393 33.6848 21.9264 33.6848H19.2004C18.7874 33.6848 18.448 34.0262 18.448 34.4416V35.6702C18.448 36.0856 18.7874 36.4271 19.2004 36.4271H19.6658L18.7734 40.9999H22.3288L21.4679 36.4271ZM35.3953 13.1827C34.9929 13.1299 34.6115 13.151 34.2616 13.2461C33.9116 13.3411 33.5757 13.5101 33.2572 13.753C32.9423 13.9959 32.6938 14.2775 32.5084 14.5943C32.3264 14.9112 32.2074 15.2737 32.1514 15.6786L31.3536 21.7299C31.3011 22.1348 31.3221 22.5185 31.4166 22.8705C31.5111 23.2225 31.679 23.5605 31.9205 23.8808C32.1689 24.1976 32.4489 24.4581 32.7638 24.6341C33.0788 24.8172 33.4322 24.9369 33.8346 24.9897L36.4801 25.3417C36.7881 25.384 37.012 25.6726 36.9701 25.9859C36.9596 26.0563 36.9386 26.1162 36.9141 26.176C36.7636 26.5351 36.6061 26.8942 36.4347 27.2356C36.2527 27.5982 36.0672 27.9397 35.8643 28.2671C35.7628 28.436 35.6473 28.5945 35.5248 28.7599C36.0987 28.5909 36.6446 28.3797 37.159 28.1298C37.6979 27.8693 38.2088 27.5665 38.6847 27.2251C39.1711 26.8801 39.6156 26.4858 40.032 26.0599C40.1615 25.9261 40.3399 25.8733 40.5114 25.8944L42.786 26.1971C43.1884 26.25 43.5593 26.2288 43.9128 26.1338C44.2627 26.0387 44.5986 25.8698 44.9241 25.6269C45.239 25.384 45.4875 25.1023 45.6729 24.7855C45.8549 24.4687 45.9739 24.1061 46.0299 23.7013L46.8277 17.6499C46.8802 17.2451 46.8592 16.8614 46.7647 16.5094C46.6702 16.1573 46.5023 15.8159 46.2608 15.499C46.0194 15.1822 45.7394 14.9323 45.4245 14.7457C45.1095 14.5626 44.7491 14.443 44.3467 14.3866L41.5577 14.0029L35.3953 13.1827ZM38.3383 12.4188L44.5007 13.239C45.043 13.313 45.54 13.4819 45.9914 13.7389C46.4358 13.9959 46.8312 14.3479 47.1672 14.7915C47.5031 15.2315 47.7376 15.7067 47.8705 16.2066C48 16.7065 48.035 17.2345 47.9615 17.7872L47.1637 23.8386C47.0902 24.3912 46.9222 24.8911 46.6667 25.3382C46.4113 25.7853 46.0614 26.1831 45.6204 26.521C45.183 26.859 44.7106 27.0878 44.2137 27.2286C43.7168 27.3588 43.1919 27.394 42.6425 27.3201L40.6479 27.0526C40.2419 27.4504 39.808 27.82 39.3566 28.1474C38.8177 28.5346 38.2543 28.8726 37.6594 29.1542C37.061 29.4464 36.4312 29.6857 35.7698 29.8758C35.1154 30.0659 34.4225 30.2032 33.7017 30.2947C33.4952 30.3229 33.2852 30.2314 33.1593 30.0483C32.9808 29.7878 33.0508 29.4323 33.3097 29.2527C33.6737 29.0098 33.9886 28.7493 34.2511 28.4853C34.5065 28.2248 34.7235 27.9538 34.8949 27.6686V27.6616C35.0839 27.3553 35.2589 27.0385 35.4198 26.7181C35.4723 26.6055 35.5283 26.4858 35.5843 26.3696L33.6807 26.1162C33.1383 26.0458 32.6414 25.8733 32.1899 25.6163C31.7455 25.3593 31.3501 25.0073 31.0142 24.5637C30.6782 24.1237 30.4438 23.6485 30.3108 23.1486C30.1813 22.6417 30.1498 22.1136 30.2198 21.5715L31.0247 15.5202C31.0981 14.9745 31.2661 14.4746 31.5216 14.0205C31.777 13.5735 32.127 13.1757 32.5679 12.8377C33.0053 12.4998 33.4777 12.2639 33.9746 12.1301C34.468 11.9999 34.9929 11.9647 35.5388 12.0386L38.3383 12.4188ZM16.6983 29.7561C16.7823 29.0486 14.6967 26.345 14.3153 25.0495C13.4999 23.7435 13.2095 21.6666 14.0983 20.2866C14.4517 19.7374 14.3013 18.7623 14.3013 18.0055C14.3013 10.4897 27.3923 10.4862 27.3923 18.0055C27.3923 18.9559 27.1754 19.6776 27.6863 20.4274C28.5436 21.6771 28.1027 23.8914 27.3783 25.0531C26.9164 26.4154 24.7258 28.9887 24.8763 29.7597C25.0128 33.6144 16.6738 33.4876 16.6983 29.7561ZM26.8569 32.0056C28.4666 33.0406 30.7482 33.8925 32.5714 34.505C36.1547 35.7054 36.1442 35.8709 36.1197 40.9999H23.4591L26.8569 32.0056Z" fill="#042B26"/>
</g>
<defs>
<clipPath id="clip0_3505_3886">
<rect width="43" height="29" fill="white" transform="translate(5 12)"/>
</clipPath>
</defs>
</svg>
