<svg width="53" height="53" viewBox="0 0 53 53" fill="none" xmlns="http://www.w3.org/2000/svg">
<rect width="53" height="53" fill="#D8F0EA"/>
<g clip-path="url(#clip0_3505_3893)">
<path fill-rule="evenodd" clip-rule="evenodd" d="M18.527 13H46.1573C46.6077 13 46.9781 13.3689 46.9781 13.8176V18.6133H47.0014V35.862V36.8191V37.0252H19.1843V35.862H45.8336V18.816H16.8821V14.6385C16.8821 13.7378 17.6228 13 18.527 13ZM6.00478 26.7524C5.90134 24.8248 7.48956 24.3329 9.64166 24.4592L12.3576 27.4736L15.0169 24.4991L21.6033 24.4626C24.0924 24.745 23.5686 27.3373 21.6033 27.447H17.2925L16.2781 33.5156L15.5107 39.6773C15.3105 40.3287 14.9101 40.7541 14.3329 40.9734L10.5859 41C9.83184 40.887 9.3814 40.4483 9.24794 39.6773L8.66404 34.1903C7.12921 34.3365 6.61537 33.2531 6.45522 31.6844L6.00478 26.7524ZM12.1941 16.247C14.0393 16.247 15.5341 17.7359 15.5341 19.5738C15.5341 21.4116 14.0393 22.9005 12.1941 22.9005C10.349 22.9005 8.85422 21.4116 8.85422 19.5738C8.85089 17.7392 10.349 16.247 12.1941 16.247ZM12.3209 26.0578L10.2055 23.748L10.8295 23.2528C11.747 23.635 12.6579 23.635 13.5588 23.2528L14.413 23.758L12.3209 26.0578ZM28.0363 14.4889C28.7069 14.4889 29.2508 15.0306 29.2508 15.6986C29.2508 16.3666 28.7069 16.9084 28.0363 16.9084C27.3656 16.9084 26.8218 16.3666 26.8218 15.6986C26.8218 15.0306 27.3656 14.4889 28.0363 14.4889ZM21.1262 14.4889C21.7969 14.4889 22.3407 15.0306 22.3407 15.6986C22.3407 16.3666 21.7969 16.9084 21.1262 16.9084C20.4555 16.9084 19.9117 16.3666 19.9117 15.6986C19.9117 15.0306 20.4555 14.4889 21.1262 14.4889ZM24.5796 14.4889C25.2502 14.4889 25.7941 15.0306 25.7941 15.6986C25.7941 16.3666 25.2502 16.9084 24.5796 16.9084C23.9089 16.9084 23.365 16.3666 23.365 15.6986C23.365 15.0306 23.9089 14.4889 24.5796 14.4889ZM42.407 15.0373C42.2835 14.9143 42.2835 14.7116 42.407 14.5886C42.5304 14.4656 42.7339 14.4656 42.8574 14.5886L43.5247 15.2533L44.192 14.5886C44.3155 14.4656 44.519 14.4656 44.6425 14.5886C44.7659 14.7116 44.7659 14.9143 44.6425 15.0373L43.9752 15.702L44.6425 16.3666C44.7659 16.4896 44.7659 16.6923 44.6425 16.8153C44.519 16.9383 44.3155 16.9383 44.192 16.8153L43.5247 16.1506L42.8574 16.8153C42.7339 16.9383 42.5304 16.9383 42.407 16.8153C42.2835 16.6923 42.2835 16.4896 42.407 16.3666L43.0743 15.702L42.407 15.0373Z" fill="#042B26"/>
</g>
<defs>
<clipPath id="clip0_3505_3893">
<rect width="41" height="28" fill="white" transform="translate(6 13)"/>
</clipPath>
</defs>
</svg>
