<svg width="145" height="84" viewBox="0 0 145 84" fill="none" xmlns="http://www.w3.org/2000/svg">
<g clip-path="url(#clip0_4118_27904)">
<path d="M16.5547 22.7409C16.5547 22.7409 16.526 22.7218 16.4688 22.6836C16.4116 22.6645 16.3353 22.6454 16.2399 22.6263C16.1635 22.6072 16.0681 22.5977 15.9537 22.5977C15.6484 22.5213 15.429 22.3495 15.2955 22.0822C15.1619 21.8341 15.1333 21.5572 15.2096 21.2518C15.2859 21.1754 15.3431 21.0131 15.3813 20.765C15.4195 20.5168 15.4385 20.3163 15.4385 20.1636C15.5149 20.0109 15.5626 19.9059 15.5816 19.8486C15.6007 19.7722 15.6484 19.5813 15.7247 19.2759C15.782 18.9513 15.8774 18.5027 16.0109 17.93C16.1635 17.3381 16.3257 16.7081 16.4974 16.04C16.6882 15.3718 16.8695 14.7322 17.0412 14.1213C17.2129 13.5104 17.3655 12.995 17.4991 12.575C17.6517 12.155 17.7566 11.9163 17.8139 11.8591C17.8139 11.8591 17.8139 11.8304 17.8139 11.7731C17.8139 11.6968 17.8139 11.6204 17.8139 11.5441C17.8139 11.5441 17.8234 11.4581 17.8425 11.2863C17.8806 11.0954 17.976 10.8854 18.1287 10.6563C18.205 10.4463 18.2718 10.2172 18.329 9.96906C18.3862 9.72087 18.4149 9.5586 18.4149 9.48224C18.4912 9.38678 18.5961 9.15769 18.7297 8.79496C18.8823 8.41315 19.0254 8.04087 19.1589 7.67815C19.2734 7.37269 19.3974 7.04815 19.531 6.70451C19.6836 6.36089 19.8076 6.06498 19.903 5.81679C20.0175 5.56861 20.0747 5.44452 20.0747 5.44452C20.0747 5.36816 20.0747 5.32998 20.0747 5.32998C20.0747 5.31089 20.0747 5.30134 20.0747 5.30134C20.151 5.22498 20.3323 4.84316 20.6185 4.15589C20.9237 3.44952 21.3339 2.5427 21.8491 1.43543C21.9254 1.2827 22.0208 1.11089 22.1353 0.919977C22.2497 0.729068 22.307 0.595431 22.307 0.519067C22.4024 0.366339 22.5359 0.299521 22.7076 0.318611C22.8793 0.318611 23.051 0.375885 23.2228 0.490431C23.4135 0.604976 23.5566 0.76725 23.652 0.97725L23.9382 1.43543L22.908 3.49725C22.6027 4.0318 22.3451 4.51861 22.1353 4.9577C21.9445 5.3968 21.8491 5.65452 21.8491 5.73089C21.8491 5.73089 21.7918 5.88361 21.6774 6.18907C21.5629 6.49451 21.4293 6.85724 21.2767 7.27724C21.1241 7.69724 20.9905 8.07905 20.876 8.42269C20.6662 9.01451 20.4658 9.50133 20.2751 9.88315C20.1033 10.265 20.0175 10.4941 20.0175 10.5704C20.0175 10.5322 20.2274 10.5036 20.6471 10.4845C21.0668 10.4654 21.601 10.4559 22.2497 10.4559C22.8984 10.4559 23.5566 10.4559 24.2244 10.4559C24.9112 10.4368 25.5122 10.4272 26.0274 10.4272C26.5616 10.4081 26.9241 10.3795 27.1149 10.3413L28.603 10.1981L29.576 7.2486C29.7287 6.71405 29.929 6.06498 30.177 5.30134C30.4251 4.5377 30.6445 3.88861 30.8353 3.35407C31.1405 2.47589 31.379 1.9318 31.5507 1.7218C31.7224 1.5118 31.9228 1.4068 32.1517 1.4068C32.2089 1.4068 32.2853 1.42589 32.3806 1.46407C32.4951 1.48316 32.6001 1.53089 32.6954 1.60725C32.8099 1.66452 32.8862 1.75043 32.9244 1.86498C33.1533 2.07498 33.2583 2.31361 33.2392 2.58089C33.2392 2.84816 33.0866 3.20134 32.7813 3.64043C32.476 4.15589 32.2185 4.71907 32.0086 5.32998C31.8178 5.92179 31.6461 6.4086 31.4935 6.79042C31.4935 7.01951 31.4649 7.21042 31.4076 7.36315C31.3504 7.49678 31.2836 7.60178 31.2073 7.67815C31.1691 7.71633 31.0928 7.85951 30.9783 8.10769C30.8639 8.35587 30.7589 8.60406 30.6635 8.85224C30.5681 9.10042 30.5204 9.25315 30.5204 9.31042C30.5204 9.44406 30.4918 9.60633 30.4346 9.79724C30.3774 9.98815 30.3106 10.1218 30.2343 10.1981C30.1961 10.3127 30.1103 10.5991 29.9767 11.0572C29.8431 11.5154 29.6905 12.0595 29.5188 12.6895C29.3471 13.3004 29.1658 13.9018 28.9751 14.4936C28.7843 15.0663 28.6126 15.5436 28.4599 15.9254C28.4599 16.0591 28.4122 16.2309 28.3168 16.4409C28.2214 16.6318 28.1737 16.8036 28.1737 16.9563C28.0974 17.1854 28.002 17.4718 27.8876 17.8154C27.7731 18.1591 27.7158 18.3786 27.7158 18.4741C27.6204 18.9131 27.5155 19.3618 27.401 19.82C27.3056 20.2781 27.2198 20.6695 27.1435 20.9941C27.0862 21.3377 27.0576 21.5381 27.0576 21.5954C26.9813 21.6718 26.8668 21.6813 26.7142 21.6241C26.5616 21.5668 26.3803 21.5 26.1705 21.4236C25.808 21.2136 25.5885 20.9845 25.5122 20.7363C25.455 20.5072 25.5313 20.1731 25.7412 19.7341C25.8366 19.5813 25.951 19.2091 26.0846 18.6172C26.2372 18.0063 26.3899 17.405 26.5425 16.8131C26.657 16.5268 26.781 16.145 26.9145 15.6677C27.0481 15.1713 27.1816 14.675 27.3152 14.1786C27.4487 13.6631 27.5632 13.2336 27.6586 12.89C27.754 12.5272 27.8208 12.3268 27.8589 12.2886C27.8589 12.2122 27.8589 12.1454 27.8589 12.0881C27.8589 12.0309 27.8589 12.0022 27.8589 12.0022C27.8208 11.9641 27.5823 11.9354 27.1435 11.9163C26.7047 11.8781 26.1609 11.8686 25.5122 11.8877C24.8635 11.8877 24.1862 11.9068 23.4803 11.945C22.7935 11.9641 22.1734 12.0118 21.6201 12.0881C21.4103 12.0881 21.1718 12.0881 20.9047 12.0881C20.6376 12.0881 20.4277 12.0881 20.2751 12.0881C20.0652 12.0881 19.8839 12.0881 19.7313 12.0881C19.5978 12.0881 19.531 12.0881 19.531 12.0881C19.5119 12.1454 19.4451 12.3459 19.3306 12.6895C19.2162 13.0331 19.0826 13.4531 18.93 13.9495C18.7774 14.4268 18.6152 14.9231 18.4435 15.4386C18.2908 15.935 18.1573 16.3931 18.0428 16.8131C17.9474 17.2141 17.8806 17.5004 17.8425 17.6722C17.7662 18.0159 17.6612 18.4454 17.5277 18.9609C17.4132 19.4763 17.2797 20.0013 17.127 20.5359C16.9935 21.0895 16.8695 21.5668 16.755 21.9677C16.6596 22.3686 16.5928 22.6263 16.5547 22.7409Z" fill="#35C759"/>
<path d="M34.2253 19.9337C33.9773 19.9337 33.777 19.886 33.6243 19.7906C33.4908 19.6951 33.3191 19.5615 33.1092 19.3897C32.7467 19.0078 32.4891 18.6451 32.3365 18.3015C32.1839 17.9387 32.1362 17.5951 32.1934 17.2706C32.2506 17.1178 32.2697 16.9747 32.2506 16.841C32.2506 16.6883 32.2506 16.6119 32.2506 16.6119C32.1553 16.5165 32.1266 16.4592 32.1648 16.4401C32.2029 16.4019 32.2411 16.3447 32.2793 16.2683C32.3937 16.2683 32.4319 16.1633 32.3937 15.9533C32.3556 15.8006 32.4319 15.4665 32.6227 14.951C32.8135 14.4356 33.052 13.9487 33.3381 13.4906C33.4526 13.2997 33.6243 13.0515 33.8533 12.746C34.0822 12.4215 34.3303 12.1065 34.5974 11.801C34.8835 11.4765 35.1411 11.2187 35.3701 11.0278C35.847 10.6269 36.2668 10.331 36.6293 10.1401C36.9918 9.9492 37.3829 9.80602 37.8026 9.71056C38.2224 9.61511 38.5085 9.56738 38.6612 9.56738C38.8329 9.56738 39.0618 9.72011 39.348 10.0256C39.7868 10.2165 40.1016 10.4456 40.2924 10.7128C40.5023 10.9801 40.6358 11.3715 40.6931 11.8869C40.7503 12.4597 40.7026 13.1183 40.55 13.8628C40.4164 14.5883 39.9681 15.4951 39.2049 16.5833C38.7279 17.2706 38.2891 17.786 37.8885 18.1297C37.4878 18.4542 37.0108 18.7787 36.4576 19.1033C36.0569 19.3706 35.6944 19.571 35.3701 19.7047C35.0457 19.8192 34.6641 19.8956 34.2253 19.9337ZM36.9727 16.8983C37.4306 16.3828 37.7931 15.896 38.0602 15.4378C38.3464 14.9797 38.6135 14.3974 38.8615 13.691C38.9378 13.481 38.9855 13.2233 39.0046 12.9178C39.0237 12.5933 39.0141 12.2974 38.976 12.0301C38.9569 11.7437 38.8901 11.5815 38.7756 11.5433C38.5467 11.4097 38.2701 11.3715 37.9457 11.4287C37.6214 11.4669 37.2684 11.6483 36.8868 11.9728C36.2954 12.4692 35.7803 13.0897 35.3414 13.8342C34.9026 14.5597 34.4733 15.3901 34.0536 16.3256C33.7674 17.0128 33.7006 17.5665 33.8533 17.9865C34.025 18.3874 34.3779 18.5306 34.9122 18.416C35.4654 18.2824 36.1523 17.7765 36.9727 16.8983Z" fill="#35C759"/>
<path d="M44.6921 19.0755C44.4059 19.0755 44.1388 18.9037 43.8908 18.5601C43.6618 18.1974 43.4901 17.7392 43.3756 17.1855C43.2803 16.6128 43.2516 16.021 43.2898 15.4101C43.2898 14.7992 43.3184 14.3124 43.3756 13.9496C43.452 13.5678 43.5283 13.1955 43.6046 12.8328C43.6618 12.7183 43.6904 12.6228 43.6904 12.5464C43.7095 12.4701 43.7286 12.346 43.7477 12.1742C43.7858 12.0024 43.8526 11.716 43.948 11.3151C44.0243 10.9905 44.1006 10.7233 44.177 10.5133C44.2533 10.3033 44.3296 10.1601 44.4059 10.0837C44.5013 9.96917 44.6253 9.90235 44.7779 9.88326C44.9306 9.84508 45.0832 9.85462 45.2358 9.9119C45.3885 9.96917 45.5125 10.0742 45.6079 10.2269C45.7224 10.3224 45.7796 10.5419 45.7796 10.8855C45.7987 11.2101 45.7796 11.5537 45.7224 11.9164C45.6651 12.2601 45.5793 12.5083 45.4648 12.661C45.4266 12.7564 45.3789 13.0046 45.3217 13.4055C45.2835 13.8064 45.2358 14.2264 45.1786 14.6655C45.1404 15.1046 45.0928 15.4578 45.0355 15.7251C44.9783 16.0687 45.0069 16.3455 45.1214 16.5555C45.2549 16.7655 45.4934 16.7751 45.8368 16.5842C46.1993 16.3742 46.6763 15.8396 47.2677 14.9805C47.6684 14.4078 47.9737 13.9401 48.1835 13.5774C48.3934 13.2146 48.5556 12.8805 48.6701 12.5751C48.8036 12.2505 48.9372 11.9069 49.0707 11.5442C49.1661 11.2387 49.252 10.9905 49.3283 10.7996C49.4237 10.5896 49.5095 10.456 49.5858 10.3987C49.7194 10.3033 49.872 10.2651 50.0437 10.2842C50.2345 10.3033 50.4444 10.3892 50.6733 10.5419C50.9023 10.771 51.0168 11.0478 51.0168 11.3724C51.0168 11.6778 50.9023 12.0596 50.6733 12.5178C50.5207 12.8233 50.3681 13.2146 50.2154 13.6919C50.0819 14.1692 49.9674 14.656 49.872 15.1524C49.7957 15.6296 49.7576 16.021 49.7576 16.3264C49.7576 16.7083 49.8052 16.9374 49.9006 17.0137C50.0151 17.071 50.1487 17.0996 50.3013 17.0996C50.5303 17.0996 50.8069 17.0137 51.1312 16.8419C51.4556 16.6701 51.8181 16.3742 52.2187 15.9542C52.3904 15.7824 52.6003 15.5342 52.8483 15.2096C53.0964 14.866 53.3349 14.5128 53.5638 14.1501C53.8118 13.7683 54.0122 13.4342 54.1648 13.1478C54.3365 12.8614 54.4224 12.6801 54.4224 12.6037C54.4224 12.4892 54.5082 12.3269 54.6799 12.1169C54.7944 11.9642 54.8803 11.8496 54.9375 11.7733C55.0138 11.6778 55.1474 11.5824 55.3381 11.4869C55.4908 11.4105 55.6243 11.401 55.7388 11.4583C55.8533 11.4964 55.9773 11.5919 56.1108 11.7446C56.2062 11.821 56.2539 11.9355 56.2539 12.0883C56.273 12.241 56.2826 12.4319 56.2826 12.661C56.2253 12.871 56.1299 13.1478 55.9964 13.4914C55.8819 13.816 55.7483 14.131 55.5957 14.4364C55.4622 14.7228 55.3477 14.9233 55.2523 15.0378C55.176 15.1142 55.0424 15.2574 54.8516 15.4674C54.6608 15.6583 54.4891 15.8683 54.3365 16.0974C53.8595 16.6701 53.5161 17.0424 53.3062 17.2142C53.0964 17.386 52.9151 17.5483 52.7625 17.701C52.3618 18.1019 51.9421 18.4074 51.5033 18.6174C51.0645 18.8083 50.6447 18.9037 50.2441 18.9037C49.8625 18.9037 49.5381 18.8083 49.271 18.6174C48.6796 18.3119 48.3839 17.7964 48.3839 17.071C48.3839 16.9183 48.3553 16.7846 48.298 16.6701C48.2599 16.5364 48.2408 16.4696 48.2408 16.4696C48.1645 16.4696 48.0595 16.4887 47.926 16.5269C47.8115 16.5651 47.6875 16.6987 47.5539 16.9278C47.3822 17.2524 47.1056 17.5864 46.724 17.9301C46.3615 18.2546 45.9895 18.5314 45.6079 18.7605C45.2263 18.9705 44.921 19.0755 44.6921 19.0755Z" fill="#35C759"/>
<path d="M66.4937 19.476C66.2076 19.4378 65.9595 19.2373 65.7497 18.8746C65.5589 18.4928 65.4444 18.1492 65.4062 17.8437C65.4253 17.691 65.4444 17.4714 65.4635 17.1851C65.5016 16.8987 65.5398 16.6028 65.578 16.2973C65.6543 15.9346 65.7592 15.4955 65.8928 14.9801C66.0263 14.4455 66.1599 13.911 66.2934 13.3764C66.4461 12.8419 66.5796 12.3837 66.6941 12.0019C66.8086 11.6201 66.8849 11.391 66.923 11.3146C67.0184 11.1619 67.171 11.1237 67.3809 11.2001C67.5908 11.2764 67.7625 11.391 67.8961 11.5437C68.0105 11.6964 68.0773 11.8778 68.0964 12.0878C68.1345 12.2978 68.1059 12.6032 68.0105 13.0042C67.9342 13.4051 67.7816 13.9969 67.5526 14.7796C67.3428 15.5432 67.1806 16.1637 67.0661 16.641C66.9707 17.0992 66.9326 17.586 66.9516 18.1014C66.8753 18.7505 66.8181 19.1514 66.7799 19.3042C66.7418 19.4378 66.6464 19.4951 66.4937 19.476ZM69.7849 8.05006C69.7086 8.10733 69.6322 8.13597 69.5559 8.13597C69.4987 8.11688 69.3937 8.05961 69.2411 7.96415C69.1076 7.94506 68.9359 7.85915 68.726 7.70642C68.5352 7.53461 68.3635 7.36279 68.2109 7.19097C68.0773 7.00006 68.0105 6.88552 68.0105 6.84733C67.9914 6.65643 68.001 6.41779 68.0391 6.13144C68.0964 5.82598 68.2013 5.55871 68.3539 5.32962C68.5066 5.08144 68.726 4.9478 69.0122 4.92871C69.0885 4.92871 69.1553 4.93826 69.2125 4.95735C69.2697 4.97644 69.4414 5.04326 69.7276 5.1578C69.8803 5.44417 70.0329 5.76871 70.1855 6.13144C70.3382 6.47506 70.4049 6.8187 70.3859 7.16233C70.3668 7.48688 70.1664 7.78279 69.7849 8.05006Z" fill="#35C759"/>
<path d="M74.408 20.3063C74.1409 20.2299 73.9215 20.144 73.7498 20.0486C73.5781 19.934 73.3491 19.7527 73.063 19.5045C72.834 19.199 72.6528 18.9127 72.5192 18.6454C72.4047 18.3781 72.3284 18.0727 72.2903 17.729C72.2521 17.3663 72.233 16.9081 72.233 16.3545C72.233 16.1254 72.2712 15.7817 72.3475 15.3236C72.4429 14.8654 72.5478 14.3881 72.6623 13.8917C72.7958 13.3763 72.9103 12.9181 73.0057 12.5172C73.1202 12.1163 73.187 11.8586 73.206 11.744C73.2633 11.4958 73.1679 11.3527 72.9199 11.3145C72.6718 11.2763 72.3952 11.2667 72.0899 11.2858C71.8037 11.2858 71.613 11.2572 71.5176 11.1999C71.4412 11.1808 71.4031 11.1522 71.4031 11.114C71.4031 11.0567 71.4031 11.0281 71.4031 11.0281C71.4031 10.9517 71.3935 10.904 71.3745 10.8849C71.3745 10.8468 71.3458 10.7799 71.2886 10.6845C71.2505 10.6081 71.2695 10.5031 71.3458 10.3695C71.4412 10.2167 71.5939 10.1213 71.8037 10.0831C71.9755 10.0449 72.2044 10.0163 72.4906 9.9972C72.7958 9.95902 73.1011 9.8922 73.4064 9.79675C73.7116 9.6822 73.9597 9.51039 74.1505 9.2813C74.3222 8.8613 74.5225 8.39357 74.7514 7.87811C74.9804 7.36266 75.1998 6.90448 75.4097 6.50357C75.6386 6.08358 75.7912 5.82585 75.8676 5.7304C76.1919 5.55858 76.4304 5.49176 76.583 5.52994C76.7356 5.54904 76.9074 5.71131 77.0982 6.01676C77.1935 6.1504 77.2603 6.2554 77.2985 6.33176C77.3557 6.40811 77.3653 6.52266 77.3271 6.67539C77.2889 6.82811 77.184 7.06675 77.0123 7.3913C76.8597 7.71584 76.6212 8.18357 76.2968 8.79448C76.2014 8.98539 76.1156 9.1572 76.0393 9.30993C75.963 9.44357 75.9248 9.51039 75.9248 9.51039C76.0011 9.52948 76.1156 9.53902 76.2682 9.53902C76.4208 9.53902 76.6116 9.52948 76.8406 9.51039C77.0505 9.4722 77.3176 9.44357 77.6419 9.42448C77.9662 9.3863 78.2238 9.3863 78.4146 9.42448C78.8534 9.42448 79.1778 9.51039 79.3876 9.6822C79.5975 9.83493 79.712 10.1022 79.731 10.484C79.7692 10.694 79.7215 10.8181 79.5879 10.8563C79.4735 10.8945 79.1587 10.9136 78.6435 10.9136C78.4718 10.9136 78.2047 10.9231 77.8422 10.9422C77.4797 10.9613 77.0981 10.9804 76.6975 10.9995C76.3159 11.0186 75.982 11.0472 75.6958 11.0854C75.4287 11.1045 75.2952 11.1331 75.2952 11.1713C75.238 11.2095 75.1426 11.3908 75.009 11.7154C74.8945 12.0399 74.7705 12.4122 74.637 12.8322C74.5225 13.2331 74.4176 13.5958 74.3222 13.9204C74.1886 14.5695 74.0837 15.2186 74.0074 15.8677C73.9501 16.5168 73.9406 17.0799 73.9787 17.5572C74.0169 18.0345 74.1218 18.3686 74.2935 18.5595C74.4653 18.7313 74.7991 18.7695 75.2952 18.674C75.7912 18.5595 76.1919 18.3781 76.4972 18.1299C76.8406 17.8436 77.1172 17.7004 77.3271 17.7004C77.556 17.7004 77.6801 17.8054 77.6991 18.0154C77.7373 18.2063 77.6324 18.4831 77.3843 18.8458C77.1554 19.1895 76.8692 19.4949 76.5258 19.7622C76.1824 20.0104 75.8199 20.1918 75.4383 20.3063C75.0758 20.4018 74.7324 20.4018 74.408 20.3063Z" fill="#35C759"/>
<path d="M96.3945 19.5335C96.2419 19.5526 96.0415 19.4667 95.7935 19.2757C95.5455 19.0848 95.307 18.8653 95.0781 18.6171C94.9063 18.3498 94.7632 17.9107 94.6488 17.2998C94.5534 16.6889 94.4866 16.0589 94.4484 15.4098C93.8952 16.2498 93.3991 16.9371 92.9603 17.4717C92.5215 18.0062 92.1208 18.4262 91.7583 18.7317C91.4149 19.018 91.0906 19.2089 90.7853 19.3044C90.6136 19.3617 90.4705 19.3617 90.356 19.3044C90.2415 19.228 90.1461 19.123 90.0698 18.9894C89.9935 18.8557 89.9076 18.6457 89.8123 18.3594C89.7359 18.0539 89.7073 17.7389 89.7264 17.4144C89.6882 17.0135 89.6501 16.5553 89.6119 16.0398C89.5929 15.5244 89.5738 15.0185 89.5547 14.5221C89.5547 14.0067 89.5642 13.5485 89.5833 13.1476C89.6024 12.7467 89.6405 12.4794 89.6978 12.3457C89.6787 12.2694 89.6692 12.193 89.6692 12.1167C89.6692 12.0403 89.6692 12.0021 89.6692 12.0021C89.6119 11.9067 89.5833 11.6967 89.5833 11.3721C89.6024 11.0285 89.6405 10.6944 89.6978 10.3698C89.755 10.0453 89.8027 9.84483 89.8409 9.76847C89.879 9.69211 89.9267 9.63483 89.984 9.59665C90.0603 9.55847 90.1461 9.52983 90.2415 9.51074C90.5277 9.56801 90.6803 9.68256 90.6994 9.85438C90.7567 9.89256 90.8139 9.94983 90.8711 10.0262C90.9284 10.0835 90.9952 10.1026 91.0715 10.0835C91.1287 10.1217 91.1669 10.2935 91.1859 10.5989C91.2241 10.9044 91.2432 11.2576 91.2432 11.6585C91.2241 11.8494 91.2241 12.0307 91.2432 12.2026C91.2623 12.3744 91.2527 12.5271 91.2146 12.6607C91.2146 12.7562 91.2241 12.9662 91.2432 13.2907C91.2623 13.5962 91.2813 13.9112 91.3004 14.2357C91.3004 14.4839 91.2909 14.818 91.2718 15.238C91.2527 15.6389 91.2432 15.973 91.2432 16.2403C91.3004 16.6221 91.3481 16.8703 91.3863 16.9848C91.4435 17.0803 91.5294 17.0898 91.6438 17.0135C91.7583 16.9753 91.9586 16.7271 92.2448 16.2689C92.5501 15.8107 92.903 15.238 93.3037 14.5507C93.609 14.0926 93.8665 13.7012 94.0764 13.3767C94.3053 13.033 94.4961 12.7657 94.6488 12.5748C94.706 12.1167 94.7632 11.7062 94.8205 11.3435C94.8968 10.9807 94.9445 10.723 94.9636 10.5703C95.2307 10.303 95.4692 10.1503 95.679 10.1121C95.8889 10.0548 96.0606 10.1598 96.1942 10.4271C96.385 10.5035 96.4994 10.6276 96.5376 10.7994C96.5948 10.9521 96.6044 11.1335 96.5662 11.3435C96.4899 11.6107 96.4136 11.8685 96.3373 12.1167C96.28 12.3648 96.2132 12.6226 96.1369 12.8898C96.0606 13.1571 96.0034 13.5867 95.9652 14.1785C95.9461 14.7703 95.9461 15.3621 95.9652 15.9539C95.9843 16.5267 96.032 16.9562 96.1083 17.2426C96.1274 17.4144 96.2228 17.5003 96.3945 17.5003C96.5853 17.4812 96.8238 17.3476 97.11 17.0994C97.3961 16.7939 97.7109 16.4121 98.0544 15.9539C98.4169 15.4767 98.7221 15.0376 98.9702 14.6367C99.2373 14.2357 99.3708 13.9876 99.3708 13.8921C99.3708 13.7394 99.409 13.5771 99.4853 13.4053C99.5616 13.2144 99.657 13.0712 99.7715 12.9757C99.8669 12.8612 99.9241 12.7467 99.9432 12.6321C99.9623 12.4985 100 12.3648 100.058 12.2312C100.077 12.193 100.105 12.1357 100.144 12.0594C100.182 11.983 100.21 11.9067 100.229 11.8303C100.172 11.6967 100.21 11.5821 100.344 11.4867C100.496 11.3721 100.592 11.2576 100.63 11.143C100.668 10.8948 100.773 10.7517 100.945 10.7135C101.136 10.6562 101.317 10.6944 101.489 10.828C101.679 10.9426 101.784 11.1239 101.803 11.3721C101.803 11.6012 101.727 11.9353 101.574 12.3744C101.441 12.8135 101.25 13.2812 101.002 13.7776C100.773 14.2739 100.516 14.7226 100.229 15.1235C100.153 15.2762 100.077 15.4289 100 15.5817C99.9432 15.7344 99.8382 15.9348 99.6856 16.183C99.533 16.4312 99.2659 16.7939 98.8843 17.2712C98.7698 17.4239 98.6363 17.5862 98.4836 17.758C98.3501 17.9107 98.207 18.0539 98.0544 18.1876C97.73 18.6076 97.4343 18.9321 97.1672 19.1612C96.9192 19.3903 96.6616 19.5144 96.3945 19.5335Z" fill="#35C759"/>
<path d="M106.197 20.1915C105.949 20.2106 105.748 20.1915 105.596 20.1342C105.443 20.0578 105.252 19.9528 105.023 19.8192C104.604 19.4947 104.289 19.1701 104.079 18.8456C103.888 18.5019 103.802 18.1678 103.821 17.8433C103.86 17.6715 103.86 17.5188 103.821 17.3851C103.802 17.2515 103.793 17.1847 103.793 17.1847C103.678 17.0892 103.64 17.0319 103.678 17.0128C103.717 16.9747 103.745 16.9174 103.764 16.841C103.917 16.8028 103.936 16.6978 103.821 16.526C103.764 16.3733 103.793 16.0297 103.907 15.4951C104.041 14.9415 104.213 14.426 104.422 13.9488C104.518 13.7388 104.651 13.4619 104.823 13.1183C105.014 12.7747 105.224 12.431 105.453 12.0874C105.682 11.7247 105.892 11.4383 106.082 11.2283C106.502 10.751 106.874 10.3978 107.198 10.1688C107.542 9.92057 107.923 9.72012 108.343 9.56739C108.725 9.41466 109.001 9.32875 109.173 9.30966C109.345 9.29057 109.583 9.40512 109.889 9.6533C110.346 9.78694 110.69 9.97784 110.919 10.226C111.167 10.4551 111.358 10.8178 111.491 11.3142C111.644 11.8678 111.692 12.5265 111.634 13.2901C111.596 14.0347 111.272 14.9988 110.661 16.1824C110.299 16.9269 109.936 17.4901 109.574 17.8719C109.23 18.2538 108.811 18.6547 108.315 19.0747C107.952 19.3801 107.618 19.6188 107.313 19.7906C107.008 19.9624 106.636 20.096 106.197 20.1915ZM108.486 16.7838C108.868 16.211 109.164 15.686 109.373 15.2088C109.602 14.7124 109.784 14.0919 109.917 13.3474C109.955 13.1374 109.965 12.8797 109.946 12.5742C109.927 12.2497 109.879 11.9538 109.803 11.6865C109.745 11.4192 109.66 11.276 109.545 11.2569C109.297 11.1615 109.02 11.1615 108.715 11.2569C108.41 11.3333 108.076 11.5624 107.714 11.9442C107.389 12.326 107.094 12.7556 106.826 13.2328C106.578 13.7101 106.349 14.2351 106.14 14.8078C105.93 15.3806 105.729 15.9915 105.539 16.6406C105.348 17.366 105.357 17.9197 105.567 18.3015C105.796 18.6833 106.168 18.7788 106.683 18.5878C107.198 18.3778 107.799 17.7765 108.486 16.7838Z" fill="#35C759"/>
<path d="M114.368 19.3617C114.196 19.2281 114.072 19.0944 113.996 18.9608C113.939 18.8271 113.939 18.5694 113.996 18.1876C114.053 17.6531 114.13 17.1853 114.225 16.7844C114.32 16.3644 114.435 15.8871 114.568 15.3526C114.607 15.1235 114.712 14.7321 114.883 14.1785C115.074 13.6249 115.303 13.0235 115.57 12.3744C115.837 11.7253 116.104 11.1144 116.371 10.5417C116.638 9.94988 116.867 9.51079 117.058 9.22442C117.211 9.10988 117.392 9.06215 117.602 9.08124C117.831 9.10033 118.022 9.18624 118.174 9.33897C118.384 9.51079 118.413 9.81624 118.26 10.2553C118.127 10.6753 117.84 11.3435 117.402 12.2599C117.173 12.7753 117.001 13.1667 116.887 13.434C116.772 13.6821 116.724 13.8349 116.743 13.8921C116.763 13.9303 116.848 13.9017 117.001 13.8062C117.115 13.5962 117.325 13.3576 117.631 13.0903C117.936 12.804 118.26 12.5271 118.604 12.2599C118.947 11.9926 119.271 11.754 119.577 11.544C119.882 11.334 120.092 11.2003 120.206 11.1431C120.359 11.0476 120.531 10.9712 120.721 10.914C120.931 10.8376 121.074 10.7803 121.151 10.7421C121.589 10.5321 122.038 10.4558 122.496 10.5131C122.954 10.5703 123.24 10.7421 123.354 11.0285C123.373 11.1812 123.431 11.2958 123.526 11.3721C123.64 11.4485 123.698 11.4867 123.698 11.4867C123.774 11.4867 123.812 11.5153 123.812 11.5726C123.831 11.6299 123.841 11.6585 123.841 11.6585C123.841 11.7921 123.736 11.8781 123.526 11.9162C123.335 11.9353 123.087 11.9544 122.782 11.9735C122.534 11.9926 122.314 12.0403 122.124 12.1167C121.933 12.1931 121.704 12.2885 121.437 12.4031C120.712 12.8231 120.015 13.2335 119.348 13.6344C118.699 14.0353 118.069 14.5699 117.459 15.2381C117.325 15.3908 117.192 15.5721 117.058 15.7821C116.925 15.9921 116.782 16.2212 116.629 16.4694C116.534 16.5649 116.438 16.7749 116.343 17.0994C116.247 17.424 116.162 17.739 116.085 18.0444C116.028 18.3308 115.999 18.5026 115.999 18.5599C115.999 18.5599 115.971 18.6553 115.913 18.8462C115.856 19.0181 115.761 19.1899 115.627 19.3617C115.398 19.6671 115.208 19.8199 115.055 19.8199C114.902 19.8199 114.673 19.6671 114.368 19.3617Z" fill="#35C759"/>
<path d="M124.767 19.734C124.576 19.6004 124.433 19.4763 124.338 19.3618C124.243 19.2472 124.204 19.0849 124.224 18.8749C124.262 18.5886 124.319 18.2927 124.395 17.9872C124.472 17.6627 124.567 17.3477 124.681 17.0422C124.739 16.6986 124.805 16.3549 124.882 16.0113C124.977 15.6677 125.13 15.3431 125.34 15.0377C125.588 14.3313 125.845 13.6345 126.112 12.9472C126.379 12.2409 126.608 11.5059 126.799 10.7422C127.085 10.0549 127.343 9.44404 127.572 8.90949C127.82 8.37494 128.116 7.68767 128.459 6.84767C128.65 6.40858 128.812 5.92178 128.946 5.38723C129.098 4.83359 129.327 4.34678 129.632 3.92678C129.766 3.75496 129.861 3.61178 129.919 3.49723C129.995 3.36359 130.071 3.2395 130.148 3.12496C130.186 3.01041 130.31 2.97223 130.52 3.01041C130.749 3.04859 130.911 3.1345 131.006 3.26814C131.101 3.24905 131.216 3.37314 131.35 3.64041C131.483 3.90768 131.531 4.11768 131.493 4.27041C131.493 4.48041 131.416 4.7095 131.264 4.95768C131.187 5.03405 131.111 5.14859 131.035 5.30132C130.958 5.43496 130.844 5.61632 130.691 5.84541C130.615 6.09359 130.539 6.34178 130.462 6.58994C130.386 6.83813 130.3 7.06722 130.205 7.27722C130.109 7.48722 130.004 7.69722 129.89 7.90722C129.775 8.11722 129.699 8.28904 129.661 8.42267C129.489 8.86176 129.299 9.29131 129.089 9.71131C128.898 10.1122 128.726 10.5418 128.574 10.9999C128.421 11.439 128.259 11.9068 128.087 12.4031C127.934 12.8804 127.725 13.3386 127.457 13.7777C127.324 13.9686 127.219 14.2263 127.143 14.5509C127.066 14.8754 126.99 15.1904 126.914 15.4959C126.78 15.8395 126.656 16.1545 126.542 16.4409C126.446 16.7272 126.399 16.9086 126.399 16.9849C126.265 17.4049 126.16 17.8249 126.084 18.2449C126.007 18.6459 125.883 18.999 125.712 19.3045C125.693 19.5909 125.607 19.7818 125.454 19.8772C125.321 19.9727 125.092 19.9249 124.767 19.734ZM131.607 20.1922C131.302 20.154 131.073 20.0968 130.92 20.0204C130.768 19.9249 130.481 19.7245 130.062 19.419C129.833 19.1899 129.518 18.8368 129.117 18.3595C128.717 17.8822 128.316 17.3763 127.915 16.8418C127.515 16.2881 127.181 15.8204 126.914 15.4386L128.087 13.8636C128.335 14.169 128.535 14.4554 128.688 14.7227C128.841 14.9899 128.965 15.1713 129.06 15.2668C129.499 15.9159 129.842 16.4409 130.09 16.8418C130.357 17.2427 130.596 17.5672 130.806 17.8154C131.016 18.0636 131.235 18.2831 131.464 18.474C131.712 18.6649 132.017 18.8654 132.38 19.0754C132.437 19.1136 132.494 19.1709 132.551 19.2472C132.609 19.3236 132.628 19.4381 132.609 19.5909C132.532 19.8009 132.447 19.9345 132.351 19.9918C132.275 20.0299 132.027 20.0968 131.607 20.1922ZM126.828 15.1236C126.713 14.799 126.751 14.4745 126.942 14.1499C127.152 13.8063 127.381 13.5677 127.629 13.434C127.705 13.3004 127.782 13.2145 127.858 13.1763C127.953 13.119 128.011 13.0522 128.03 12.9759C128.068 12.8995 128.163 12.7945 128.316 12.6609C128.488 12.5272 128.64 12.4031 128.774 12.2886C129.079 12.0977 129.423 11.8686 129.804 11.6013C130.205 11.3149 130.586 11.0286 130.949 10.7422C131.311 10.4559 131.617 10.2077 131.865 9.99767C132.132 9.78767 132.294 9.65404 132.351 9.59676C132.408 9.5204 132.485 9.47267 132.58 9.45358C132.695 9.4154 132.838 9.43449 133.009 9.51085C133.238 9.56813 133.391 9.66358 133.467 9.79722C133.544 9.91176 133.582 10.1409 133.582 10.4845C133.639 10.6945 133.553 10.9236 133.324 11.1718C133.114 11.4009 132.79 11.6586 132.351 11.9449C132.199 12.0404 131.989 12.1836 131.722 12.3745C131.474 12.5654 131.254 12.7468 131.063 12.9186C130.93 12.9949 130.729 13.1286 130.462 13.3195C130.214 13.4913 129.995 13.6631 129.804 13.8349C129.651 13.9304 129.451 14.1022 129.203 14.3504C128.955 14.5795 128.707 14.7513 128.459 14.8659C127.849 15.4386 127.448 15.744 127.257 15.7822C127.066 15.8204 126.923 15.6009 126.828 15.1236Z" fill="#35C759"/>
<path d="M138.082 19.9629C137.128 19.9629 136.432 19.6193 135.993 18.932C135.86 18.7411 135.793 18.5502 135.793 18.3593C135.812 18.1493 135.869 18.0061 135.965 17.9297C136.079 17.8534 136.213 17.9202 136.365 18.1302C136.632 18.2829 137.014 18.3593 137.51 18.3593C137.758 18.3593 138.016 18.3402 138.283 18.302C138.55 18.2447 138.817 18.1684 139.084 18.0729C139.37 17.9393 139.561 17.8247 139.656 17.7293C139.752 17.6147 139.733 17.5193 139.599 17.4429H139.628C139.132 17.3093 138.626 17.0993 138.111 16.8129C137.615 16.5074 137.186 16.1829 136.823 15.8393C136.461 15.4765 136.251 15.152 136.194 14.8656C136.041 14.2738 136.079 13.6724 136.308 13.0615C136.537 12.4315 136.861 11.8779 137.281 11.4006C137.434 11.3052 137.625 11.1906 137.853 11.057C138.082 10.9043 138.264 10.8184 138.397 10.7993V10.8279C138.76 10.4461 139.199 10.1406 139.714 9.91154C140.248 9.68245 140.811 9.47245 141.402 9.28154L141.831 9.22427C142.06 9.18608 142.251 9.16699 142.404 9.16699C142.385 9.16699 142.423 9.18608 142.518 9.22427C142.614 9.24336 142.7 9.26245 142.776 9.28154C142.89 9.33881 142.986 9.36745 143.062 9.36745C143.31 9.40563 143.539 9.52017 143.749 9.71108C143.959 9.90199 144.121 10.1311 144.235 10.3984C144.369 10.6465 144.417 10.8852 144.378 11.1143C144.34 11.477 144.226 11.8015 144.035 12.0879C143.863 12.3743 143.653 12.5365 143.405 12.5747C143.444 12.5556 143.415 12.527 143.32 12.4888C143.243 12.4315 143.157 12.3743 143.062 12.317L142.976 12.3743C142.976 12.3743 142.967 12.3552 142.948 12.317C142.948 12.2597 142.928 12.1929 142.89 12.1165C142.833 12.002 142.804 11.8779 142.804 11.7443C142.804 11.5915 142.814 11.4293 142.833 11.2574C142.871 11.0474 142.871 10.9234 142.833 10.8852C142.814 10.847 142.69 10.8184 142.461 10.7993C142.194 10.742 141.803 10.7897 141.288 10.9424C140.792 11.0952 140.372 11.3052 140.028 11.5724C139.609 11.8397 139.256 12.0974 138.97 12.3456C138.683 12.5747 138.454 12.8038 138.283 13.0329C138.111 13.2429 137.958 13.4911 137.825 13.7774C137.729 13.9111 137.644 14.0447 137.567 14.1784C137.51 14.2929 137.481 14.3979 137.481 14.4934C137.481 14.7034 137.634 14.9229 137.939 15.152C138.264 15.362 138.741 15.6102 139.37 15.8965C139.866 16.1065 140.286 16.3356 140.629 16.5838C140.973 16.832 141.211 17.1184 141.345 17.4429C141.383 17.5193 141.393 17.6147 141.374 17.7293C141.374 17.8247 141.354 17.8915 141.316 17.9297C141.354 17.9679 141.374 17.9965 141.374 18.0156V17.987C141.526 18.2161 141.526 18.4547 141.374 18.7029C141.24 18.9511 141.002 19.1706 140.658 19.3615C140.334 19.5334 139.933 19.667 139.456 19.7624H139.485C139.237 19.8388 138.989 19.8961 138.741 19.9343C138.512 19.9534 138.292 19.9629 138.082 19.9629Z" fill="#35C759"/>
<path fill-rule="evenodd" clip-rule="evenodd" d="M24.5508 65.7862C31.2276 72.776 39.4414 78.9761 48.8152 81.2988C52.2258 82.1446 55.6243 82.1764 59.1033 82.2406C59.3473 82.2457 59.55 82.0504 59.5552 81.8054C59.5593 81.5597 59.3643 81.3567 59.1189 81.3529C55.7071 81.2893 52.3733 81.2657 49.0287 80.4366C39.7879 78.1469 31.7053 72.0086 25.1336 65.1117L25.2315 65.0022C26.2975 63.8135 26.5653 61.6645 26.237 59.2127C25.7667 55.6982 24.1194 51.554 22.2708 48.9626C21.4399 47.7984 20.5594 46.9448 19.731 46.5588C19.0852 46.2575 18.4592 46.223 17.8836 46.4822C16.6574 47.0355 16.2193 48.512 16.4256 50.4541C16.8559 54.5159 19.9728 60.6859 21.9969 62.9949C22.6293 63.7155 23.2774 64.4327 23.9418 65.1416C23.76 65.356 23.5811 65.5647 23.398 65.7601C22.8746 66.315 22.3065 66.7649 21.4404 66.9196C20.0904 67.1588 18.6738 66.819 17.3098 66.2056C15.1818 65.2466 13.1849 63.6119 11.7501 62.2986C3.75995 54.984 1.51527 46.0376 1.43218 37.7555C1.34973 29.3913 3.46214 21.6947 4.15831 16.9775C4.1946 16.7349 4.02636 16.51 3.78394 16.4737C3.54153 16.4374 3.31563 16.6053 3.28046 16.8483C2.57943 21.5959 0.461258 29.3446 0.545406 37.7647C0.628925 46.2668 2.9488 55.445 11.1502 62.9541C12.6446 64.3226 14.7289 66.0166 16.945 67.0157C18.4793 67.7061 20.0768 68.0631 21.5961 67.7939C22.9594 67.5508 23.7322 66.7363 24.5508 65.7862ZM24.5223 64.4626L24.5716 64.4085C25.5036 63.3701 25.6443 61.4747 25.3569 59.3309C24.9051 55.9537 23.3251 51.97 21.5475 49.4789C20.9385 48.6244 20.31 47.9491 19.6939 47.5517C19.1854 47.2246 18.6959 47.0902 18.249 47.2926C17.826 47.4819 17.5651 47.8462 17.4186 48.3211C17.2455 48.8782 17.225 49.5754 17.3078 50.3599C17.7217 54.2629 20.719 60.1905 22.6642 62.4089C23.2688 63.0974 23.8878 63.7829 24.5223 64.4626Z" fill="#35C759"/>
<path fill-rule="evenodd" clip-rule="evenodd" d="M60.596 81.2779C60.5009 81.4478 60.3041 81.6361 60.09 81.836C59.5805 82.3132 58.9221 82.7841 58.6207 83.019C58.4272 83.1698 58.3939 83.4491 58.5441 83.6426C58.6953 83.8361 58.974 83.8704 59.1676 83.7196C59.5363 83.4313 60.4126 82.8026 60.9609 82.2235C61.2548 81.913 61.4552 81.603 61.5136 81.3523C61.6137 80.9266 61.369 80.562 60.7133 80.3679C59.9375 80.1388 58.384 80.0643 57.3365 79.2148C57.1468 79.0608 56.8659 79.0907 56.7127 79.2803C56.5579 79.4712 56.5871 79.7512 56.7779 79.9059C57.777 80.7153 59.1756 80.931 60.0997 81.1309C60.2752 81.1684 60.4769 81.2359 60.596 81.2779Z" fill="#35C759"/>
</g>
<defs>
<clipPath id="clip0_4118_27904">
<rect width="145" height="84" fill="white"/>
</clipPath>
</defs>
</svg>
